<?xml version="1.0" standalone="no"?>
<!DOCTYPE svg PUBLIC "-//W3C//DTD SVG 1.1//EN" "http://www.w3.org/Graphics/SVG/1.1/DTD/svg11.dtd" >
<svg xmlns="http://www.w3.org/2000/svg" xmlns:xlink="http://www.w3.org/1999/xlink" version="1.1">
<metadata></metadata>
<defs>
<font id="trajan_pro_3regular" horiz-adv-x="1024" >
<font-face units-per-em="2048" ascent="1536" descent="-512" />
<missing-glyph horiz-adv-x="665" />
<glyph horiz-adv-x="0" />
<glyph unicode="&#xd;" horiz-adv-x="681" />
<glyph unicode=" "  horiz-adv-x="665" />
<glyph unicode="&#x09;" horiz-adv-x="665" />
<glyph unicode="&#xa0;" horiz-adv-x="665" />
<glyph unicode="!" horiz-adv-x="737" d="M297 1393q0 12 10 28q25 41 89.5 95.5t105.5 54.5q12 0 12 -21q0 -4 -4 -38.5t-11 -100t-12 -131.5q-25 -449 -57 -838q-4 -65 -24 -65q-25 0 -29 69q-23 358 -33 523q-20 315 -39 385q-8 33 -8 39zM307 70q0 39 26.5 71.5t78.5 32.5q45 0 74.5 -27.5t29.5 -70.5 q0 -47 -29.5 -79t-76.5 -32q-49 0 -76 32t-27 73z" />
<glyph unicode="&#x22;" horiz-adv-x="751" d="M119 1651q0 28 86 28q88 0 88 -28q0 -2 -12.5 -48.5t-28.5 -151.5t-25 -245q-4 -43 -20.5 -43t-20.5 43q-8 139 -25.5 246t-29.5 152t-12 47zM459 1651q0 28 86 28q88 0 88 -28q0 -2 -12.5 -48.5t-29 -150.5t-24.5 -242q-4 -47 -20.5 -47t-20.5 45q-8 139 -25.5 245 t-29.5 151t-12 47z" />
<glyph unicode="#" horiz-adv-x="1210" d="M86 492v114h262l51 336h-247v115h264l73 487h74l-74 -487h330l70 487h72l-70 -487h233v-115h-252l-47 -336h238v-114h-254l-72 -492h-71l71 492h-334l-73 -492h-72l74 492h-246zM422 606h332l47 336h-328z" />
<glyph unicode="$" horiz-adv-x="1169" d="M176 127q0 125 19 242q6 39 22 39q12 0 10 -46q-4 -121 56 -190q74 -88 225 -96l61 657q-201 135 -274.5 229.5t-73.5 223.5q0 174 117 267t307 101l14 164q0 14 13 19l47 14q16 4 16 -10l-16 -189q55 -2 225 -30q18 -4 19 -33q0 -170 -9 -240q-2 -20 -16 -20 q-16 0 -16 31q0 78 -48 143.5t-163 79.5l-56 -606q180 -119 267.5 -220.5t87.5 -248.5q0 -102 -41 -183.5t-107.5 -126.5t-138.5 -69.5t-148 -28.5l-16 -168q-2 -12 -10 -14l-53 -13q-12 0 -11 19l17 176q-158 6 -269 53q-39 16 -48 28.5t-9 45.5zM358 1239 q0 -90 47.5 -157.5t180.5 -157.5l53 563q-113 -4 -197 -59.5t-84 -188.5zM582 74q137 8 207.5 87t70.5 201q0 94 -54 169t-169 155z" />
<glyph unicode="%" horiz-adv-x="1781" d="M102 1143q0 158 95.5 275.5t269.5 117.5q168 0 780 47q12 0 13 -8q0 -2 -23 -59l-602 -1500q-11 -22 -21 -24l-104 -17q-10 -2 -13 3.5t1 15.5q8 16 647 1509q-78 -4 -248 -16t-235 -17v-4q59 -43 96 -120.5t37 -171.5q0 -156 -91.5 -274t-261.5 -118q-164 0 -252 112 t-88 249zM229 1171q0 -131 59 -231t163 -100q111 0 164 85t53 220q0 131 -59.5 232.5t-162.5 101.5q-111 0 -164 -86t-53 -222zM985 360q0 158 90 275t264 117q162 0 251 -112t89 -249q0 -156 -91 -273.5t-263 -117.5q-164 0 -252 111.5t-88 248.5zM1112 389 q0 -131 58.5 -231.5t162.5 -100.5q111 0 165 86t54 219q0 131 -60 231.5t-163 100.5q-111 0 -164 -85t-53 -220z" />
<glyph unicode="&#x26;" horiz-adv-x="1681" d="M102 418q0 311 310 493q-96 135 -97 283q0 135 124 256t317 121q143 0 229 -41q31 -14 38 -25.5t7 -36.5q0 -141 -12 -221q-8 -49 -23 -49q-12 0 -12 39q0 109 -63 174q-84 90 -205 90q-104 0 -182 -67.5t-78 -200.5q0 -111 71.5 -220.5t251.5 -303.5 q49 -53 191.5 -187.5t195.5 -179.5q45 61 75 155.5t30 184.5q0 61 -39 100q-20 20 -84 31q-41 8 -41 16q0 14 33 15q113 0 245 -15q37 -4 37 -41q0 -115 -62.5 -251t-139.5 -232q150 -127 282 -203q135 -80 240 -79q33 0 33 -14.5t-29 -14.5h-266q-86 6 -164 43t-207 139 q-211 -211 -508 -211q-127 0 -227.5 45t-156.5 116t-85 145.5t-29 146.5zM270 514q0 -190 115 -313t289 -123q248 0 383 139q-78 66 -199 182.5t-170 169.5q-184 199 -246 289q-172 -113 -172 -344z" />
<glyph unicode="'" horiz-adv-x="411" d="M119 1651q0 28 86 28q88 0 88 -28q0 -2 -12.5 -48.5t-28.5 -151.5t-25 -245q-4 -43 -20.5 -43t-20.5 43q-8 139 -25.5 246t-29.5 152t-12 47z" />
<glyph unicode="(" horiz-adv-x="768" d="M127 696q0 141 35 274.5t84 228.5t116.5 182t118.5 137.5t105 91.5q20 12 26 12q6 -2 5 -7t-9 -16l-8 -10q-135 -143 -228 -365t-93 -505q0 -573 323 -907l4 -7q4 -6 6 -10t4 -9t0 -8t-10 -3q-6 0 -24 14q-74 55 -141.5 126t-144.5 182.5t-123 267t-46 331.5z" />
<glyph unicode=")" horiz-adv-x="796" d="M181 -218q1 5 9 15l9 10q135 143 228 365.5t93 505.5q0 573 -323 907q-8 8 -13.5 20.5t6.5 16.5q8 0 27 -14q74 -55 141.5 -126t144.5 -182.5t123 -267t46 -332.5q0 -141 -35 -274t-84 -228.5t-116.5 -182.5t-119 -137t-104.5 -91q-20 -12 -27 -12q-6 2 -5 7z" />
<glyph unicode="*" horiz-adv-x="716" d="M68 1475q0 16 20 16q39 0 113.5 -48t117.5 -83q18 -14 19 12q4 53 -55 201q-6 14 -7 22q0 14 51.5 37t80.5 23q16 0 16 -23q0 -98 -55 -260q-4 -10 -1 -13t11 -1q59 16 115.5 53t76.5 59q18 14 21 15q12 0 34.5 -50.5t22.5 -78.5q0 -12 -24 -19q-20 -6 -236 -12 q-16 0 -10 -14q18 -33 83.5 -84t90.5 -62q20 -8 20 -16q0 -25 -40.5 -63.5t-63.5 -38.5q-12 0 -29 28q-49 90 -88 211q-8 18 -16 6q-43 -68 -78 -170q-8 -20 -12 -47q0 -10 -25 -10q-39 0 -69.5 5t-45 11t-14.5 15q0 10 14 28q25 33 205 187q12 12 -2 18q-47 14 -172 14 q-16 0 -30.5 -3t-16.5 -3q-23 0 -22 138z" />
<glyph unicode="+" horiz-adv-x="1353" d="M193 684v107h430v440h108v-440h430v-107h-428v-455h-108v455h-432z" />
<glyph unicode="," horiz-adv-x="540" d="M168 -248q-23 0 14 49q80 111 80 185q0 53 -57 102q-17 15 -17 25q0 37 41 77.5t80 40.5q27 0 50.5 -42t23.5 -99q0 -127 -160 -295q-39 -43 -55 -43z" />
<glyph unicode="-" horiz-adv-x="706" d="M74 618l26 107q4 16 41 16h443q51 0 51 -16t-68 -31q-344 -61 -405 -80q-16 -4 -36 -11t-30 -10t-14 -3q-12 0 -8 28z" />
<glyph unicode="." horiz-adv-x="512" d="M150 92q0 41 28.5 75t79.5 34q45 0 74.5 -30t29.5 -77t-30.5 -78.5t-75.5 -31.5q-49 0 -77.5 33.5t-28.5 74.5z" />
<glyph unicode="/" horiz-adv-x="980" d="M98 8l695 1540q12 29 26 29q8 0 30.5 -11.5t31.5 -19.5q10 -10 0 -35l-699 -1552q-10 -18 -18 -18q-4 0 -31 13t-35 21q-10 10 0 33z" />
<glyph unicode="0" horiz-adv-x="1275" d="M129 721q0 381 139.5 615.5t384.5 234.5q135 0 237.5 -79t155 -201t77 -242.5t24.5 -233.5q0 -369 -140.5 -609.5t-385.5 -240.5q-156 0 -270.5 115t-168 282.5t-53.5 358.5zM303 805q0 -141 20.5 -272.5t61.5 -244t112.5 -180t164.5 -67.5q141 0 226 190.5t85 495.5 q0 201 -40 373t-124 284.5t-197 112.5q-143 0 -226 -188.5t-83 -503.5z" />
<glyph unicode="1" horiz-adv-x="821" d="M106.5 1302.5q-0.5 10.5 14.5 20.5q66 43 170 110.5t170 112.5q37 25 49 25q16 0 16 -43l-2 -29q0 -27 -1 -74t-2 -110.5t-2 -145.5t-2 -168t-2 -187t-1 -198q0 -328 10 -477q4 -51 21.5 -75.5t64.5 -28.5q29 -2 56 -6q33 -4 32 -21q0 -14 -34 -14q-68 0 -123.5 1 t-81.5 3l-29 2h-37q-37 -2 -97 -4t-118 -2q-35 0 -35 14q0 16 29 17q10 0 78 6q55 4 74.5 30.5t23.5 90.5q6 89 6 464v674q0 66 -30.5 66t-114.5 -33l-84 -31q-18 0 -18.5 10.5z" />
<glyph unicode="2" horiz-adv-x="1169" d="M57 29q0 16 37 49q106 96 170 153.5t150 142.5t135 144.5t105.5 139t86 148t49 149.5t19.5 163q0 104 -30.5 182t-81 118t-104.5 59.5t-110 19.5q-135 0 -219 -78q-74 -72 -74 -198q0 -31 -16 -31q-14 0 -16 27q-12 111 -13 251q0 16 21 31q156 72 360 72q221 0 342 -120 t121 -294q0 -117 -49 -241.5t-117.5 -224t-171 -207t-180.5 -177t-172 -151.5q-14 -12 -22.5 -18.5t-6.5 -10.5t11 -4h149q258 0 350 10q111 10 166 57.5t76 139.5q6 31 22 30q12 0 13 -24q0 -66 -62 -275q-12 -41 -38.5 -52t-94.5 -11h-371t-262 1t-143 1q-10 0 -19.5 8 t-9.5 21z" />
<glyph unicode="3" horiz-adv-x="1161" d="M123 70q0 152 14 256q2 31 17 30q12 0 14 -28q0 -6 2 -23.5t2 -23.5q37 -229 303 -230q164 0 267.5 93.5t103.5 269.5q0 96 -39 172t-102.5 121t-121 68.5t-116.5 35.5q-53 10 -53 26.5t47 24.5q45 8 95 30.5t104.5 63.5t90 110t35.5 153q0 39 -13 80.5t-43 89t-92.5 77 t-145.5 29.5q-115 0 -187 -63.5t-72 -178.5q0 -25 -14 -24q-12 0 -14 22q-14 115 -15 205q0 25 27 43q143 70 332 70q117 0 203 -33t127 -84t58 -98t17 -92q0 -72 -32.5 -138.5t-81.5 -112.5t-89 -75t-71 -43v-10q123 -29 230.5 -131.5t107.5 -262.5q0 -219 -172 -372.5 t-440 -153.5q-63 0 -140.5 15.5t-109.5 33.5q-33 20 -33 58z" />
<glyph unicode="4" horiz-adv-x="1239" d="M74 485q0 20 18 43q8 10 349 471t395 535q27 37 43 37q20 0 20 -35q0 -4 -1 -123t-1 -184v-658h156q25 0 43 5.5t28.5 11.5t12.5 6q10 0 10 -25q0 -16 -19 -80q-10 -29 -36 -28h-195q0 -270 4 -316q6 -63 37 -89.5t111 -28.5q49 0 49 -19q0 -14 -33 -14q-51 0 -112.5 1 t-102.5 3t-43 2q-4 0 -40 -1t-92.5 -3t-105.5 -2q-33 0 -32 14q0 16 34 17q92 0 128 25.5t38 94.5q4 91 4 316h-624q-43 0 -43 24zM217 571h524v725l-123 -170q-125 -172 -256 -354t-145 -201z" />
<glyph unicode="5" horiz-adv-x="1126" d="M121 57q0 205 8 258q8 37 18 37q16 0 17 -35q0 -152 75.5 -208t204.5 -56q145 0 253 100.5t108 297.5q0 94 -36 174t-89 132t-127 93t-137.5 63.5t-130.5 34.5q-33 6 -44.5 13.5t-9.5 23.5l48 522q2 27 38 27h482q70 0 119 8q14 2 27 4t16 2q14 0 14 -20q0 -63 -27 -258 q-4 -23 -16 -23t-12 27q0 68 -35 99.5t-146 31.5h-387l-28 -315q102 -27 178 -52.5t168 -72.5t151.5 -102.5t100.5 -142.5t41 -192q0 -219 -163 -392t-452 -173q-123 0 -188 37q-39 20 -39 57z" />
<glyph unicode="6" horiz-adv-x="1236" d="M129 545q0 354 231.5 629.5t565.5 381.5q43 14 57 15q18 0 18 -12q0 -14 -53 -39q-121 -55 -227.5 -136t-202.5 -196t-153.5 -275.5t-57.5 -345.5q0 -223 91 -373.5t257 -150.5q123 0 205 97.5t82 265.5q0 176 -95 299.5t-224 123.5q-96 0 -168 -34q-23 -10 -23 6 q0 12 21 26q115 80 258 80q186 0 293.5 -128t107.5 -294q0 -223 -137 -371.5t-352 -148.5q-236 0 -365 159t-129 421z" />
<glyph unicode="7" horiz-adv-x="1105" d="M102 1202q0 39 15.5 180.5t15.5 145.5q0 29 21 28q2 0 23.5 -5t66.5 -10t104 -5h664q37 0 37 -20q0 -18 -13 -39q-129 -190 -320.5 -655.5t-213.5 -659.5q-2 -16 -2 -28.5t1 -24t1 -19.5q0 -29 -83 -77t-118 -48q-18 0 -18 21q0 33 12 69q70 233 233.5 608t376.5 744 h-504q-129 0 -190 -51q-68 -53 -78 -158q-4 -29 -18 -29q-12 0 -13 33z" />
<glyph unicode="8" horiz-adv-x="1206" d="M127 367q0 274 360 448q-135 80 -208.5 171t-73.5 218q0 137 114.5 252t321.5 115q162 0 268.5 -91t106.5 -237q0 -76 -27.5 -139.5t-77 -109.5t-90.5 -73.5t-96 -54.5q66 -33 115 -66.5t110.5 -89t95 -131t33.5 -163.5q0 -184 -137 -317.5t-350 -133.5 q-197 0 -331 110.5t-134 291.5zM287 385q0 -141 91 -241.5t230.5 -100.5t226.5 93t87 233q0 80 -28 142t-90.5 114.5t-108.5 81t-138 75.5q-270 -139 -270 -397zM350 1243q0 -61 21.5 -111.5t69.5 -92.5t93 -70.5t121 -69.5q102 61 140 98q78 86 77 222q0 121 -70.5 201.5 t-185.5 80.5q-127 0 -196.5 -81t-69.5 -177z" />
<glyph unicode="9" horiz-adv-x="1216" d="M129 1094q0 211 138 344t351 133q211 0 340 -159t129 -398q0 -176 -53 -334t-130 -267.5t-184.5 -205.5t-191.5 -149.5t-174 -98.5q-4 -2 -11 -4t-16.5 -4t-15.5 1t-6 11q0 16 27 29q98 53 193.5 141t183.5 208t143 280.5t55 332.5q0 256 -97 398.5t-241 142.5 q-131 0 -205.5 -92t-74.5 -221q0 -119 35.5 -206t91 -127t102.5 -57.5t88 -17.5q94 0 154 37q18 12 31 12q10 -2 8 -12t-11 -18q-88 -94 -245 -95q-201 0 -307.5 123t-106.5 273z" />
<glyph unicode=":" horiz-adv-x="581" d="M184 92q0 41 29 75t80 34q45 0 74.5 -30t29.5 -77t-30.5 -78.5t-75.5 -31.5q-49 0 -78 33.5t-29 74.5zM184 881q0 41 29 74.5t80 33.5q45 0 74.5 -29.5t29.5 -76.5t-30.5 -79t-75.5 -32q-49 0 -78 34t-29 75z" />
<glyph unicode=";" horiz-adv-x="581" d="M178 -248q-23 0 15 49q80 111 79 185q0 53 -57 102q-16 15 -16 25q0 37 41 77.5t79 40.5q27 0 50.5 -42t23.5 -99q0 -127 -160 -295q-39 -43 -55 -43zM184 881q0 41 29 74.5t80 33.5q45 0 74.5 -29.5t29.5 -76.5t-30.5 -79t-75.5 -32q-49 0 -78 34t-29 75z" />
<glyph unicode="&#x3c;" horiz-adv-x="1249" d="M193 666v102l866 467v-117l-754 -401l754 -406v-116z" />
<glyph unicode="=" horiz-adv-x="1353" d="M193 453v110h968v-110h-968zM193 879v110h968v-110h-968z" />
<glyph unicode="&#x3e;" horiz-adv-x="1249" d="M193 197v116l751 404l-751 403v117l866 -471v-102z" />
<glyph unicode="?" horiz-adv-x="1101" d="M246 1456q0 18 22 33q137 82 340 82q186 0 278.5 -96.5t92.5 -223.5q0 -70 -15.5 -127t-53.5 -115.5t-72.5 -99.5t-101 -115.5t-109.5 -129.5q-84 -106 -84 -164q0 -55 32 -107q16 -25 17 -35q0 -16 -12 -16q-31 0 -88 72q-59 74 -60 121q0 45 45 102q25 33 73 88t68 82 q102 131 141.5 227t39.5 203q0 96 -57.5 180t-182.5 84q-137 0 -201 -80q-61 -74 -71 -190q-4 -35 -17 -35q-14 0 -16 21q-8 39 -8 239zM455 74q0 41 28.5 74.5t79.5 33.5q45 0 75 -29.5t30 -76.5t-31 -79t-76 -32q-49 0 -77.5 34t-28.5 75z" />
<glyph unicode="@" horiz-adv-x="1896" d="M152 606q0 262 123.5 483.5t337.5 351.5t466 130q326 0 496 -174t170 -441q0 -166 -77 -307t-210 -233q-137 -94 -282 -94q-119 0 -129 145q-4 63 14 215q-111 -188 -222.5 -274t-185.5 -86q-43 0 -73.5 48t-30.5 134q0 283 188 489q68 74 173.5 126t185.5 52 q78 0 123 -24q49 49 100 59q8 2 11 -3t-1 -15q-55 -84 -95 -273.5t-40 -336.5q0 -55 4 -84t27.5 -52.5t68.5 -23.5q125 0 239 145.5t114 366.5q0 246 -155 410.5t-435 164.5q-348 0 -565.5 -236.5t-217.5 -641.5q0 -311 172 -485.5t441 -174.5q199 0 323.5 44t239.5 139 q47 41 47 20q0 -16 -35 -51q-92 -94 -262 -166t-356 -72q-293 0 -492.5 192.5t-199.5 532.5zM702 592q0 -141 56 -141q61 0 153.5 100t173.5 280q12 27 37 114t35 118q-43 35 -123 35q-178 0 -270 -215q-61 -141 -62 -291z" />
<glyph unicode="A" horiz-adv-x="1433" d="M-55 10q0 12 28 13q16 0 50 4q66 8 102.5 56t69.5 136l464 1272q29 80 45.5 80t45.5 -74q8 -20 103 -270t206.5 -539t167.5 -426q82 -201 176 -227q37 -12 80 -12q23 0 22 -13q0 -16 -41 -16q-180 0 -321 4q-61 4 -61.5 14.5t14.5 14.5q18 6 18 27q0 12 -6 28l-190 504 q-7 12 -19 12h-440q-14 0 -21 -16l-123 -363q-28 -77 -28 -133q0 -33 22.5 -48t50.5 -15h19q27 0 27 -13q0 -16 -37 -16q-29 0 -87.5 3t-66.5 3q-2 0 -88 -3t-143 -3q-39 0 -39 16zM475 686q-6 -14 6 -14h391q12 0 9 14l-195 553q-14 47 -31 0z" />
<glyph unicode="B" horiz-adv-x="1402" d="M186 1526q0 16 33 16q41 0 96.5 -1t94.5 -3t41 -2q18 0 94 3t129 3q119 0 205 -32.5t127 -84t59 -98.5t18 -92q0 -78 -31.5 -150.5t-64.5 -111.5t-96 -107q135 -43 244.5 -155.5t109.5 -276.5q0 -180 -137 -313t-385 -133q-10 0 -33.5 1t-56.5 3t-58 2q-88 6 -124 6 q-33 0 -98.5 -3t-102.5 -3q-33 0 -33 14.5t31 14.5q23 0 49 6q43 8 57 114q11 87 11 445v360q0 377 -5 443q-4 55 -21 80.5t-67 35.5q-25 6 -59 6q-27 0 -27 13zM528 686q0 -412 2 -442q4 -61 7.5 -83t17.5 -42.5t45 -34.5q63 -31 180 -31q47 0 93.5 13.5t92.5 44t74.5 91 t28.5 142.5q0 111 -46 223.5t-153 186.5q-70 47 -170 59q-27 4 -159 4q-13 0 -13 -14v-117zM528 903q0 -16 15 -22q49 -8 125 -9q90 0 122.5 9.5t63.5 44.5q74 84 74 207q0 143 -68.5 247.5t-208.5 104.5q-57 0 -98 -10q-25 -7 -25 -23v-549z" />
<glyph unicode="C" horiz-adv-x="1648" d="M131 793q0 129 53.5 282.5t175.5 276.5q219 219 625 219q164 0 297 -25q29 -6 217 -30q18 -2 19 -23q0 -6 -2.5 -19.5t-4.5 -39t-4 -56.5q-2 -37 -4 -117.5t-2 -93.5q-2 -43 -18.5 -43t-16.5 43q0 135 -86 209q-57 49 -168.5 83t-240.5 34q-317 0 -471 -150 q-104 -100 -144.5 -230t-40.5 -304q0 -303 210 -526.5t530 -223.5q256 0 356 103q57 59 76 172q6 31 20.5 31t14.5 -31q0 -16 -15.5 -116.5t-29.5 -145.5q-8 -29 -16.5 -38t-37.5 -22q-116 -47 -368 -47q-430 0 -676 221q-248 223 -248 607z" />
<glyph unicode="D" horiz-adv-x="1878" d="M186 1526q0 16 33 16q41 0 96.5 -1t94.5 -3t41 -2q8 0 52 2t107.5 3t116.5 1h39q90 0 143.5 -1t153.5 -13t174 -35t160 -70t151 -114q199 -207 199 -521q0 -344 -221 -577q-225 -236 -621 -236q-109 0 -284 13q-37 2 -79 5t-64.5 5t-26.5 2q-39 0 -82 -2q-23 0 -64 -2 t-55 -2q-33 0 -33 16q0 12 21 13q35 4 57 8q45 8 59 112q11 87 11 445v360q0 377 -5 443q-4 57 -19 81.5t-62 34.5q-25 6 -70 6q-23 0 -23 13zM537 727q0 -367 4 -444q6 -131 22 -156q55 -82 348 -82q297 0 488 191q78 76 121 210t43 279q0 309 -197 516 q-131 139 -292 185.5t-378 46.5q-104 0 -133 -15q-25 -10 -24 -41q-2 -69 -2 -436v-254z" />
<glyph unicode="E" horiz-adv-x="1249" d="M186 1526q0 16 33 16q102 0 232 -6q422 0 469 2q76 4 94 12q16 8 22 9q8 0 8 -19q0 -4 -7 -33.5t-9 -62.5l-8 -123q-4 -35 -16 -35q-16 0 -18 27q0 41 -9 67q-20 63 -148 76q-53 6 -280 6q-12 0 -12 -20v-565q0 -20 12 -21q279 0 325 4q78 6 103 35q16 20 24 20 q10 0 11 -16q0 -4 -3 -18.5t-7.5 -41t-6.5 -55.5q-4 -37 -6 -87t-3 -52q-4 -31 -13 -31q-14 0 -14.5 33t-8.5 58q-14 57 -106 67t-293 10q-14 0 -14 -14v-180v-105.5v-157v-87.5q4 -68 17 -102t50 -48q45 -18 170 -18q123 0 184 18q47 14 70 48t35 104q6 31 18.5 30.5 t12.5 -30.5q0 -14 -10.5 -92t-16.5 -107q-10 -39 -28.5 -46t-82.5 -7q-59 0 -299 6q-246 6 -256 6q-20 0 -71 -4q-34 -3 -58 -3q-12 0 -22 1q-33 0 -33 16q0 8 23 13q39 4 47 6q37 8 54 47t19 145q5 160 5 367v360q0 377 -5 443q-4 55 -21 80.5t-67 35.5q-6 2 -16 3t-23.5 2 t-19.5 1q-27 4 -27 13z" />
<glyph unicode="F" horiz-adv-x="1212" d="M186 1526q0 16 33 16q41 0 118 -3t114 -3q457 0 503 2q86 4 101 12q12 8 18 9q12 0 12 -19q0 -4 -2 -14t-5 -24.5t-5 -24.5q-4 -25 -12 -150q0 -41 -19 -41q-12 0 -14 27q-6 74 -39 102q-43 37 -121 39l-313 6q-18 0 -18 -22v-566q0 -18 14 -18q201 0 285 2q86 2 114.5 8 t48.5 31q16 20 23 20q10 0 10 -16q0 -4 -3 -18.5t-7 -41t-6 -55.5q-4 -37 -6 -88l-2 -53q-4 -35 -15 -35q-12 0 -16 35q-2 33 -7 53.5t-33 46t-77 31.5q-51 6 -309 6q-14 0 -14 -18v-174q0 -319 6 -414q8 -135 84 -143q8 -2 84 -8q25 -2 24 -15q0 -14 -33 -14 q-51 0 -110.5 1t-99 3t-41.5 2h-19q-123 -6 -182 -6q-33 0 -33 16q0 10 23 13q37 4 53 8q33 8 46 36.5t17 96.5q9 117 9 424v360q0 377 -5 443q-4 55 -21 80.5t-67 35.5q-6 2 -24.5 3t-26.5 1q-35 4 -35 15z" />
<glyph unicode="G" horiz-adv-x="1765" d="M131 768q0 231 96.5 405.5t245.5 268.5q207 129 545 129q147 0 313 -35q70 -16 166 -20q25 -2 25 -19q0 -6 -3 -38t-7.5 -97.5t-4.5 -155.5q0 -43 -18 -43q-10 0 -14 31q-6 76 -43 135q-43 66 -170 116t-312 50q-266 0 -438 -135q-92 -74 -147.5 -210t-55.5 -310 q0 -190 71 -342t146 -226q225 -219 537 -219q160 0 233 43q41 23 41 72v348q0 125 -15 160t-77 51q-25 6 -69 6q-16 0 -17 12q0 16 33 17q41 0 96 -2t94 -3t41 -1t40 1t86 3t75 2q33 0 33 -17q0 -12 -17 -12q-14 0 -51 -6q-41 -8 -56 -34.5t-20 -82.5q-4 -66 -4 -213v-229 q0 -68 -4 -84t-22 -27q-174 -92 -434 -92q-424 0 -674 219q-102 88 -173 246t-71 338z" />
<glyph unicode="H" horiz-adv-x="1961" d="M186 1526q0 16 33 16q41 0 96.5 -1t94.5 -3t41 -2t39.5 2t86 3t74.5 1q33 0 33 -16q0 -12 -16 -13q-14 0 -52 -6q-41 -8 -56 -34.5t-19 -81.5q-4 -66 -4 -443v-43q0 -12 12 -12h868q12 0 13 12v43q0 377 -5 443q-4 55 -21.5 80.5t-66.5 35.5q-25 6 -69 6q-16 0 -17 13 q0 16 33 16q41 0 96.5 -1t94 -3t41 -2t40 2t86 3t74.5 1q33 0 33 -16q0 -12 -16 -13q-14 0 -52 -6q-41 -8 -56 -34.5t-19 -81.5q-4 -66 -4 -443v-360q0 -358 10 -445q6 -51 21.5 -78.5t58.5 -33.5q57 -8 92 -8q16 0 16 -13q0 -16 -33 -16q-49 0 -109.5 1t-100 3t-42 2 t-40 -1t-86 -3t-74.5 -2q-33 0 -33 16q0 12 16 13q25 0 62 8q45 8 59 112q10 86 11 445v215q0 12 -13 12h-868q-12 0 -12 -12v-215q0 -358 10 -445q6 -51 21.5 -78.5t58.5 -33.5q57 -8 92 -8q16 0 16 -13q0 -16 -33 -16q-49 0 -109.5 1t-100 3t-41.5 2t-40 -1t-86.5 -3 t-74.5 -2q-33 0 -33 16q0 12 16 13q25 0 62 8q45 8 59 112q10 86 11 445v360q0 377 -5 443q-4 55 -21 80.5t-67 35.5q-25 6 -69 6q-16 0 -17 13z" />
<glyph unicode="I" horiz-adv-x="901" d="M211 1526q0 16 33 16q31 0 80 -1t87 -3t40 -2t39.5 2t86 3t74.5 1q33 0 33 -16q0 -12 -16 -13q-14 0 -52 -6q-41 -8 -56 -34.5t-19 -81.5q-4 -66 -4 -443v-360q0 -358 10 -445q6 -51 21.5 -78.5t58.5 -33.5q57 -8 84 -8q25 0 24 -13q0 -16 -30 -16q-49 0 -111 1t-101.5 3 t-41.5 2t-40 -1t-86.5 -3t-74.5 -2q-33 0 -33 16q0 12 23 13q27 0 53 6q47 10 61 114q11 87 11 445v360q0 377 -5 443q-6 100 -69 114q-31 8 -64 8q-16 0 -16 13z" />
<glyph unicode="J" horiz-adv-x="847" d="M68 -504q0 12 28 31q35 20 72 57q76 76 112.5 144.5t60.5 220t24 407.5v592q0 377 -5 443q-4 55 -21 80.5t-67 35.5q-25 6 -63 6q-23 0 -23 14.5t31 14.5q41 0 96.5 -1t95.5 -3t42 -2t39.5 2t86 3t74.5 1q33 0 33 -16q0 -12 -22 -13q-12 0 -50 -4q-39 -4 -53 -31.5 t-18 -86.5q-4 -66 -4 -443v-491q0 -281 -9.5 -392.5t-52.5 -211.5q-63 -150 -299 -314q-59 -41 -80 -51q-8 -4 -14 -4q-14 0 -14 12z" />
<glyph unicode="K" horiz-adv-x="1583" d="M195 1526q0 16 32 16q31 0 82 -1t91 -3t42 -2t40 2t86 3t75 1q33 0 33 -14q0 -12 -23 -15l-45 -4q-39 -4 -55 -32.5t-21 -85.5q-4 -66 -4 -443v-131q29 27 114 116t197.5 206.5t155.5 160.5q86 88 108.5 120t22.5 53q0 29 -26 38q-18 8 -19 19q0 12 31 12q29 0 57.5 -3 t65.5 -3q35 0 120 3t97 3q35 0 35 -14q0 -12 -23 -15q-61 -6 -104 -24q-74 -29 -213 -164q-375 -360 -467 -465q94 -102 308 -321.5t290 -288.5q125 -117 194.5 -162t143.5 -59q27 -6 59 -6q29 0 29 -14.5t-31 -14.5h-151q-129 0 -187.5 19.5t-134.5 78.5q-88 70 -308 302.5 t-364 404.5v-211q0 -358 11 -445q6 -51 21 -78.5t58 -33.5q57 -8 82 -8t25 -14.5t-31 -14.5q-49 0 -109.5 1t-100.5 3t-42 2t-37.5 -1t-82 -3t-72.5 -2q-33 0 -33 14.5t23 14.5q27 0 53 6q47 10 61 114q10 86 11 445v360q0 377 -5 443q-6 100 -69 114q-31 8 -74 8 q-23 0 -22 13z" />
<glyph unicode="L" horiz-adv-x="1212" d="M186 1526q0 16 33 16q41 0 96.5 -1t94.5 -3t41 -2t45 2t96 3t80 1q33 0 33 -16q0 -12 -17 -13q-31 0 -67 -6q-43 -8 -59.5 -34.5t-20.5 -81.5q-4 -66 -4 -443v-364q0 -236 9 -339.5t36 -129.5q47 -47 245 -47q100 0 157.5 10t90.5 51q43 51 53 123q4 27 19 27 q12 0 12 -31q0 -94 -31 -205q-10 -37 -30.5 -46t-98.5 -9q-86 0 -266 6t-282 6q-31 0 -96.5 -3t-104.5 -3q-33 0 -33 16q0 12 16 13q25 0 62 8q45 8 59 112q10 86 11 445v360q0 377 -5 443q-4 55 -21 80.5t-67 35.5q-25 6 -69 6q-16 0 -17 13z" />
<glyph unicode="M" horiz-adv-x="2150" d="M102 10q0 12 21 13q31 0 61 6q57 10 74 104q2 10 8 66l148 1331q4 41 22 41q16 0 31 -31l627 -1288l602 1286q14 33 30 33q19 0 25 -55l137 -1258q20 -188 111 -217q59 -18 127 -18q23 0 22 -13q0 -16 -30 -16q-203 0 -355 12q-57 4 -57 21q0 8 14 14q11 4 11 38 q0 15 -2 36l-99 1069l-508 -1078q-47 -100 -57 -106q-4 -2 -10 -2q-14 0 -64 94q-35 68 -239 475q-16 35 -139.5 298t-137.5 300l-84 -964q-4 -66 -4 -97q0 -63 55 -73q35 -8 74 -8q20 0 21 -11q0 -18 -31 -18q-45 0 -121 2l-76 4q-4 0 -71.5 -3t-100.5 -3q-35 0 -35 16z " />
<glyph unicode="N" horiz-adv-x="1939" d="M135 10q0 12 17 13q47 0 84 12q37 10 49 63.5t12 196.5v303q0 309 1 466t1 166v238q0 102 23 103q8 0 19 -10.5t29.5 -31t22.5 -24.5q76 -86 651 -702q106 -115 283.5 -309.5t208.5 -225.5l-23 1041q-2 102 -17 142t-62 52q-45 10 -88 10q-29 0 -29 14.5t41 14.5 q55 0 133 -3t80 -3q4 0 64.5 3t109.5 3q37 0 37 -14q0 -10 -23 -15q-16 -2 -53 -8q-43 -10 -57.5 -45t-14.5 -139l-4 -1196q0 -51 -1 -80t-3 -43t-5 -18t-9 -4q-18 0 -150 131q-12 12 -96 97t-212 218t-226 240q-287 309 -535 587l27 -981q2 -125 19.5 -175t60.5 -62 q47 -12 102 -12q16 0 16 -13q0 -16 -36 -16q-51 0 -101.5 1t-81 3t-34.5 2l-70 -4q-72 -2 -127 -2q-33 0 -33 16z" />
<glyph unicode="O" horiz-adv-x="1873" d="M131 770q0 131 48 266t141.5 257t255 200t362.5 78q352 0 578.5 -208t226.5 -560t-227.5 -595t-589.5 -243q-162 0 -297 48t-225.5 128t-154 186.5t-91 217t-27.5 225.5zM326 827q0 -352 186 -568t469 -216q63 0 130 15.5t147.5 61.5t142 119.5t103.5 204.5t42 301 q0 352 -182 554t-440 202q-266 0 -432 -174t-166 -500z" />
<glyph unicode="P" horiz-adv-x="1314" d="M186 1526q0 16 33 16q41 0 94.5 -1t93 -3t44.5 -2q16 0 110 3t148 3q256 0 381 -117q102 -98 102 -268q0 -201 -143.5 -332t-360.5 -131q-33 0 -43 2q-23 0 -22 15q0 18 55 18q152 0 253 96.5t101 253.5q0 182 -114 299q-100 102 -281 103q-59 0 -88 -13q-16 -6 -17 -38 v-842q0 -358 11 -445q6 -51 21.5 -78.5t58.5 -33.5q57 -8 92 -8q16 0 16 -13q0 -16 -33 -16q-49 0 -109.5 1t-100 3t-42.5 2h-36q-37 -2 -85.5 -4t-74.5 -2q-33 0 -33 16q0 12 16 13q25 0 62 8q45 8 59 112q11 87 11 445v360q0 377 -5 443q-4 55 -21 80.5t-67 35.5 q-25 6 -69 6q-16 0 -17 13z" />
<glyph unicode="Q" horiz-adv-x="1884" d="M131 770q0 131 48 266t141.5 257t255 200t362.5 78q352 0 578.5 -209t226.5 -559q0 -127 -37 -245t-95.5 -203t-115.5 -144t-115 -96l420 -217q469 -242 862 -242q207 0 404 80q25 8 29 8q12 0 12 -12.5t-17 -20.5q-309 -141 -649 -141q-350 0 -844 274l-344 191 q-55 -29 -147 -49.5t-174 -20.5q-203 0 -362.5 73t-252 192.5t-139.5 257t-47 282.5zM326 827q0 -352 186 -568t469 -216q63 0 130 15.5t147.5 61.5t142 119.5t103.5 204.5t42 301q0 352 -182 554t-440 202q-266 0 -432 -174t-166 -500z" />
<glyph unicode="R" horiz-adv-x="1544" d="M186 1526q0 16 33 16q41 0 96.5 -1t94.5 -3t41 -2q6 0 105 3t136 3q250 0 375 -90q51 -37 96 -110.5t45 -167.5q0 -244 -247 -474q326 -418 425 -524q121 -127 250 -147q39 -6 80 -6q18 0 19 -13q0 -16 -49 -16h-146q-147 0 -219 39q-41 23 -91 74t-75 82.5t-111 144.5 q-47 63 -126.5 172.5t-96.5 130.5q-12 12 -26 12l-252 4q-14 0 -15 -16v-49q0 -358 11 -445q6 -51 21 -78.5t58 -33.5q57 -8 93 -8q16 0 16 -13q0 -16 -33 -16q-49 0 -109.5 1t-100.5 3t-42 2h-14q-14 -2 -36.5 -3t-47.5 -1t-51.5 -1t-42.5 -1q-33 0 -33 16q0 12 16 13 q25 0 62 8q45 8 59 112q11 87 11 445v360q0 377 -5 443q-4 55 -21 80.5t-67 35.5q-25 6 -69 6q-16 0 -17 13zM528 770q0 -16 15 -25q53 -32 206 -32h9q98 0 153 39q125 86 125 315q0 193 -95 301.5t-259 108.5q-96 0 -137 -13q-17 -6 -17 -24v-670z" />
<glyph unicode="S" horiz-adv-x="1167" d="M203 98q0 53 10 217q2 33 16.5 33t14.5 -22q0 -47 6 -76q23 -106 106.5 -157.5t196.5 -51.5q139 0 216 82t77 190q0 104 -50.5 180t-185.5 189l-92 76q-154 125 -210 227t-56 217q0 166 114.5 267.5t309.5 101.5q104 0 190 -21q49 -10 72 -10q20 0 20 -14l-2 -27 q-2 -27 -4 -78t-2 -112q0 -47 -14 -47q-12 0 -16 26q-6 63 -27 103q-58 108 -252 108h-4q-109 0 -180.5 -64.5t-71.5 -172.5q0 -88 51 -159t199 -185l57 -46q174 -137 236.5 -243.5t62.5 -237.5q0 -82 -40 -177t-134 -163q-123 -86 -309 -86q-162 0 -275 55q-20 10 -25 22.5 t-5 55.5z" />
<glyph unicode="T" horiz-adv-x="1415" d="M51 1319q0 33 45 213q12 39 21 39q4 0 30.5 -11.5t59.5 -13.5q98 -10 162 -10h768q90 0 145 10q12 2 25.5 4t20.5 4t11 2q10 0 11 -24q0 -35 -3.5 -127t-3.5 -98q0 -27 -14 -27t-16 35q0 4 -1 11t-1 11q-10 109 -252 113q-43 0 -129 2t-129 2v-866q0 -358 10 -445 q6 -51 21.5 -78.5t58.5 -33.5q57 -8 92 -8q16 0 16 -13q0 -16 -32 -16q-49 0 -109.5 1t-100.5 3t-42 2t-40 -1t-86 -3t-75 -2q-33 0 -33 16q0 12 17 13q25 0 61 8q45 8 59 112q10 86 11 445v866q-49 0 -151.5 -2t-151.5 -2q-96 -2 -140.5 -15.5t-68.5 -50.5q-23 -35 -35 -63 q-8 -20 -21 -21q-10 0 -10 19z" />
<glyph unicode="U" horiz-adv-x="1699" d="M68 1526q0 16 32 16q55 0 146 -2l90 -4q4 0 85 3t118 3q33 0 32 -16q0 -12 -16 -13q-14 0 -51 -6q-39 -6 -55.5 -32.5t-20.5 -83.5q-4 -66 -4 -443v-286q0 -205 40 -321t114 -185q70 -66 141.5 -89.5t167.5 -23.5q92 0 179 40t142 107q119 147 119 502v256q0 377 -4 443 q-4 55 -21.5 80.5t-66.5 35.5q-25 6 -70 6q-16 0 -16 13q0 16 33 16q41 0 92 -1t87 -3t38 -2t68.5 3t103.5 3q33 0 33 -16q0 -12 -17 -13q-14 0 -51 -6q-41 -8 -56.5 -34.5t-19.5 -81.5q-4 -66 -4 -443v-219q0 -203 -39 -358.5t-149 -253.5q-170 -152 -422 -152 q-268 0 -422 146q-178 170 -178 538v299q0 377 -4 443q-4 55 -21.5 80.5t-66.5 35.5q-25 6 -70 6q-16 0 -16 13z" />
<glyph unicode="V" horiz-adv-x="1517" d="M-53 1527.5q0 14.5 53 14.5q57 0 143 -3t90.5 -3t72 3t114.5 3q55 0 55 -14.5t-20 -14.5q-55 0 -78 -10q-27 -12 -27 -41q0 -27 41 -131l418 -1087q88 203 245.5 613.5t192.5 522.5q18 55 19 78q0 33 -27 47q-25 8 -78 8q-23 0 -22 13q0 16 45 16q49 0 122.5 -3t77.5 -3 l62 4q63 2 98 2t35 -14.5t-25 -14.5q-59 0 -98 -24q-49 -35 -113 -193q-14 -35 -229 -555q-219 -524 -264 -620q-8 -18 -17.5 -38t-14.5 -32t-11 -25.5t-10 -20.5t-8.5 -15t-6.5 -12.5t-5 -7.5t-6 -4t-7 -1q-16 0 -28.5 22.5t-45.5 104.5l-502 1256q-33 82 -61.5 111.5 t-85.5 45.5q-31 8 -78 8q-16 0 -16 14.5z" />
<glyph unicode="W" horiz-adv-x="2252" d="M-22.5 1527.5q-0.5 14.5 32.5 14.5q63 0 154 -2l88 -4q6 0 38 2t80 3t93 1q37 0 37 -14.5t-21 -14.5q-55 0 -80 -12q-27 -14 -26 -49q0 -16 39 -188q39 -166 276 -998l436 1174q35 94 51.5 94t51.5 -96l411 -1174q8 31 142.5 466t177.5 591q22 80 22 127q0 65 -116 65 q-18 0 -18.5 14.5t34.5 14.5q45 0 93 -1t79 -3t37 -2l63 4q63 2 103 2q29 0 29 -12q0 -16 -19 -17q-41 0 -70 -10q-41 -14 -69.5 -66.5t-63.5 -154.5q-45 -131 -191.5 -579.5t-184.5 -561.5q-41 -117 -55.5 -146.5t-31.5 -29.5q-14 0 -26 21.5t-35 85.5l-403 1145 q-344 -920 -430 -1143q-41 -109 -68 -109q-16 0 -28.5 29t-43.5 133l-364 1214q-25 80 -48.5 112t-64.5 48q-33 12 -92 12q-18 0 -18.5 14.5z" />
<glyph unicode="X" horiz-adv-x="1380" d="M-30.5 8.5q-0.5 14.5 16.5 14.5q39 0 77 10q80 21 170 166l371 585l-328 551q-80 135 -159 164q-45 14 -86 14q-18 0 -18.5 14.5t34.5 14.5t135.5 -3t104.5 -3q2 0 76.5 3t115.5 3q35 0 35 -14.5t-18 -14.5q-39 0 -56 -6q-25 -8 -24 -34q0 -31 20 -68q141 -266 277 -490 q47 66 166.5 257.5t134.5 224.5q20 43 20 73q0 27 -35 37q-20 6 -61 6q-18 0 -18 14.5t34 14.5q47 0 114 -3t69 -3t66.5 3t105.5 3q33 0 32.5 -14.5t-22.5 -14.5q-39 0 -68 -10q-29 -8 -56.5 -34.5t-44.5 -50t-56 -81.5l-330 -495q8 -14 113.5 -191.5t203 -338t115.5 -185.5 q55 -72 121 -92q43 -12 72 -12q16 0 16 -13q0 -16 -29 -16q-223 0 -327 4q-63 2 -63.5 16.5t11.5 16.5q10 4 15.5 17t-4.5 40q-131 240 -353 610l-319 -542q-27 -47 -27 -90q0 -31 33 -39q25 -4 39 -4q16 0 16 -14.5t-24 -14.5q-29 0 -110 3t-87 3q-4 0 -75.5 -3t-110.5 -3 q-20 0 -20.5 14.5z" />
<glyph unicode="Y" horiz-adv-x="1339" d="M-63 1527.5q0 14.5 26 14.5q23 0 112 -3t91 -3q4 0 30.5 2t66.5 3t75 1q27 0 27 -14q0 -4 -31 -19q-27 -14 -27 -36q0 -31 27 -80q27 -47 188.5 -326t188.5 -322q25 55 159 290t181 313q35 54 35 103q0 50 -33 58q-31 10 -31 21q0 12 33 12q31 0 81 -3t54 -3q2 0 89 3 t110 3q27 0 26 -12q0 -16 -26 -17q-49 0 -95 -28q-45 -27 -108 -105q-49 -59 -206 -321t-185 -330q-31 -74 -31 -205v-176q0 -119 6 -205q6 -102 84 -112q57 -8 92 -8q16 0 17 -13q0 -16 -33 -16q-49 0 -109.5 1t-100.5 3t-42 2t-40 -1t-86 -3t-75 -2q-33 0 -33 16 q0 12 17 13q25 0 61 8q57 12 64 112q6 86 6 205v176q0 111 -47 215q-10 25 -158.5 268.5t-202.5 321.5q-72 106 -139 152q-48 32 -86 32h-2q-20 0 -20 14.5z" />
<glyph unicode="Z" horiz-adv-x="1417" d="M150 16q0 14 28 58q668 1008 899 1384h-444q-217 0 -295 -41q-51 -27 -81 -74t-36 -88q-4 -37 -22 -36q-13 0 -13 27q0 29 41 272q6 39 21 38q6 0 29.5 -6t56.5 -8q145 -6 356 -6h572q41 0 41 -16q0 -12 -9 -25q-339 -539 -917 -1413h557q150 0 218.5 24.5t104.5 75.5 q31 45 41 111q6 33 19 33q16 0 16 -47q0 -66 -41 -236q-10 -37 -18 -45t-43 -8q-170 0 -516 5t-529 5q-37 0 -36 16z" />
<glyph unicode="[" horiz-adv-x="794" d="M256 -164v1737q0 16 6 21t29 5h321q35 0 35 -14q0 -16 -45 -16q-143 -10 -213 -31q-14 -59 -14 -190v-1280q0 -143 14 -203q55 -23 215 -33q41 -4 41 -16.5t-33 -12.5h-323q-23 0 -28 5.5t-5 27.5z" />
<glyph unicode="\" horiz-adv-x="980" d="M100 1546q45 31 62 31q14 0 26 -29l695 -1540q10 -23 -2 -35q-4 -4 -32 -18t-32 -14q-10 0 -18 18l-697 1552q-14 27 -2 35z" />
<glyph unicode="]" horiz-adv-x="794" d="M143 -182q0 16 45 16q143 10 213 31q15 59 15 190v1280q0 143 -15 203q-55 23 -215 33q-41 4 -41 16t33 12h324q23 0 28 -5t5 -27v-1737q0 -16 -6.5 -21.5t-28.5 -5.5h-322q-35 0 -35 15z" />
<glyph unicode="^" horiz-adv-x="1185" d="M135 768l402 768h112l402 -768h-127l-334 655l-330 -655h-125z" />
<glyph unicode="_" d="M0 -154h1024v-102h-1024v102z" />
<glyph unicode="`" d="M219 1702q0 10 21 16q55 25 94 31q16 2 23.5 -1t25.5 -22q8 -8 56 -59t95.5 -97t86.5 -79q16 -15 16 -25q0 -4 -10 -4q-25 0 -160 76t-219 133q-31 25 -29 31z" />
<glyph unicode="a" horiz-adv-x="1261" d="M-53 8.5q0 14.5 24 14.5q29 0 41 2q59 6 93 45t65 116l410 1080q16 45 24 57t19 12q14 0 41 -65q4 -10 178 -448.5t237 -590.5q70 -168 156 -198q27 -10 70 -10q25 0 24.5 -14.5t-31.5 -14.5q-174 0 -311 4q-51 2 -51 14q0 10 14 15q23 10 8 45l-161 411q-7 11 -17 11 h-372q-14 0 -21 -17l-90 -256q-35 -98 -35 -145q0 -53 68 -53h14q25 0 25 -14.5t-31 -14.5q-25 0 -89.5 3t-72.5 3q-2 0 -73.5 -3t-122.5 -3q-33 0 -33 14.5zM424 578q-6 -13 4 -13h328q10 0 6 13l-162 452q-10 31 -22 0z" />
<glyph unicode="b" horiz-adv-x="1245" d="M157.5 1296.5q0.5 14.5 30.5 14.5q25 0 54.5 -1t56.5 -2t50.5 -1h37.5l14 -2q20 0 87 3t110 3q109 0 186.5 -27t114.5 -70t52.5 -82.5t15.5 -78.5q0 -180 -172 -316q121 -37 217 -133t96 -233q0 -156 -122 -268.5t-343 -112.5q-14 0 -56 2t-71 2q-86 6 -115 6 q-31 0 -90 -3t-94 -3q-29 0 -29 12q0 16 29 17q20 0 37 4q41 8 53 98q10 76 10 375v307q0 319 -4 375q-4 45 -20.5 66.5t-59.5 29.5q-33 4 -49 4q-27 0 -26.5 14.5zM477 594q0 -354 2 -371q4 -57 6 -74.5t15.5 -37t44.5 -31.5q53 -27 151 -27q88 0 165 53.5t77 178.5 q0 96 -41 194.5t-135 161.5q-61 37 -139 45q-37 4 -71 4t-65 -4q-10 0 -10 -12v-80zM477 770q0 -14 10 -20q37 -6 103 -7q80 0 112.5 9.5t61.5 40.5q53 63 53 163q0 121 -58.5 210t-178.5 89q-47 0 -78 -10q-25 -6 -25 -18v-457z" />
<glyph unicode="c" horiz-adv-x="1452" d="M113 680q0 106 49 237.5t157 235.5q188 182 551 182q113 0 271 -22q131 -20 180 -23q18 0 18 -20q0 -6 -4 -35t-6 -66q0 -27 -1 -101.5t-3 -86.5q-2 -39 -16 -39q-16 0 -17 39q0 47 -21.5 98t-58.5 80q-49 43 -149 74t-213 31q-262 0 -393 -119q-94 -86 -129 -192.5 t-35 -256.5q0 -258 185.5 -448.5t451.5 -190.5q227 0 313 84q51 53 68 148q6 31 22 30q10 0 10 -28q0 -14 -15 -105.5t-25 -122.5q-8 -25 -16.5 -32.5t-31.5 -18.5q-96 -41 -323 -41q-383 0 -600 187q-219 190 -219 522z" />
<glyph unicode="d" horiz-adv-x="1658" d="M154 1294q0 16 30 17q37 0 90.5 -2t90.5 -2l38 -2q4 0 39 1t90.5 3t106.5 2h57.5h68.5t69.5 -2t79 -5.5t76.5 -10.5t83 -17t78 -25.5t80 -35t71.5 -46t69.5 -59.5q174 -174 174 -440q0 -291 -194 -490q-200 -200 -544 -200h-3q-127 0 -256 10q-35 2 -71 4t-55.5 4 t-21.5 2q-31 0 -69 -2q-20 0 -62.5 -2t-56.5 -2q-29 0 -29 14.5t22.5 14.5t47.5 6q41 8 53 94q10 64 10 381v303q0 322 -4 375q-4 43 -20.5 65.5t-59.5 30.5q-25 4 -59 4q-20 0 -20 12zM485 633q0 -82 1 -168t1 -142.5v-64.5q4 -115 21 -137q51 -78 301 -78q266 0 426 160 q133 133 133 407q0 270 -176 441q-119 119 -256 156.5t-322 37.5q-82 0 -104 -14q-23 -10 -23 -35q-2 -59 -2 -356v-207z" />
<glyph unicode="e" horiz-adv-x="1110" d="M160 1294q0 16 30 17q18 0 84 -2t127 -4q375 0 416 2q61 2 80 10q18 6 23 6q8 0 8 -14q0 -4 -7.5 -34t-9.5 -58q-6 -88 -6 -107q0 -31 -14 -31t-14 23q-2 39 -15 65q-10 33 -34.5 45.5t-98.5 16.5q-53 4 -233 4q-10 0 -11 -16v-465q0 -20 13 -21q211 0 276 6q74 4 94 31 q10 16 23 16q8 0 8 -12q0 -4 -2 -18.5t-6 -40t-6 -49.5q-4 -35 -6 -79t-2 -46q-2 -23 -14.5 -23t-12.5 27q0 25 -6 49q-16 55 -99 61q-94 8 -245 9q-14 0 -15 -15v-149v-88v-122v-69q4 -61 15.5 -91t42.5 -42q39 -18 149 -18q113 0 156 12t60.5 42t31.5 93q6 29 18.5 29 t12.5 -31q0 -51 -23 -178q-6 -31 -22.5 -38t-67.5 -7q-76 0 -155.5 2t-108.5 2q-215 6 -242 6q-23 0 -66.5 -3t-68.5 -3q-29 0 -29 14.5t18.5 14.5t41.5 6q31 6 47 39.5t18 121.5q4 140 4 310v307q0 317 -4 373q-4 45 -19 67.5t-58 30.5q-25 4 -50 4q-27 0 -26 12z" />
<glyph unicode="f" horiz-adv-x="1075" d="M158 1296q0 14 30 15q37 0 107 -3t102 -3q403 0 447 2q63 4 92 14q14 6 20 6q12 0 7 -18q-8 -33 -12.5 -64t-7.5 -82t-3 -61q0 -31 -14 -31q-12 0 -17 25q0 70 -32 102q-27 25 -115 29q-176 4 -258 4q-18 0 -19 -21v-462q0 -18 15 -19q182 0 250 2q66 2 92 8t45 31 q12 16 20 16t8 -18q0 -4 -2 -17.5t-6 -38t-6 -50.5q-8 -74 -8 -119q0 -31 -14 -31q-10 0 -15 31q-6 98 -106 110q-41 6 -258 6q-14 0 -15 -18v-143q0 -178 4 -342q2 -74 15.5 -96.5t58.5 -28.5q27 -4 64 -8q25 -2 24 -15q0 -14 -26 -14q-47 0 -101.5 1t-89.5 3l-37 2h-14 q-117 -6 -166 -6q-29 0 -29 14q0 12 21 15q6 0 21.5 1t21.5 3q33 4 43 27.5t14 84.5q8 101 8 361v307q0 317 -4 373q-4 47 -18 69.5t-59 26.5q-8 2 -24.5 2t-27.5 2q-27 4 -26 16z" />
<glyph unicode="g" horiz-adv-x="1558" d="M113 653q0 199 87 347.5t222 230.5q178 104 457 104q121 0 292 -28q78 -14 156 -19q16 0 16 -16q0 -6 -4 -36t-7 -90.5t-3 -139.5q0 -37 -16 -37q-10 0 -15 24q0 70 -38.5 127.5t-151.5 100.5t-272 43q-72 0 -119 -4.5t-121 -30t-137 -74.5q-80 -61 -126 -175t-46 -263 q0 -160 62.5 -288t123.5 -187q197 -190 465 -191q127 0 195 35q35 20 34 61v295q0 102 -14 133t-68 39q-25 4 -49 4t-24 14.5t30 14.5q37 0 87.5 -1t85 -2t36.5 -1t37 1t79 2t69 1q29 0 28.5 -14.5t-24.5 -14.5q-18 0 -35 -2q-35 -4 -48.5 -28.5t-17.5 -73.5q-4 -59 -4 -184 v-185q0 -59 -4 -72.5t-20 -23.5q-154 -78 -377 -78q-379 0 -600 185q-94 78 -157.5 207t-63.5 290z" />
<glyph unicode="h" horiz-adv-x="1732" d="M158 1296q0 14 30 15q51 0 129 -3t84 -3q2 0 37 1t79 3t69 2q31 0 30 -15q0 -12 -20 -12q-18 0 -41 -4q-37 -6 -50 -29.5t-18 -70.5q-2 -55 -2 -371v-37q1 -10 13 -10h741q12 0 12 10v37q0 317 -4 373q-4 47 -18.5 67.5t-61.5 28.5q-29 4 -51 4q-25 0 -24.5 14.5 t28.5 14.5q39 0 90.5 -2t87 -3t37.5 -1t36 1t78 3t71 2q33 0 32.5 -14.5t-22.5 -14.5q-16 0 -41 -4q-39 -6 -51.5 -27.5t-16.5 -70.5q-2 -55 -2 -373v-307q0 -301 8 -375q10 -90 70 -96q39 -6 72 -6q27 0 26.5 -14.5t-30.5 -14.5q-45 0 -100.5 1t-92.5 3t-39 2t-36.5 -1 t-77.5 -3t-68 -2q-31 0 -31 16q0 12 23 13q31 0 47 4q39 6 51 98q10 74 10 369v182q0 12 -12 12h-743q-10 0 -11 -12v-182q0 -299 11 -373q12 -86 69 -92q41 -6 74 -6q25 0 25 -14.5t-27 -14.5q-47 0 -102.5 1t-93.5 3t-40 2t-36.5 -1t-79.5 -3t-68 -2q-33 0 -33 14.5 t23 14.5q25 0 49 6q39 8 51 92q10 61 10 379v303q0 324 -4 379q-6 90 -77 98q-37 4 -56 4q-23 0 -22 12z" />
<glyph unicode="i" horiz-adv-x="802" d="M184 8.5q0 14.5 27 14.5q25 0 49 6q37 8 47 98q10 74 10 373v307q0 319 -4 375q-6 84 -59 94q-12 2 -27.5 4t-19.5 2q-23 4 -23 14q0 14 31 15q29 0 74 -2t80 -2l32 -2q2 0 37 1t79 3t69 2q31 0 30 -15q0 -12 -22 -14q-6 -2 -18.5 -3t-18.5 -1q-29 -4 -44 -17.5 t-19.5 -30t-6.5 -50.5q-2 -29 -2 -373v-307q0 -315 9 -375q6 -47 18 -66.5t51 -27.5q35 -8 78 -8q23 -2 23 -15q0 -14 -29 -14q-47 0 -102.5 1t-92.5 3t-39 2t-35.5 -1t-78.5 -3t-70 -2q-33 0 -33 14.5z" />
<glyph unicode="j" horiz-adv-x="761" d="M55 -436q0 8 27 26q29 14 57 43q70 68 103.5 125.5t56.5 189.5t23 359v500q0 317 -5 373q-4 43 -21 65.5t-58 32.5q-25 4 -62 4q-14 0 -14 12q0 16 31 17q39 0 89 -2t87 -2l34 -2q2 0 37 1t80 3t70 2q29 0 28 -17q0 -12 -12 -12q-2 0 -47 -4q-61 -14 -67 -100 q-5 -56 -5 -371v-391q0 -184 -2 -252t-13 -146.5t-40 -142.5q-53 -125 -278 -276q-10 -4 -36 -21.5t-36 -21.5q-2 -2 -12 -2q-14 0 -15 10z" />
<glyph unicode="k" horiz-adv-x="1409" d="M184 8.5q0 14.5 27 14.5q25 0 49 6q37 8 47 98q10 74 10 373v307q0 319 -4 375q-6 84 -59 94q-12 2 -27.5 4t-19.5 2q-23 4 -23 14q0 14 31 15q29 0 74 -2t80 -2l32 -2q2 0 37 1t79 3t69 2q31 0 30 -15q0 -12 -22 -14q-6 -2 -18.5 -3t-18.5 -1q-29 -4 -44 -17.5 t-19.5 -30t-6.5 -50.5q-2 -29 -2 -373v-96q246 219 410 397q74 82 90 103.5t16 37.5q0 23 -32 33q-23 6 -23 16q0 12 21 13q4 0 25.5 -2t53 -3t60.5 -1q35 0 113.5 3t87.5 3q33 0 32 -13q0 -14 -22 -16q-59 -4 -100 -20q-35 -12 -67 -36t-116 -99.5t-233.5 -217 t-184.5 -174.5q319 -330 529 -520q174 -160 295 -186q10 -2 47 -6q29 -4 29 -16.5t-33 -12.5h-133q-115 0 -166 15.5t-117 60.5q-68 49 -263.5 247.5t-318.5 344.5v-162q0 -315 9 -375q6 -47 18 -66.5t51 -27.5q35 -8 78 -8q23 -2 23 -15q0 -14 -29 -14q-47 0 -102.5 1 t-92.5 3t-39 2t-35.5 -1t-78.5 -3t-70 -2q-33 0 -33 14.5z" />
<glyph unicode="l" horiz-adv-x="1073" d="M157.5 1296.5q0.5 14.5 30.5 14.5q25 0 54.5 -1t56.5 -2t50.5 -1h37.5l14 -2q10 0 94.5 3t116.5 3q27 0 27 -14.5t-23 -14.5q-14 0 -55 -4q-41 -6 -55 -28.5t-19 -71.5q-2 -29 -2 -371v-311q0 -346 43 -387q47 -41 215 -41q59 0 89 2t69 15t60 40q31 47 38 102 q4 25 16.5 25t12.5 -27q0 -90 -24 -184q-6 -20 -8.5 -25.5t-13.5 -14.5t-30.5 -10t-56.5 -1q-61 0 -224 5t-274 5q-33 0 -88 -3t-92 -3q-33 0 -33 16q0 12 23 13q33 0 49 4q43 8 53 96q8 51 8 377v307q0 315 -4 371q-2 33 -7 51t-23.5 32.5t-51.5 18.5q-12 2 -51 2 q-23 0 -22.5 14.5z" />
<glyph unicode="m" horiz-adv-x="1892" d="M84 10q0 12 27 13q16 0 39 2q61 6 77 135l138 1124q6 51 22 51q12 0 31 -32l549 -1063l522 1060q16 35 31 35q16 0 20 -51l129 -1065q20 -164 98 -182q41 -10 105 -14q27 0 26 -13q0 -16 -30 -16q-127 0 -324 12q-61 6 -61 19q0 10 18.5 18t11.5 57l-90 877l-434 -881 q-45 -90 -53 -96q-4 -2 -10 -2q-12 0 -62 88q-14 25 -64 123t-94 186t-51 97q-219 438 -229 464l-76 -788q-2 -29 -2 -78q0 -51 51 -61q4 0 58 -6q20 -2 20 -13q0 -16 -35 -16q-39 0 -103.5 3t-66.5 3q-6 0 -67.5 -3t-89.5 -3q-31 0 -31 16z" />
<glyph unicode="n" horiz-adv-x="1718" d="M114.5 8.5q0.5 14.5 28.5 14.5q37 0 64 8q33 10 44 57t11 162v1001q0 84 23 84q8 0 63 -55q18 -20 590 -604q82 -80 237.5 -235.5l180.5 -180.5l-23 852q-2 84 -15 118t-54 44q-47 8 -80 8q-25 0 -25 16q0 12 37 13q53 0 123 -4l70 -2q2 0 59 3t104 3q29 0 29 -12.5 t-18 -16.5q-4 0 -21.5 -2t-30.5 -4q-37 -8 -49 -37t-12 -117l-4 -1028q0 -39 -1 -60.5t-3 -33.5t-5 -15t-10 -3q-20 0 -135 108q-4 2 -78.5 75t-200.5 197.5t-192 188.5q-213 221 -469 487l27 -800q4 -111 17.5 -155t49.5 -52q33 -8 84 -8q25 0 25 -14.5t-33 -14.5 q-49 0 -95 1t-72.5 3t-31 2t-31 -1t-67.5 -3t-80 -2q-31 0 -30.5 14.5z" />
<glyph unicode="o" horiz-adv-x="1658" d="M113 655q0 86 25.5 176.5t81.5 181.5t137 161.5t204 115.5t268 45q311 0 513 -176t202 -477q0 -299 -201.5 -505t-523.5 -206q-180 0 -320.5 62.5t-222 164t-122.5 218t-41 239.5zM303 709q0 -301 154.5 -484.5t412.5 -183.5q51 0 104.5 10t124 48t124 98.5t91.5 173 t38 260.5q0 297 -157 469t-378 172q-227 0 -370.5 -143.5t-143.5 -419.5z" />
<glyph unicode="p" horiz-adv-x="1167" d="M162 1294q0 16 28 17q39 0 89.5 -2t86 -3t37.5 -1q16 0 100.5 3t131.5 3q221 0 336 -99q90 -80 90 -229q0 -170 -126 -281.5t-319 -111.5q-29 0 -38 2q-18 0 -18.5 12t9 14.5t41.5 2.5q125 0 211 79.5t86 210.5q0 156 -88 248q-90 96 -254 96q-49 0 -69 -10 q-12 -4 -13 -33v-708q0 -305 9 -379q10 -90 71 -96q49 -8 82 -9q12 0 12 -10q0 -16 -28 -16q-47 0 -102.5 1t-91.5 3t-38 2h-12q-14 -2 -35.5 -3t-44 -1t-47.5 -1t-41 -1q-29 0 -29 16q0 10 15 10q20 0 53 9q43 6 53 96q10 74 10 375v307q0 319 -4 375q-6 84 -77 98 q-29 4 -64 4q-12 0 -12 10z" />
<glyph unicode="q" horiz-adv-x="1667" d="M113 657q0 109 42 222.5t124.5 218t226 171t323.5 66.5q313 0 514 -177t201 -476q0 -111 -33.5 -213t-88 -174t-102.5 -119t-95 -76l381 -190q397 -199 747 -199q174 0 346 68q16 6 27 6q12 0 12 -8q0 -10 -22 -21q-246 -123 -574 -123q-311 0 -737 234l-301 162 q-106 -57 -279 -58q-182 0 -323.5 61.5t-223 164t-123.5 220.5t-42 240zM303 707q0 -293 160.5 -479.5t406.5 -186.5q53 0 107.5 11t125.5 50t123 99.5t89 173t37 258.5q0 293 -156 466t-381 173t-368.5 -143.5t-143.5 -421.5z" />
<glyph unicode="r" horiz-adv-x="1366" d="M162 1296q0 14 24.5 14t55 -0.5t58.5 -1.5t50.5 -1h38.5l14 -2q4 0 93.5 3t121.5 3q225 0 336 -78q123 -90 123 -250q0 -211 -217 -387q272 -336 377 -444q106 -109 217 -125q29 -4 64 -4q23 0 22.5 -14.5t-37.5 -14.5h-143q-127 0 -186 24q-18 8 -35 18.5t-35.5 28 t-31.5 31t-35.5 40t-35 42t-40 52t-41.5 55.5q-45 57 -116 147t-81 105q-12 12 -25 12l-211 2q-10 0 -10 -10v-29q0 -313 10 -387q4 -31 8.5 -47.5t22 -31.5t49.5 -19q41 -4 60 -4q27 0 26 -13q0 -16 -28 -16q-47 0 -102.5 1t-92.5 3l-35 2q-14 0 -80.5 -3t-97.5 -3 q-29 0 -29 16q0 12 25 13q29 0 45 4q45 8 53 77q8 60 8 396v307q0 319 -4 375q-4 45 -20 67.5t-62 30.5q-25 4 -49 4q-23 0 -22 12zM477 662q0 -18 10 -25q49 -27 183 -27q90 0 137 31q102 66 102 260q0 166 -80.5 256t-220.5 90q-78 0 -119 -10q-12 -4 -12 -18v-557z" />
<glyph unicode="s" horiz-adv-x="1048" d="M188 86q0 78 9 193q4 29 16 28q14 0 14 -20q0 -37 5 -62q18 -94 93.5 -139t174.5 -45q119 0 185.5 66.5t66.5 152.5t-44 151.5t-159 157.5l-82 64q-139 111 -188.5 199t-49.5 188q0 141 103.5 228t275.5 87q94 0 166 -16q49 -10 70 -10q18 0 18 -13l-2 -26q-2 -25 -4 -72 t-2 -100q0 -43 -14 -43q-10 0 -15 22q-6 63 -24 97q-53 96 -230 96q-94 0 -154.5 -53.5t-60.5 -143.5q0 -72 45 -129t174 -156l48 -36q154 -119 211 -211t57 -207q0 -72 -36 -153t-120 -138q-112 -72 -276 -72q-143 0 -244 45q-18 8 -22.5 19.5t-4.5 50.5z" />
<glyph unicode="t" horiz-adv-x="1253" d="M43 1103q0 17 41 202q8 33 18 32q6 0 38 -10t53 -12q90 -10 131 -10h671q100 0 148 10q35 8 39 8q12 0 12 -18q0 -35 -2 -121t-2 -88q0 -25 -14.5 -25t-14.5 25q0 8 -2 28q-6 63 -48 83t-193 22q-41 0 -107.5 1t-93.5 1v-731q0 -285 10 -379q4 -31 7 -44.5t16.5 -26.5 t37.5 -19q33 -8 80 -8q25 0 25 -13q0 -16 -27 -16q-47 0 -102 1t-92 3l-39 2q-2 0 -37 -1t-79 -3t-66 -2q-31 0 -31 14.5t22 14.5q29 0 45 2q29 4 38.5 24.5t15.5 75.5q8 74 8 375v731q-176 0 -258 -2q-92 -2 -128 -16.5t-61 -49.5q-14 -23 -30 -63q-6 -16 -19 -17 q-10 0 -10 20z" />
<glyph unicode="u" horiz-adv-x="1488" d="M51 1294q0 16 31 17q39 0 89 -2t85 -3t39 -1t82 3t110 3q29 0 29 -14.5t-24 -14.5q-12 0 -46 -4q-35 -4 -46 -26.5t-15 -71.5q-2 -56 -2 -373v-244q0 -178 30.5 -274t94.5 -152q106 -94 270 -94q178 0 281 119q100 115 100 428v217q0 315 -4 371q-2 35 -7 51t-21.5 30.5 t-47.5 18.5q-29 4 -57 4q-20 0 -21 12q0 16 29 17q39 0 86 -2t79 -3t34 -1t29.5 1t64.5 3t61 2q29 0 29 -14.5t-20 -14.5q-16 0 -37 -2q-39 -4 -52.5 -27.5t-17.5 -74.5q-2 -55 -2 -371v-182q0 -387 -166 -531q-145 -123 -375 -123q-250 0 -383 123q-152 141 -151 459v254 q0 317 -6 373q-2 47 -16.5 69.5t-59.5 28.5q-25 4 -53 4q-23 0 -23 12z" />
<glyph unicode="v" horiz-adv-x="1339" d="M-51.5 1296.5q0.5 14.5 33.5 14.5q55 0 143 -3t90 -3t73.5 3t117.5 3q33 0 32 -13q0 -16 -30 -16q-37 0 -64 -10q-18 -10 -18 -35t32 -102l361 -906q76 170 211 511t164 434q16 43 16 67q0 27 -18 33q-23 8 -66 8q-27 0 -27 12q0 16 31 17q43 0 117 -3t78 -3q2 0 26.5 1 t58 3t56.5 2q31 0 31 -13q0 -16 -23 -16q-51 0 -88 -20q-43 -31 -96 -160q-20 -49 -205 -471q-180 -424 -227 -516q-10 -20 -20.5 -43t-16.5 -35t-12.5 -25.5t-9.5 -19.5t-7 -11.5t-8 -7.5t-8 -2q-18 0 -29.5 20.5t-40.5 94.5l-442 1057q-33 76 -54.5 100.5t-74.5 32.5 q-43 6 -62 6q-25 0 -24.5 14.5z" />
<glyph unicode="w" horiz-adv-x="1978" d="M-27 1298q0 12 31 13q47 0 97.5 -2t84 -3t39.5 -1q4 0 35 1t77 3t89 2q29 0 29 -15q0 -16 -29 -16q-43 0 -66 -8q-20 -6 -20 -43q0 -10 35 -158q18 -76 112.5 -402.5t120.5 -414.5l379 963q33 88 49.5 88t48.5 -91l363 -962q18 59 132 417.5t144 473.5q16 61 17 86 q0 27 -18.5 40t-80.5 13q-27 0 -26 16q0 12 31 13q33 0 72.5 -2t67.5 -3t32 -1l67 2q68 4 101 4q25 0 24 -13q0 -16 -26 -16q-23 0 -54 -6q-12 -2 -23.5 -9t-20.5 -19.5t-16 -24t-15.5 -32t-12.5 -32.5t-13 -37.5t-13 -38.5q-43 -117 -169 -488.5t-155 -451.5 q-63 -172 -84 -172q-23 0 -59 105l-353 934q-162 -395 -374 -934q-41 -104 -64 -105q-14 0 -26.5 28t-45.5 128l-315 1010q-23 72 -41 98.5t-59 38.5q-31 8 -74 8q-25 0 -25 16z" />
<glyph unicode="x" horiz-adv-x="1224" d="M-31 8.5q0 14.5 23 14.5q20 0 59 8q70 18 150 139l327 494l-290 471q-31 47 -45.5 67.5t-37 40t-51.5 27.5q-37 12 -71 12q-27 0 -27 14.5t31 14.5q29 0 124 -3t97 -3t70.5 3t105.5 3q33 0 33 -13q0 -16 -25 -16q-31 0 -49 -6q-20 -6 -20 -25q0 -20 24 -63 q109 -199 238 -404q49 70 148.5 221.5t109.5 178.5q22 39 22 59q0 31 -36 35q-29 4 -45 4q-25 0 -25 16q0 12 29 13q33 0 71.5 -2t66.5 -3t32 -1q2 0 62 3t99 3q25 0 25 -13q0 -16 -23 -16q-29 0 -65 -10q-10 -2 -19.5 -8.5t-20.5 -15.5t-18.5 -16t-18.5 -22.5t-17 -22.5 t-20.5 -27.5t-18.5 -26.5l-289 -416q10 -14 101.5 -164t177.5 -286t102 -156q18 -25 26.5 -34t30 -24.5t45.5 -21.5q35 -8 56 -8q25 0 24.5 -14.5t-26.5 -14.5q-262 0 -330 4q-23 2 -27 5t-4 13q0 6 21 13q25 6 -2 49q-102 182 -301 508l-277 -451q-31 -53 -31 -76 q0 -29 37 -34q12 -2 25 -2q25 0 24.5 -14.5t-22.5 -14.5q-25 0 -100.5 3t-79.5 3t-31 -1t-62.5 -3t-64.5 -2q-27 0 -27 14.5z" />
<glyph unicode="y" horiz-adv-x="1185" d="M-66 1298q0 12 25 13q14 0 61.5 -2t90.5 -2l41 -2q4 0 27.5 1t59 3t68.5 2q27 0 27 -13q0 -10 -23 -16q-33 -6 -32 -33q0 -18 26 -67q12 -23 86 -143.5t154 -250t88 -143.5q14 31 79.5 142.5t134 225t77.5 130.5q47 82 47 108q0 6 -2 11.5t-4 8.5t-9.5 5t-9.5 2t-11 2 t-11 2q-23 2 -23 16q0 12 25 13q27 0 68.5 -3t56.5 -3q12 0 86.5 3t93.5 3q25 0 24 -13q0 -16 -24 -16q-70 -4 -103 -27q-29 -18 -75 -84q-84 -115 -204 -312t-144 -257q-20 -53 -21 -162v-149q0 -90 4 -164q2 -31 6 -45t19.5 -29.5t46.5 -21.5q35 -8 76 -8q23 0 22 -13 q0 -16 -24 -16q-29 0 -63 1t-62.5 1t-53 1t-40 2t-17.5 1h-35q-35 -2 -80 -4t-69 -2q-29 0 -29 16q0 12 21 13q27 0 51 6q45 8 53 98q6 74 6 164v149q0 111 -45 189q-14 29 -143 234.5t-170 262.5q-70 96 -105 125q-39 29 -96 31q-23 0 -23 16z" />
<glyph unicode="z" horiz-adv-x="1253" d="M135 14q0 12 25 49q602 887 778 1170h-375q-209 0 -272.5 -22.5t-89.5 -153.5q-8 -33 -21 -33q-10 0 -10 25q0 12 35 239q6 35 20 35q6 0 28.5 -5t53.5 -7q195 -6 309 -6h500q41 0 41 -12.5t-14 -32.5q-689 -1037 -789 -1184h475q139 0 202 17.5t87 66.5q18 33 31 96 q6 29 16 29q14 0 15 -31q0 -84 -37 -213q-10 -35 -19.5 -42t-42.5 -7q-147 0 -448 4t-465 4q-33 0 -33 14z" />
<glyph unicode="{" horiz-adv-x="827" d="M152 741q0 10 38 19q147 33 148 186q0 41 -7 129t-7 127q0 111 36.5 195t93 127t108.5 63.5t97 20.5q23 0 23 -11q0 -8 -18 -14q-201 -61 -201 -274q0 -55 3 -134t3 -108q0 -113 -59.5 -202t-161.5 -122q221 -59 221 -284q0 -25 -3 -119t-3 -168q0 -98 17.5 -166.5 t52 -105.5t62.5 -52.5t69 -29.5q20 -6 20 -16.5t-20 -10.5q-49 0 -117 22.5t-115 69.5q-109 109 -108 340q0 39 7 151.5t7 176.5q0 84 -41 122t-115 50q-31 6 -30 18z" />
<glyph unicode="|" horiz-adv-x="1013" d="M465 -512v2048h86v-2048h-86z" />
<glyph unicode="}" horiz-adv-x="827" d="M143 1595q0 12 29 13q47 0 110.5 -23.5t110.5 -68.5q61 -61 86 -138.5t25 -195.5q0 -39 -7.5 -112t-7.5 -138q0 -145 154 -172q31 -6 31 -17q0 -12 -37 -20q-147 -29 -148 -186q0 -39 7.5 -167t7.5 -169q0 -111 -38 -196t-94.5 -128t-109.5 -64.5t-98 -21.5q-18 0 -19 10 q0 8 19 15q201 59 201 272q0 55 -4.5 174t-4.5 148q0 113 60 204.5t162 124.5q-221 66 -222 285q0 23 4.5 79t4.5 130q0 98 -17.5 165.5t-52.5 103.5t-60.5 50.5t-68.5 28.5q-23 10 -23 14z" />
<glyph unicode="~" horiz-adv-x="1353" d="M193 569q-6 143 55 220t172 77q63 0 114.5 -20.5t153.5 -79.5q152 -88 223 -88q68 0 95.5 41t29.5 145h101q8 -297 -226 -297q-63 0 -117.5 21.5t-150.5 79.5q-150 90 -219 90q-66 0 -96.5 -42.5t-32.5 -146.5h-102z" />
<glyph unicode="&#xa2;" horiz-adv-x="1169" d="M117 780q0 225 168 371q160 133 409 143l19 207q0 14 12 19l47 14q16 4 16 -10l-20 -228q141 0 281 -53q14 -8 14 -29q0 -106 -12 -192q-2 -31 -16.5 -31t-14.5 29q-10 88 -37 121q-61 72 -221 86l-84 -910q39 -6 86 -6q217 0 262 174q8 35 21 35q10 0 10 -22 q0 -41 -31 -187q-8 -33 -29 -37q-117 -41 -268 -41q-39 0 -59 3l-25 -273q0 -12 -20 -16l-39 -13q-8 -2 -12.5 3.5t-2.5 17.5l27 289q-211 33 -346 169t-135 367zM295 811q0 -176 82 -303t229 -174l82 897q-186 -2 -289.5 -117t-103.5 -303z" />
<glyph unicode="&#xa3;" horiz-adv-x="1169" d="M-23 20q0 27 41 35q74 16 125.5 56.5t80 107t44 132t27.5 165.5l27 215h-154q-14 0 -27.5 -2t-15.5 -2q-16 0 -6 18l24 43q6 16 29 17h162l20 143q25 176 71 301t142 207q131 115 310 115q92 0 178 -25q23 -6 55 -10q14 -2 14 -25q0 -172 -10 -233q-4 -25 -16 -25 q-14 0 -17 31q-8 86 -45 135q-59 80 -207 80q-129 0 -201.5 -106.5t-92.5 -272.5l-37 -315h223q25 0 46 3t34.5 5t15.5 2q18 0 10 -20l-22 -50q-8 -16 -33 -16h-287l-10 -86q-10 -76 -29.5 -155.5t-75 -191.5t-130.5 -177l4 -4l639 6q86 2 131 40t59 128q2 20 16.5 20 t14.5 -30q0 -74 -35 -248q-6 -27 -24.5 -34t-100.5 -7q-70 0 -226.5 5t-203.5 5h-477q-59 0 -60 20z" />
<glyph unicode="&#xa5;" horiz-adv-x="1169" d="M-27 1530q0 12 25 12q27 0 92.5 -3t93.5 -3q4 0 74 3t104 3q27 0 27 -12q0 -14 -24 -17q-55 -4 -56 -34q0 -12 39 -86q102 -203 275 -527q35 68 128 262.5t105 217.5q45 94 45 127q0 37 -80 40q-25 2 -24 17q0 12 28 12q27 0 86.5 -3t79.5 -3q27 0 87.5 3t76.5 3 q25 0 25 -12q0 -14 -27 -17q-70 -8 -101.5 -31.5t-78.5 -101.5q-80 -133 -295 -567h274h8.5t4.5 -3t0 -9l-11 -45q-2 -10 -18 -11h-272v-147h288q8 0 10.5 -2t0.5 -12l-9 -43q-2 -10 -24 -11h-266v-141q0 -160 6 -246q6 -102 84 -112q57 -8 84 -8q25 0 24 -13q0 -16 -31 -16 q-49 0 -110.5 1t-101 3t-42 2t-40 -1t-86 -3t-74.5 -2q-33 0 -33 16q0 12 23 13q25 0 53 6q59 12 65 114q6 82 7 246v141h-285q-18 0 -12 19l10 41q2 8 14 8h273v147h-285q-14 0 -16.5 4.5t4.5 22.5l10 33q2 8 12 8h260q-33 61 -137 260t-137 262q-47 90 -80 127t-82 45 q-29 4 -49 6q-18 2 -19 17z" />
<glyph unicode="&#xa8;" d="M205 1616q0 31 20.5 55.5t59.5 24.5q35 0 56 -21.5t21 -54.5q0 -37 -21 -60.5t-58 -23.5q-39 0 -58.5 24.5t-19.5 55.5zM659 1616q0 29 21.5 54.5t60.5 25.5q35 0 56.5 -21.5t21.5 -54.5q0 -37 -21.5 -60.5t-58.5 -23.5q-39 0 -59.5 24.5t-20.5 55.5z" />
<glyph unicode="&#xa9;" horiz-adv-x="1875" d="M123 766q0 330 229.5 567.5t562.5 237.5q350 0 569.5 -231.5t219.5 -573.5q0 -332 -233.5 -566.5t-555.5 -234.5q-346 0 -569 230.5t-223 570.5zM193 768q0 -303 209.5 -524t512.5 -221q328 0 523.5 214t195.5 531q0 315 -203.5 531.5t-515.5 216.5q-328 0 -525 -214.5 t-197 -533.5zM481 791q0 178 125 301q127 127 355 127q82 0 161 -15q92 -18 117 -18q8 0 8 -10q0 -2 -3 -29l-5 -45q-2 -37 -2 -109q-4 -23 -12 -22q-12 0 -13 22q-4 78 -41 113q-66 59 -221 59q-154 0 -243 -86q-90 -84 -91 -274q0 -160 96.5 -286t286.5 -126q123 0 177 51 q31 31 47 105q6 18 14 18t8 -16q0 -37 -22 -154q-6 -25 -29 -35q-58 -28 -199 -28q-240 0 -374 123q-139 127 -140 334z" />
<glyph unicode="&#xab;" horiz-adv-x="1204" d="M147 627q0 8 33 37q43 37 201 186t192 182q25 25 37 25q12 -6 3 -21.5t-19 -25.5q-43 -55 -168 -192.5t-154 -174.5q18 -25 303 -324l31 -30q0 -7 -8 -15l-53 -57q-10 -10 -19 -10q-10 0 -53 51q-37 45 -146.5 167t-144.5 156.5t-35 45.5zM586 627q0 8 32 37 q43 37 201 186t193 182q25 25 37 25q16 0 -17 -47q-43 -55 -168 -192.5t-153 -174.5q18 -25 303 -324l30 -30q0 -7 -8 -15l-53 -55q-12 -12 -18 -12q-10 0 -54 51q-37 45 -146.5 167t-144 156.5t-34.5 45.5z" />
<glyph unicode="&#xad;" horiz-adv-x="706" d="M74 618l26 107q4 16 41 16h443q51 0 51 -16t-68 -31q-344 -61 -405 -80q-16 -4 -36 -11t-30 -10t-14 -3q-12 0 -8 28z" />
<glyph unicode="&#xae;" horiz-adv-x="421" d="M31 1391q0 78 51 129t129 51t129 -51.5t51 -128.5q0 -76 -52 -127.5t-128 -51.5t-128 51.5t-52 127.5zM59 1393q0 -66 44 -111t110 -45t107.5 43t41.5 113q0 68 -43 110.5t-108.5 42.5t-108.5 -43t-43 -110zM117 1309q0 6 10 6q20 1 20 26v117q0 23 -22 25q-8 0 -8 6 q0 4 10 4q8 0 20.5 -1t14.5 -1q10 0 22.5 1t18.5 1q76 0 76 -53q0 -33 -35 -49l24 -35q20 -29 43 -41q8 -2 8 -6t-12 -4q-45 0 -69 34l-27 39h-29v-30q0 -20 3 -25.5t20 -7.5q10 0 10 -6q0 -4 -10 -4q-6 0 -20.5 1t-18.5 1q-2 0 -17.5 -1t-23.5 -1t-8 4zM182 1399 q8 -4 25 -4q12 0 22 6q12 8 13 29q0 47 -43 47q-13 0 -17 -4v-74z" />
<glyph unicode="&#xb4;" d="M403 1473q0 10 15 24q199 207 217 221q41 35 53 35q21 0 35 -12q45 -37 68 -72q16 -25 -7 -24q-2 0 -15 -3.5t-30.5 -8.5t-29.5 -11q-121 -55 -263 -141l-6 -2q-6 -4 -11 -7.5t-11 -5.5t-10.5 -1t-4.5 8z" />
<glyph unicode="&#xb8;" d="M362 -444q0 8 39 16q158 31 158 135q0 102 -162 127q-23 4 -22.5 14.5t24.5 26.5l150 127h74q-23 -20 -75 -66.5t-65 -56.5q215 -33 215 -158q0 -82 -91 -132t-218 -50q-27 0 -27 17z" />
<glyph unicode="&#xbb;" horiz-adv-x="1204" d="M156 211q-16 0 16 47q43 55 168 192.5t154 174.5q-18 25 -304 323l-30 31q0 6 8 14l53 56q12 12 19 12q10 0 53 -51q37 -45 146.5 -167t144 -157t34.5 -45q0 -8 -32 -37q-43 -37 -201 -186.5t-192 -181.5q-25 -25 -37 -25zM591 232.5q9 15.5 19 25.5q43 55 168 192.5 t154 174.5q-18 25 -303 323l-31 31q0 6 8 14l53 58q10 10 19 10q10 0 53 -51q37 -45 146.5 -167t144.5 -157t35 -45q0 -8 -33 -37q-43 -37 -200.5 -186.5t-192.5 -181.5q-25 -25 -37 -25q-12 6 -3 21.5z" />
<glyph unicode="&#x2c6;" d="M207 1487q2 4 10 10q133 100 277 221q26 19 34 19q6 0 35 -15q6 -4 65.5 -44t111 -75.5t65.5 -46.5q23 -16 22 -22q0 -4 -10 -10l-72 -45q-12 -8 -20 0q-96 84 -201 139q-14 8 -24 8q-8 0 -29 -10q-59 -33 -219 -127q-27 -16 -39 -16q-18 0 -6 14z" />
<glyph unicode="&#x2da;" d="M324 1579q0 68 63.5 116t161.5 48q72 0 111.5 -32t39.5 -83q0 -76 -69.5 -122t-159.5 -46q-68 0 -107.5 34t-39.5 85zM403 1602q0 -45 32 -73t73 -28q51 0 80.5 29t29.5 74q0 41 -27.5 68.5t-78.5 27.5q-43 0 -76 -24.5t-33 -73.5z" />
<glyph unicode="&#x2dc;" d="M183 1512.5q-1 3.5 0 10.5t7 15q92 141 185 141q59 0 178 -47q88 -35 125 -35q76 0 143 70q14 16 23 16q6 0 7 -8t-5 -18q-99 -158 -201 -158q-41 0 -151.5 44t-153.5 44q-72 0 -125 -59q-14 -18 -27 -19q-4 0 -5 3.5z" />
<glyph unicode="&#x400;" horiz-adv-x="1249" d="M186 1526q0 16 33 16q102 0 232 -6q422 0 469 2q76 4 94 12q16 8 22 9q8 0 8 -19q0 -4 -7 -33.5t-9 -62.5l-8 -123q-4 -35 -16 -35q-16 0 -17 27q0 41 -10 67q-20 63 -148 76q-53 6 -280 6q-12 0 -12 -20v-565q0 -20 12 -21q279 0 325 4q78 6 103 35q16 20 24 20 q10 0 11 -16q0 -4 -3 -18.5t-7.5 -41t-6.5 -55.5q-4 -37 -6 -87t-2 -52q-4 -31 -14 -31q-14 0 -14.5 33t-8.5 58q-14 57 -106 67t-293 10q-14 0 -14 -14v-180v-105.5v-157v-87.5q4 -68 17 -102t50 -48q45 -18 170 -18q123 0 184 18q47 14 70 48t35 104q6 31 18.5 30.5 t12.5 -30.5q0 -14 -10.5 -92t-16.5 -107q-10 -39 -28.5 -46t-82.5 -7q-59 0 -299 6q-246 6 -256 6q-20 0 -71 -4t-80 -2q-33 0 -33 16q0 8 23 13q39 4 47 6q37 8 54 47t19 145q5 160 5 367v360q0 377 -5 443q-4 55 -21 80.5t-67 35.5q-6 2 -16 3t-23.5 2t-19.5 1 q-27 4 -27 13zM299 1896.5q0 8.5 23 20.5q55 31 90 39q23 6 33 6t28 -23q29 -31 117 -106.5t155 -122.5q21 -14 21 -22.5t-12 -8.5q-25 0 -175.5 68t-244.5 121q-35 20 -35 28.5z" />
<glyph unicode="&#x401;" horiz-adv-x="1249" d="M186 1526q0 16 33 16q102 0 232 -6q422 0 469 2q76 4 94 12q16 8 22 9q8 0 8 -19q0 -4 -7 -33.5t-9 -62.5l-8 -123q-4 -35 -16 -35q-16 0 -17 27q0 41 -10 67q-20 63 -148 76q-53 6 -280 6q-12 0 -12 -20v-565q0 -20 12 -21q279 0 325 4q78 6 103 35q16 20 24 20 q10 0 11 -16q0 -4 -3 -18.5t-7.5 -41t-6.5 -55.5q-4 -37 -6 -87t-2 -52q-4 -31 -14 -31q-14 0 -14.5 33t-8.5 58q-14 57 -106 67t-293 10q-14 0 -14 -14v-180v-105.5v-157v-87.5q4 -68 17 -102t50 -48q45 -18 170 -18q123 0 184 18q47 14 70 48t35 104q6 31 18.5 30.5 t12.5 -30.5q0 -14 -10.5 -92t-16.5 -107q-10 -39 -28.5 -46t-82.5 -7q-59 0 -299 6q-246 6 -256 6q-20 0 -71 -4t-80 -2q-33 0 -33 16q0 8 23 13q39 4 47 6q37 8 54 47t19 145q5 160 5 367v360q0 377 -5 443q-4 55 -21 80.5t-67 35.5q-6 2 -16 3t-23.5 2t-19.5 1 q-27 4 -27 13zM365 1800q0 31 20.5 55.5t58.5 24.5q35 0 56.5 -21.5t21.5 -54.5q0 -37 -21.5 -60.5t-58.5 -23.5q-39 0 -58 24.5t-19 55.5zM819 1800q0 29 21.5 54.5t60.5 25.5q35 0 56.5 -21.5t21.5 -54.5q0 -37 -21.5 -60.5t-58.5 -23.5q-39 0 -59.5 24.5t-20.5 55.5z" />
<glyph unicode="&#x402;" horiz-adv-x="1677" d="M51 1319q0 33 45 213q12 39 21 39q4 0 30.5 -11.5t59.5 -13.5q98 -10 162 -10h790q129 0 184 10q12 2 25.5 4t21 4t11.5 2q10 0 10 -24q0 -35 -3 -127t-3 -98q0 -27 -14.5 -27t-16.5 35q0 4 -1 11t-1 11q-10 109 -252 113q-25 2 -366 2v-590q109 29 247 29 q252 0 392.5 -143.5t140.5 -360.5q0 -127 -45 -239.5t-111.5 -185.5t-127 -118t-109.5 -61q-39 -14 -39 8q0 8 24 23q92 55 160 179t68 308q0 244 -118 381t-325 137q-102 0 -157 -20v-211q0 -358 10 -445q6 -51 21.5 -78.5t58.5 -33.5q57 -8 92 -8q16 0 16 -13 q0 -16 -32 -16q-49 0 -109.5 1t-100.5 3t-42 2t-40 -1t-86 -3t-75 -2q-33 0 -33 16q0 12 17 13q25 0 61 8q45 8 59 112q11 87 11 445v864q-193 0 -256 -2q-96 -2 -142.5 -15.5t-70.5 -50.5q-10 -16 -31 -63q-8 -20 -21 -21q-10 0 -10 19z" />
<glyph unicode="&#x403;" horiz-adv-x="1150" d="M186 1526q0 16 33 16q41 0 118 -3t114 -3q457 0 503 2q86 4 101 12q12 8 18 9q12 0 12 -19q0 -4 -2 -14t-5 -24.5t-5 -24.5q-4 -25 -12 -150q0 -41 -19 -41q-12 0 -14 27q-6 74 -39 102q-43 37 -121 39l-313 6q-18 1 -18 -22v-850q0 -319 6 -414q8 -135 84 -143 q8 -2 84 -8q25 -2 24 -15q0 -14 -33 -14q-51 0 -110.5 1t-99 3t-41.5 2h-19q-123 -6 -182 -6q-33 0 -33 16q0 10 23 13q37 4 53 8q33 8 46 36.5t17 96.5q8 117 9 424v360q0 377 -5 443q-4 55 -21 80.5t-67 35.5q-6 2 -24.5 3t-26.5 1q-35 4 -35 15zM567.5 1694 q-0.5 8 16.5 24q176 164 252 213q45 33 59 33q19 0 35 -16q45 -41 65 -82q12 -27 -8 -27q-41 0 -84 -16q-109 -39 -291 -125q-29 -12 -32 -12q-12 0 -12.5 8z" />
<glyph unicode="&#x404;" horiz-adv-x="1634" d="M131 791q0 342 219 559q225 221 629 221q174 0 307 -27q170 -31 203 -31q14 0 14 -20q0 -4 -2 -20.5t-4 -43t-4 -53.5q-2 -39 -4 -108.5t-2 -81.5q-2 -41 -17 -41q-16 0 -18 41q-2 76 -18.5 116.5t-53.5 75.5q-59 47 -170.5 81t-248.5 34q-315 0 -478 -158 q-160 -154 -166 -458q0 -18 17 -19q639 0 758 4q94 4 116 41q12 20 23 21q8 0 8 -17q0 -8 -7 -46t-9 -62q-6 -55 -6 -154q0 -33 -12.5 -33t-16.5 25q-6 47 -13.5 69.5t-31 43t-68.5 22.5q-92 8 -743 8q-16 0 -17 -20q4 -121 51.5 -241t134.5 -224.5t232.5 -170t323.5 -65.5 q248 0 340 88q53 47 78 175q6 32 22 32q10 0 10 -24q0 -94 -39 -254q-12 -45 -55 -64q-119 -47 -364 -47q-424 0 -666 215q-252 223 -252 611z" />
<glyph unicode="&#x405;" horiz-adv-x="1167" d="M203 98q0 53 10 217q2 33 16.5 33t14.5 -22q0 -47 6 -76q23 -106 106.5 -157.5t196.5 -51.5q139 0 216 82t77 190q0 104 -50.5 180t-185.5 189l-92 76q-154 125 -210 227t-56 217q0 166 114.5 267.5t309.5 101.5q104 0 190 -21q49 -10 72 -10q20 0 20 -14l-2 -27 q-2 -27 -4 -78t-2 -112q0 -47 -14 -47q-12 0 -16 26q-6 63 -27 103q-59 109 -256 108q-109 0 -180.5 -64.5t-71.5 -172.5q0 -88 51 -159t199 -185l57 -46q174 -137 236.5 -243.5t62.5 -237.5q0 -82 -40 -177t-134 -163q-123 -86 -309 -86q-162 0 -275 55q-20 10 -25 22.5 t-5 55.5z" />
<glyph unicode="&#x406;" horiz-adv-x="901" d="M211 1526q0 16 33 16q31 0 80 -1t87 -3t40 -2t39.5 2t86 3t74.5 1q33 0 33 -16q0 -12 -16 -13q-14 0 -52 -6q-41 -8 -56 -34.5t-19 -81.5q-4 -66 -4 -443v-360q0 -358 10 -445q6 -51 21.5 -78.5t58.5 -33.5q57 -8 84 -8q25 0 24 -13q0 -16 -30 -16q-49 0 -111 1t-101.5 3 t-41.5 2t-40 -1t-86.5 -3t-74.5 -2q-33 0 -33 16q0 12 23 13q27 0 53 6q47 10 61 114q11 87 11 445v360q0 377 -5 443q-6 100 -69 114q-31 8 -64 8q-16 0 -16 13z" />
<glyph unicode="&#x407;" horiz-adv-x="901" d="M143 1777.5q0 30.5 20.5 55.5t59.5 25q35 0 56.5 -21.5t21.5 -54.5q0 -37 -21.5 -60.5t-58.5 -23.5q-39 0 -58.5 24.5t-19.5 55zM211 1526q0 16 33 16q31 0 80 -1t87 -3t40 -2t39.5 2t86 3t74.5 1q33 0 33 -16q0 -12 -16 -13q-14 0 -52 -6q-41 -8 -56 -34.5t-19 -81.5 q-4 -66 -4 -443v-360q0 -358 10 -445q6 -51 21.5 -78.5t58.5 -33.5q57 -8 84 -8q25 0 24 -13q0 -16 -30 -16q-49 0 -111 1t-101.5 3t-41.5 2t-40 -1t-86.5 -3t-74.5 -2q-33 0 -33 16q0 12 23 13q27 0 53 6q47 10 61 114q11 87 11 445v360q0 377 -5 443q-6 100 -69 114 q-31 8 -64 8q-16 0 -16 13zM598 1778q0 29 21.5 54.5t60.5 25.5q35 0 56.5 -21.5t21.5 -54.5q0 -37 -21.5 -60.5t-58.5 -23.5q-39 0 -59.5 24.5t-20.5 55.5z" />
<glyph unicode="&#x408;" horiz-adv-x="847" d="M68 -504q0 12 28 31q35 20 72 57q76 76 112.5 144.5t60.5 220t24 407.5v592q0 377 -5 443q-4 55 -21 80.5t-67 35.5q-25 6 -63 6q-23 0 -23 14.5t31 14.5q41 0 96.5 -1t95.5 -3t42 -2t39.5 2t86 3t74.5 1q33 0 33 -16q0 -12 -22 -13q-12 0 -50 -4q-39 -4 -53 -31.5 t-18 -86.5q-4 -66 -4 -443v-491q0 -281 -9.5 -392.5t-52.5 -211.5q-63 -150 -299 -314q-59 -41 -80 -51q-8 -4 -14 -4q-14 0 -14 12z" />
<glyph unicode="&#x409;" horiz-adv-x="2023" d="M-55 10q0 12 28 13q16 0 50 4q66 8 102.5 56t69.5 136l467 1276q27 76 47 76q16 0 39 -64q14 -37 245 -643q141 18 273 19q252 0 391 -78q111 -57 167 -155.5t56 -211.5q0 -178 -130 -312t-368 -134q-170 0 -292 8q-25 2 -25 14q0 10 20 17q39 10 27 39l-436 1179 q-8 16 -12 2q-52 -149 -349 -1032q-29 -80 -28 -137q0 -29 22.5 -44t50.5 -15h19q27 0 27 -13q0 -16 -37 -16q-29 0 -87.5 3t-66.5 3q-2 0 -88 -3t-143 -3q-39 0 -39 16zM1020 799q152 -399 225 -578q39 -96 74 -128t94 -32q123 0 203 81t80 247q0 223 -154 334 q-121 86 -366 86q-78 0 -156 -10z" />
<glyph unicode="&#x40a;" horiz-adv-x="2340" d="M186 1526q0 16 33 16q41 0 96.5 -1t94.5 -3t41 -2t39.5 2t86 3t74.5 1q33 0 33 -16q0 -12 -16 -13q-14 0 -52 -6q-41 -8 -56 -34.5t-19 -81.5q-4 -66 -4 -443v-43q0 -12 12 -12h756q12 0 12 12v43q0 377 -4 443q-6 100 -70 114q-31 8 -57 8q-23 0 -23 13q0 16 33 16 q31 0 78 -1t84 -3t39 -2t40 2t85 3t73 1q33 0 33 -16q0 -8 -18 -13q-37 -4 -49 -6q-41 -8 -56.5 -34.5t-19.5 -81.5q-4 -131 -4 -488q0 -10 8 -10h55q283 0 432 -80q221 -121 222 -379q0 -168 -133.5 -307t-374.5 -139q-43 0 -153.5 6t-137.5 6q-2 0 -39 -1t-84 -3t-74 -2 q-33 0 -33 16q0 12 25 13q35 0 55 4q43 8 58 116q10 86 10 445v219q0 12 -12 12h-756q-12 0 -12 -12v-219q0 -358 10 -445q6 -51 21.5 -78.5t58.5 -33.5q57 -8 92 -8q16 0 16 -13q0 -16 -33 -16q-49 0 -109.5 1t-100 3t-41.5 2t-40 -1t-86.5 -3t-74.5 -2q-33 0 -33 16 q0 12 16 13q25 0 62 8q45 8 59 112q10 86 11 445v360q0 377 -5 443q-4 55 -21 80.5t-67 35.5q-25 6 -69 6q-16 0 -17 13zM1481 678q0 -389 4 -485q2 -78 47 -101q72 -39 192 -39q131 0 212 85t81 251q0 225 -149 344q-115 92 -379 86q-8 0 -8 -10v-131z" />
<glyph unicode="&#x40b;" horiz-adv-x="1716" d="M51 1319q0 33 45 213q12 39 21 39q4 0 30.5 -11.5t59.5 -13.5q98 -10 162 -10h790q129 0 184 10q12 2 25.5 4t21 4t11.5 2q10 0 10 -24q0 -35 -3 -127t-3 -98q0 -27 -14.5 -27t-16.5 35q0 4 -1 11t-1 11q-10 109 -252 113q-25 2 -366 2v-604q158 47 321 47 q250 0 365 -147q84 -104 84 -289q4 -233 6 -316q10 -102 84 -114q39 -6 80 -6q27 0 26 -13q0 -16 -32 -16q-49 0 -109.5 1t-100.5 3t-42 2t-39 -1t-83 -3t-73 -2q-33 0 -33 16q0 14 25 15q12 0 53 4q50 3 60 116q6 49 6 318q0 178 -97.5 267t-269.5 89q-147 0 -231 -31v-200 q0 -358 10 -445q6 -51 21.5 -78.5t58.5 -33.5q57 -8 92 -8q16 0 16 -13q0 -16 -32 -16q-49 0 -109.5 1t-100.5 3t-42 2t-40 -1t-86 -3t-75 -2q-33 0 -33 16q0 12 17 13q25 0 61 8q45 8 59 112q10 86 11 443v866q-193 0 -256 -2q-96 -2 -140.5 -15.5t-68.5 -50.5 q-23 -35 -35 -63q-8 -20 -21 -21q-10 0 -10 19z" />
<glyph unicode="&#x40c;" horiz-adv-x="1583" d="M195 1526q0 16 32 16q31 0 82 -1t91 -3t42 -2t40 2t86 3t75 1q33 0 33 -14q0 -12 -23 -15l-45 -4q-39 -4 -55 -32.5t-21 -85.5q-4 -66 -4 -443v-131q29 27 114 116t197.5 206.5t155.5 160.5q86 88 108.5 120t22.5 53q0 29 -26 38q-18 8 -19 19q0 12 31 12q29 0 57.5 -3 t65.5 -3q35 0 120 3t97 3q35 0 35 -14q0 -12 -23 -15q-61 -6 -104 -24q-74 -29 -213 -164q-375 -360 -467 -465q94 -102 308 -321.5t290 -288.5q125 -117 194.5 -162t143.5 -59q27 -6 59 -6q29 0 29 -14.5t-31 -14.5h-151q-129 0 -187.5 19.5t-134.5 78.5q-88 70 -308 302.5 t-364 404.5v-211q0 -358 11 -445q6 -51 21 -78.5t58 -33.5q57 -8 82 -8t25 -14.5t-31 -14.5q-49 0 -109.5 1t-100.5 3t-42 2t-37.5 -1t-82 -3t-72.5 -2q-33 0 -33 14.5t23 14.5q27 0 53 6q47 10 61 114q10 86 11 445v360q0 377 -5 443q-6 100 -69 114q-31 8 -74 8 q-23 0 -22 13zM760 1687.5q0 8.5 16 24.5q176 164 252 213q45 33 59 33q18 0 35 -16q45 -41 66 -82q12 -27 -8 -27q-41 0 -84 -16q-109 -39 -291 -125q-29 -13 -33 -13q-12 0 -12 8.5z" />
<glyph unicode="&#x40d;" horiz-adv-x="1902" d="M117 1528q0 14 41 14q35 0 124 -3t101 -3q35 0 106.5 3t98.5 3q35 0 35 -12q0 -14 -27 -17q-41 -4 -53 -6q-45 -10 -59.5 -46t-16.5 -163l-4 -1062q143 174 527 648t456 562q102 125 133 125q12 0 17.5 -11.5t9.5 -54.5t4 -129q0 -748 6 -1130q2 -115 19.5 -161t64.5 -54 q23 -4 80 -8q31 -2 30 -15q0 -14 -30 -14q-43 0 -160 3t-127 3q-18 0 -80.5 -3t-103.5 -3q-31 0 -31 12q0 14 31 17q45 4 59 8q41 8 54.5 65.5t15.5 186.5q4 186 5 537t3 491q-156 -195 -574.5 -711t-474.5 -577q-53 -57 -75 -58q-16 0 -21.5 19.5t-5.5 78.5v1192 q0 111 -10.5 163t-26.5 67.5t-53 21.5q-14 2 -37 4t-29 2q-23 2 -22 15zM624.5 1883.5q0.5 8.5 22.5 21.5q55 31 90 39q23 6 33 6t29 -23q29 -31 117 -106.5t155 -122.5q21 -15 21 -23t-13 -8q-25 0 -175 67.5t-245 120.5q-35 20 -34.5 28.5z" />
<glyph unicode="&#x40e;" horiz-adv-x="1396" d="M-72 1530q0 12 31 12t107.5 -3t105.5 -3q6 0 78 3t110 3q29 0 29 -10q0 -14 -31 -19q-55 -6 -55 -34q0 -16 35 -82q10 -18 115.5 -217t203 -379t115.5 -213q248 494 373 762q41 90 41 127q0 27 -35 32q-31 6 -31 21q0 10 33 10q16 0 58 -2t67 -2q29 0 100.5 3t87.5 3 q31 0 31 -12t-33 -17q-51 -6 -73 -14q-41 -14 -67 -43t-58 -96q-397 -782 -559 -1120q-84 -182 -93 -222q-2 -18 -14 -20q-31 -6 -330 -6q-33 0 -32.5 14t30.5 14q23 0 51 3q74 6 129.5 44.5t116.5 135.5q70 115 101 182q12 23 -2 53q-53 104 -244 453.5t-254 456.5 q-59 104 -93 131.5t-120 33.5q-25 2 -25 17zM367 1868q0 12 10 28q14 20 36.5 40t30.5 20q10 0 13 -12q12 -61 93 -110.5t216 -49.5q207 0 332 151q16 18 26 19q4 0 6.5 -4t0 -11.5t-8.5 -15.5q-72 -106 -188.5 -166.5t-247.5 -60.5q-156 0 -256 73q-63 52 -63 99z" />
<glyph unicode="&#x40f;" horiz-adv-x="1945" d="M186 1526q0 16 33 16q41 0 96.5 -1t94.5 -3t41 -2t39.5 2t86 3t74.5 1q33 0 33 -16q0 -12 -16 -13q-14 0 -52 -6q-41 -8 -56 -34.5t-19 -81.5q-4 -66 -4 -443v-325q0 -416 8 -504q2 -25 20 -27q41 -4 205 -4h268q309 0 346 6q18 2 19 21q6 61 6 481v352q0 377 -4 443 q-4 55 -21.5 80.5t-66.5 35.5q-25 6 -70 6q-16 0 -16 13q0 16 33 16q41 0 96 -1t94 -3t41 -2t40 2t86 3t75 1q33 0 33 -16q0 -12 -17 -13q-14 0 -51 -6q-41 -8 -56.5 -34.5t-19.5 -81.5q-4 -66 -4 -443v-358q0 -360 10 -447q6 -51 21.5 -78.5t58.5 -33.5q57 -8 84 -8 q25 0 25 -13q0 -16 -33 -16q-49 0 -109.5 1t-100.5 3t-42 2h-377q-41 0 -61 -31q-51 -82 -60 -237q-2 -43 -18 -43t-18 43q-14 182 -66 241q-23 27 -70 27h-379q-10 0 -78.5 -3t-111.5 -3q-39 0 -39 12t27 19q37 4 53 8q35 10 45 41.5t14 99.5q8 131 9 410v364q0 377 -5 443 q-4 55 -21 80.5t-67 35.5q-25 6 -69 6q-16 0 -17 13z" />
<glyph unicode="&#x410;" horiz-adv-x="1433" d="M-55 10q0 12 28 13q16 0 50 4q66 8 102.5 56t69.5 136l464 1272q29 80 45.5 80t45.5 -74q8 -20 103 -270t206.5 -539t167.5 -426q82 -201 176 -227q37 -12 80 -12q23 0 22 -13q0 -16 -41 -16q-180 0 -321 4q-61 4 -61.5 14.5t14.5 14.5q29 10 12 55l-190 504 q-7 12 -19 12h-440q-14 0 -21 -16l-123 -363q-29 -80 -28 -137q0 -29 22.5 -44t50.5 -15h19q27 0 27 -13q0 -16 -37 -16q-29 0 -87.5 3t-66.5 3q-2 0 -88 -3t-143 -3q-39 0 -39 16zM475 686q-6 -14 6 -14h391q12 0 9 14l-195 553q-14 47 -31 0z" />
<glyph unicode="&#x411;" horiz-adv-x="1404" d="M188 1530q0 12 29 12q43 0 120 -3t99 -3q518 0 563 2q84 4 100.5 12.5t22.5 8.5q10 0 8 -15q-12 -55 -16 -94q-8 -82 -8 -129q0 -35 -16.5 -35t-16.5 27q0 41 -10 67q-20 70 -148 76q-123 4 -370 4q-17 0 -17 -20v-545q0 -10 9 -10h55q289 0 430 -76q225 -123 225 -375 q0 -168 -133 -307t-375 -139q-43 0 -154.5 6t-138.5 6q-2 0 -38.5 -1t-84 -3t-73.5 -2q-33 0 -33 16q0 10 25 13q29 2 53 8q45 8 59 112q10 86 11 445v362q0 375 -5 447q-2 55 -25.5 80.5t-72.5 31.5q-16 2 -51 4q-23 2 -23 17zM528 678q0 -406 4 -502q2 -74 39 -88 q68 -31 199 -31q133 0 213 83t80 249q0 227 -145 344q-115 92 -381 86q-9 0 -9 -10v-131z" />
<glyph unicode="&#x412;" horiz-adv-x="1402" d="M186 1526q0 16 33 16q41 0 96.5 -1t94.5 -3t41 -2q18 0 94 3t129 3q119 0 205 -32.5t127 -84t59 -98.5t18 -92q0 -78 -31.5 -150.5t-64.5 -111.5t-96 -107q135 -43 244.5 -155.5t109.5 -276.5q0 -180 -137 -313t-385 -133q-10 0 -33.5 1t-56.5 3t-58 2q-88 6 -124 6 q-33 0 -98.5 -3t-102.5 -3q-33 0 -33 14.5t31 14.5q23 0 49 6q43 8 57 114q11 87 11 445v360q0 377 -5 443q-4 55 -21 80.5t-67 35.5q-25 6 -59 6q-27 0 -27 13zM528 686q0 -412 2 -442q4 -61 7.5 -83t17.5 -42.5t45 -34.5q63 -31 180 -31q47 0 93.5 13.5t92.5 44t74.5 91 t28.5 142.5q0 111 -46 223.5t-153 186.5q-70 47 -170 59q-27 4 -159 4q-13 0 -13 -14v-117zM528 903q0 -16 15 -22q49 -8 125 -9q90 0 122.5 9.5t63.5 44.5q74 84 74 207q0 143 -68.5 247.5t-208.5 104.5q-57 0 -98 -10q-25 -7 -25 -23v-549z" />
<glyph unicode="&#x413;" horiz-adv-x="1150" d="M186 1526q0 16 33 16q41 0 118 -3t114 -3q457 0 503 2q86 4 101 12q12 8 18 9q12 0 12 -19q0 -4 -2 -14t-5 -24.5t-5 -24.5q-4 -25 -12 -150q0 -41 -19 -41q-12 0 -14 27q-6 74 -39 102q-43 37 -121 39l-313 6q-18 1 -18 -22v-850q0 -319 6 -414q8 -135 84 -143 q8 -2 84 -8q25 -2 24 -15q0 -14 -33 -14q-51 0 -110.5 1t-99 3t-41.5 2h-19q-123 -6 -182 -6q-33 0 -33 16q0 10 23 13q37 4 53 8q33 8 46 36.5t17 96.5q8 117 9 424v360q0 377 -5 443q-4 55 -21 80.5t-67 35.5q-6 2 -24.5 3t-26.5 1q-35 4 -35 15z" />
<glyph unicode="&#x414;" horiz-adv-x="1570" d="M-18 90q-2 18 12 19q61 -10 182 -11q18 0 33 27l491 1360q33 86 52 86q14 0 41 -66q8 -18 221 -574t315 -810q10 -23 33 -23q154 0 215 13q10 2 12 -1.5t0 -15.5q-25 -131 -24 -237q0 -31 -14.5 -31t-18.5 31q-8 131 -133 139q-60 4 -269 4h-692q-186 0 -266 -6 q-78 -4 -109.5 -34t-35.5 -99q-4 -35 -18.5 -35t-14.5 37q0 57 -12 227zM317 104q0 -6 13 -10q51 -6 217 -6h342q184 0 239 6q14 4 7 19q-55 145 -196.5 540.5t-219.5 599.5q-6 14 -12 2l-353 -1038q-37 -102 -37 -113z" />
<glyph unicode="&#x415;" horiz-adv-x="1249" d="M186 1526q0 16 33 16q102 0 232 -6q422 0 469 2q76 4 94 12q16 8 22 9q8 0 8 -19q0 -4 -7 -33.5t-9 -62.5l-8 -123q-4 -35 -16 -35q-16 0 -17 27q0 41 -10 67q-20 63 -148 76q-53 6 -280 6q-12 0 -12 -20v-565q0 -20 12 -21q279 0 325 4q78 6 103 35q16 20 24 20 q10 0 11 -16q0 -4 -3 -18.5t-7.5 -41t-6.5 -55.5q-4 -37 -6 -87t-2 -52q-4 -31 -14 -31q-14 0 -14.5 33t-8.5 58q-14 57 -106 67t-293 10q-14 0 -14 -14v-180v-105.5v-157v-87.5q4 -68 17 -102t50 -48q45 -18 170 -18q123 0 184 18q47 14 70 48t35 104q6 31 18.5 30.5 t12.5 -30.5q0 -14 -10.5 -92t-16.5 -107q-10 -39 -28.5 -46t-82.5 -7q-59 0 -299 6q-246 6 -256 6q-20 0 -71 -4t-80 -2q-33 0 -33 16q0 8 23 13q39 4 47 6q37 8 54 47t19 145q5 160 5 367v360q0 377 -5 443q-4 55 -21 80.5t-67 35.5q-6 2 -16 3t-23.5 2t-19.5 1 q-27 4 -27 13z" />
<glyph unicode="&#x416;" horiz-adv-x="2138" d="M-121 8q0 16 31 17q6 0 65 6q121 16 328 217q225 221 549 583q-29 35 -253 259.5t-230 230.5q-147 143 -228 170q-39 14 -88 20q-39 6 -39 17q0 14 37 14q14 0 91 -3t112 -3q39 0 95.5 3t81 3t24.5 -12q0 -10 -27 -17q-49 -10 -49 -36q0 -43 145 -193q76 -80 257.5 -263 t203.5 -206v133q0 377 -4 443q-6 100 -70 114q-31 8 -63 8q-16 0 -17 13q0 16 33 16q31 0 79 -1t85 -3t39 -2t39 2t84 3t74 1q33 0 32 -16q0 -12 -16 -13q-14 0 -51 -6q-41 -8 -56.5 -34.5t-19.5 -81.5q-4 -66 -4 -443v-133q119 104 469 473q141 147 141 189q0 27 -47 36 q-29 6 -29 17q0 12 29 12q23 0 78 -3t94 -3q35 0 113 3t92 3q35 0 35 -14q0 -10 -37 -17q-61 -8 -94 -22q-47 -16 -92.5 -49t-131.5 -119q-53 -53 -173.5 -173t-200.5 -200t-103 -104q412 -467 574 -619q184 -170 286 -192q35 -8 78 -8q29 0 29 -15q0 -16 -35 -16h-153 q-133 0 -198 29.5t-159 123.5q-121 123 -514 584q-8 10 -25.5 28.5t-25.5 28.5v-200q0 -358 10 -445q10 -106 80 -114q51 -6 82 -6q27 0 27 -13q0 -16 -31 -16q-49 0 -109.5 1t-99.5 3t-41 2t-40 -1t-86 -3t-75 -2q-29 0 -28 16q0 12 22 13q25 0 53 6q53 10 62 114 q10 143 10 445v200q-12 -16 -43 -53q-360 -424 -522 -581q-98 -96 -160.5 -128t-189.5 -32h-160q-31 0 -31 14z" />
<glyph unicode="&#x417;" horiz-adv-x="1224" d="M129 84q-4 113 10 211q6 29 17 29q12 0 14 -33q12 -256 324 -256q168 0 277.5 99t109.5 278q0 193 -122 296t-294 111q-72 2 -72 23q0 14 74 24q317 27 317 322q0 59 -14 110.5t-47 100.5t-96.5 77.5t-153.5 28.5q-250 0 -260 -237q-2 -31 -16.5 -31t-14.5 29 q0 31 -4 105.5t-4 101.5q0 37 19 40q10 2 25 5.5t38 9.5t39 10q123 33 240 33q119 0 206.5 -33t132 -86t63.5 -106.5t19 -106.5q0 -139 -85 -233.5t-197 -137.5q-6 -4 0 -6q61 -10 123.5 -37.5t126 -73.5t103.5 -121t40 -167q0 -217 -167 -357.5t-441 -140.5q-184 0 -291 55 q-35 18 -39 64z" />
<glyph unicode="&#x418;" horiz-adv-x="1902" d="M117 1528q0 14 41 14q35 0 124 -3t101 -3q35 0 106.5 3t98.5 3q35 0 35 -12q0 -14 -27 -17q-41 -4 -53 -6q-45 -10 -59.5 -46t-16.5 -163l-4 -1062q143 174 527 648t456 562q102 125 133 125q12 0 17.5 -11.5t9.5 -54.5t4 -129q0 -748 6 -1130q2 -115 19.5 -161t64.5 -54 q23 -4 80 -8q31 -2 30 -15q0 -14 -30 -14q-43 0 -160 3t-127 3q-18 0 -80.5 -3t-103.5 -3q-31 0 -31 12q0 14 31 17q45 4 59 8q41 8 54.5 65.5t15.5 186.5q4 186 5 537t3 491q-156 -195 -574.5 -711t-474.5 -577q-53 -57 -75 -58q-16 0 -21.5 19.5t-5.5 78.5v1192 q0 111 -10.5 163t-26.5 67.5t-53 21.5q-14 2 -37 4t-29 2q-23 2 -22 15z" />
<glyph unicode="&#x419;" horiz-adv-x="1902" d="M117 1528q0 14 41 14q35 0 124 -3t101 -3q35 0 106.5 3t98.5 3q35 0 35 -12q0 -14 -27 -17q-41 -4 -53 -6q-45 -10 -59.5 -46t-16.5 -163l-4 -1062q143 174 527 648t456 562q102 125 133 125q12 0 17.5 -11.5t9.5 -54.5t4 -129q0 -748 6 -1130q2 -115 19.5 -161t64.5 -54 q23 -4 80 -8q31 -2 30 -15q0 -14 -30 -14q-43 0 -160 3t-127 3q-18 0 -80.5 -3t-103.5 -3q-31 0 -31 12q0 14 31 17q45 4 59 8q41 8 54.5 65.5t15.5 186.5q4 186 5 537t3 491q-156 -195 -574.5 -711t-474.5 -577q-53 -57 -75 -58q-16 0 -21.5 19.5t-5.5 78.5v1192 q0 111 -10.5 163t-26.5 67.5t-53 21.5q-14 2 -37 4t-29 2q-23 2 -22 15zM618 1868q0 12 11 28q14 20 36.5 40t30.5 20q10 0 13 -12q12 -61 93 -110.5t216 -49.5q207 0 332 151q16 18 26 19q4 0 6 -4t0 -11.5t-8 -15.5q-72 -106 -188.5 -166.5t-247.5 -60.5q-156 0 -256 73 q-64 52 -64 99z" />
<glyph unicode="&#x41a;" horiz-adv-x="1583" d="M195 1526q0 16 32 16q31 0 82 -1t91 -3t42 -2t40 2t86 3t75 1q33 0 33 -14q0 -12 -23 -15l-45 -4q-39 -4 -55 -32.5t-21 -85.5q-4 -66 -4 -443v-131q29 27 114 116t197.5 206.5t155.5 160.5q86 88 108.5 120t22.5 53q0 29 -26 38q-18 8 -19 19q0 12 31 12q29 0 57.5 -3 t65.5 -3q35 0 120 3t97 3q35 0 35 -14q0 -12 -23 -15q-61 -6 -104 -24q-74 -29 -213 -164q-375 -360 -467 -465q94 -102 308 -321.5t290 -288.5q125 -117 194.5 -162t143.5 -59q27 -6 59 -6q29 0 29 -14.5t-31 -14.5h-151q-129 0 -187.5 19.5t-134.5 78.5q-88 70 -308 302.5 t-364 404.5v-211q0 -358 11 -445q6 -51 21 -78.5t58 -33.5q57 -8 82 -8t25 -14.5t-31 -14.5q-49 0 -109.5 1t-100.5 3t-42 2t-37.5 -1t-82 -3t-72.5 -2q-33 0 -33 14.5t23 14.5q27 0 53 6q47 10 61 114q10 86 11 445v360q0 377 -5 443q-6 100 -69 114q-31 8 -74 8 q-23 0 -22 13z" />
<glyph unicode="&#x41b;" horiz-adv-x="1433" d="M-55 10q0 12 28 13q16 0 50 4q66 8 102.5 56t69.5 136l464 1272q29 80 45.5 80t45.5 -74q8 -20 103 -270t206.5 -539t167.5 -426q82 -201 176 -227q37 -12 80 -12q23 0 22 -13q0 -16 -41 -16q-180 0 -321 4q-61 4 -61.5 14.5t14.5 14.5q29 10 12 55l-424 1147 q-17 45 -31 0l-338 -1010q-29 -80 -28 -137q0 -29 22.5 -44t50.5 -15h19q27 0 27 -13q0 -16 -37 -16q-29 0 -87.5 3t-66.5 3q-2 0 -88 -3t-143 -3q-39 0 -39 16z" />
<glyph unicode="&#x41c;" horiz-adv-x="2150" d="M102 10q0 12 21 13q31 0 61 6q57 10 74 104q2 10 8 66l148 1331q4 41 22 41q16 0 31 -31l627 -1288l602 1286q14 33 30 33q19 0 25 -55l137 -1258q20 -188 111 -217q59 -18 127 -18q23 0 22 -13q0 -16 -30 -16q-203 0 -355 12q-57 4 -57 21q0 8 14 14q16 6 9 74l-99 1069 l-508 -1078q-47 -100 -57 -106q-4 -2 -10 -2q-14 0 -64 94q-35 68 -239 475q-16 35 -139.5 298t-137.5 300l-84 -964q-4 -66 -4 -97q0 -63 55 -73q35 -8 74 -8q20 0 21 -11q0 -18 -31 -18q-45 0 -121 2l-76 4q-4 0 -71.5 -3t-100.5 -3q-35 0 -35 16z" />
<glyph unicode="&#x41d;" horiz-adv-x="1961" d="M186 1526q0 16 33 16q41 0 96.5 -1t94.5 -3t41 -2t39.5 2t86 3t74.5 1q33 0 33 -16q0 -12 -16 -13q-14 0 -52 -6q-41 -8 -56 -34.5t-19 -81.5q-4 -66 -4 -443v-43q0 -12 12 -12h868q12 0 13 12v43q0 377 -5 443q-4 55 -21.5 80.5t-66.5 35.5q-25 6 -69 6q-16 0 -17 13 q0 16 33 16q41 0 96.5 -1t94 -3t41 -2t40 2t86 3t74.5 1q33 0 33 -16q0 -12 -16 -13q-14 0 -52 -6q-41 -8 -56 -34.5t-19 -81.5q-4 -66 -4 -443v-360q0 -358 10 -445q6 -51 21.5 -78.5t58.5 -33.5q57 -8 92 -8q16 0 16 -13q0 -16 -33 -16q-49 0 -109.5 1t-100 3t-42 2 t-40 -1t-86 -3t-74.5 -2q-33 0 -33 16q0 12 16 13q25 0 62 8q45 8 59 112q10 86 11 445v215q0 12 -13 12h-868q-12 0 -12 -12v-215q0 -358 10 -445q6 -51 21.5 -78.5t58.5 -33.5q57 -8 92 -8q16 0 16 -13q0 -16 -33 -16q-49 0 -109.5 1t-100 3t-41.5 2t-40 -1t-86.5 -3 t-74.5 -2q-33 0 -33 16q0 12 16 13q25 0 62 8q45 8 59 112q10 86 11 445v360q0 377 -5 443q-4 55 -21 80.5t-67 35.5q-25 6 -69 6q-16 0 -17 13z" />
<glyph unicode="&#x41e;" horiz-adv-x="1873" d="M131 770q0 131 48 266t141.5 257t255 200t362.5 78q352 0 578.5 -208t226.5 -560t-227.5 -595t-589.5 -243q-162 0 -297 48t-225.5 128t-154 186.5t-91 217t-27.5 225.5zM326 827q0 -352 186 -568t469 -216q63 0 130 15.5t147.5 61.5t142 119.5t103.5 204.5t42 301 q0 352 -182 554t-440 202q-266 0 -432 -174t-166 -500z" />
<glyph unicode="&#x41f;" horiz-adv-x="1941" d="M186 1530q0 12 35 12q43 0 128 -3t95 -3h1043l92 4q92 2 119 2q31 0 31 -12q0 -10 -27 -17q-2 0 -15.5 -2t-23.5 -4q-43 -10 -59.5 -30.5t-18.5 -83.5q-4 -66 -4 -445v-360q0 -350 8 -436q4 -59 22.5 -86t61.5 -35q12 -2 80 -8q27 -2 27 -15q0 -14 -27 -14 q-43 0 -104.5 1t-107.5 3t-50 2t-83 -3t-116 -3q-33 0 -32 14q0 12 30 15q37 6 41 6q63 12 70 116q8 115 8 457v834q0 14 -12 14q-31 2 -445 2q-352 0 -381 -2q-20 -2 -27 -9t-7 -30v-829q0 -311 8 -426q4 -57 20.5 -87t59.5 -38q16 -2 48 -5t36 -3q31 -2 30 -17 q0 -12 -37 -12q-39 0 -100 1t-108.5 3t-49.5 2t-77.5 -3t-112.5 -3t-37 12t25 17q29 4 45 6q63 10 69 137q8 115 9 422v364q0 373 -5 439q-2 57 -21.5 81.5t-64.5 34.5q-12 2 -35.5 4t-27.5 2q-25 2 -25 17z" />
<glyph unicode="&#x420;" horiz-adv-x="1314" d="M186 1526q0 16 33 16q41 0 94.5 -1t93 -3t44.5 -2q16 0 110 3t148 3q256 0 381 -117q102 -98 102 -268q0 -201 -143.5 -332t-360.5 -131q-33 0 -43 2q-23 0 -22 15q0 18 55 18q152 0 253 96.5t101 253.5q0 182 -114 299q-100 102 -281 103q-59 0 -88 -13q-16 -6 -17 -38 v-842q0 -358 11 -445q6 -51 21.5 -78.5t58.5 -33.5q57 -8 92 -8q16 0 16 -13q0 -16 -33 -16q-49 0 -109.5 1t-100 3t-42.5 2h-36q-37 -2 -85.5 -4t-74.5 -2q-33 0 -33 16q0 12 16 13q25 0 62 8q45 8 59 112q11 87 11 445v360q0 377 -5 443q-4 55 -21 80.5t-67 35.5 q-25 6 -69 6q-16 0 -17 13z" />
<glyph unicode="&#x421;" horiz-adv-x="1648" d="M131 793q0 129 53.5 282.5t175.5 276.5q219 219 625 219q164 0 297 -25q29 -6 217 -30q18 -2 19 -23q0 -6 -2.5 -19.5t-4.5 -39t-4 -56.5q-2 -37 -4 -117.5t-2 -93.5q-2 -43 -18.5 -43t-16.5 43q0 135 -86 209q-57 49 -168.5 83t-240.5 34q-317 0 -471 -150 q-104 -100 -144.5 -230t-40.5 -304q0 -303 210 -526.5t530 -223.5q256 0 356 103q57 59 76 172q6 31 20.5 31t14.5 -31q0 -16 -15.5 -116.5t-29.5 -145.5q-8 -29 -16.5 -38t-37.5 -22q-116 -47 -368 -47q-430 0 -676 221q-248 223 -248 607z" />
<glyph unicode="&#x422;" horiz-adv-x="1415" d="M51 1319q0 33 45 213q12 39 21 39q4 0 30.5 -11.5t59.5 -13.5q98 -10 162 -10h768q90 0 145 10q12 2 25.5 4t20.5 4t11 2q10 0 11 -24q0 -35 -3.5 -127t-3.5 -98q0 -27 -14 -27t-16 35q0 4 -1 11t-1 11q-10 109 -252 113q-43 0 -129 2t-129 2v-866q0 -358 10 -445 q6 -51 21.5 -78.5t58.5 -33.5q57 -8 92 -8q16 0 16 -13q0 -16 -32 -16q-49 0 -109.5 1t-100.5 3t-42 2t-40 -1t-86 -3t-75 -2q-33 0 -33 16q0 12 17 13q25 0 61 8q45 8 59 112q10 86 11 445v866q-49 0 -151.5 -2t-151.5 -2q-96 -2 -140.5 -15.5t-68.5 -50.5q-23 -35 -35 -63 q-8 -20 -21 -21q-10 0 -10 19z" />
<glyph unicode="&#x423;" horiz-adv-x="1396" d="M-72 1530q0 12 31 12t107.5 -3t105.5 -3q6 0 78 3t110 3q29 0 29 -10q0 -14 -31 -19q-55 -6 -55 -34q0 -16 35 -82q10 -18 115.5 -217t203 -379t115.5 -213q248 494 373 762q41 90 41 127q0 27 -35 32q-31 6 -31 21q0 10 33 10q16 0 58 -2t67 -2q29 0 100.5 3t87.5 3 q31 0 31 -12t-33 -17q-51 -6 -73 -14q-41 -14 -67 -43t-58 -96q-397 -782 -559 -1120q-84 -182 -93 -222q-2 -18 -14 -20q-31 -6 -330 -6q-33 0 -32.5 14t30.5 14q23 0 51 3q74 6 129.5 44.5t116.5 135.5q70 115 101 182q12 23 -2 53q-53 104 -244 453.5t-254 456.5 q-59 104 -93 131.5t-120 33.5q-25 2 -25 17z" />
<glyph unicode="&#x424;" horiz-adv-x="1814" d="M131 795q0 246 169 410.5t527 178.5q6 0 7 9q0 102 -16.5 135t-57.5 39q-2 0 -60 6q-23 4 -22.5 16.5t35.5 12.5t117.5 -3.5t84.5 -3.5q4 0 83 3.5t112 3.5t33 -13q0 -14 -27 -16q-4 0 -21.5 -2t-27.5 -4q-39 -8 -52.5 -40t-15.5 -136q0 -6 7 -7q336 -18 506.5 -169.5 t170.5 -405.5q0 -297 -179 -463t-498 -188q-4 0 -5 -6q2 -111 16.5 -143t69.5 -38q4 0 72 -6q29 -2 29 -16.5t-35 -14.5q-59 0 -145.5 3.5t-92.5 3.5q-10 0 -87.5 -3.5t-110.5 -3.5t-33 17q0 14 29 14q18 0 55 4t50 38t13 143q0 6 -6 6q-354 23 -524 195.5t-170 443.5z M315 842q0 -264 134.5 -428t379.5 -189q7 -4 7 4v1084q0 8 -9 8q-268 -14 -390 -146.5t-122 -332.5zM999 227q0 -4 5 -4q231 8 364 158.5t133 392.5q0 252 -128 391.5t-365 153.5q-9 0 -9 -12v-1080z" />
<glyph unicode="&#x425;" horiz-adv-x="1380" d="M-30.5 8.5q-0.5 14.5 16.5 14.5q39 0 77 10q80 21 170 166l371 585l-328 551q-80 135 -159 164q-45 14 -86 14q-18 0 -18.5 14.5t34.5 14.5t135.5 -3t104.5 -3q2 0 76.5 3t115.5 3q35 0 35 -14.5t-18 -14.5q-39 0 -56 -6q-25 -8 -24 -34q0 -31 20 -68q141 -266 277 -490 q47 66 166.5 257.5t134.5 224.5q20 43 20 73q0 27 -35 37q-20 6 -61 6q-18 0 -18 14.5t34 14.5q47 0 114 -3t69 -3t66.5 3t105.5 3q33 0 32.5 -14.5t-22.5 -14.5q-39 0 -68 -10q-29 -8 -56.5 -34.5t-44.5 -50t-56 -81.5l-330 -495q8 -14 113.5 -191.5t203 -338t115.5 -185.5 q55 -72 121 -92q43 -12 72 -12q16 0 16 -13q0 -16 -29 -16q-223 0 -327 4q-63 2 -63.5 16.5t11.5 16.5q10 4 15.5 17t-4.5 40q-131 240 -353 610l-319 -542q-27 -47 -27 -90q0 -31 33 -39q25 -4 39 -4q16 0 16 -14.5t-24 -14.5q-29 0 -110 3t-87 3q-4 0 -75.5 -3t-110.5 -3 q-20 0 -20.5 14.5z" />
<glyph unicode="&#x426;" horiz-adv-x="1968" d="M186 1526q0 16 33 16q41 0 96.5 -1t94.5 -3t41 -2t39.5 2t86 3t74.5 1q33 0 33 -16q0 -12 -16 -13q-14 0 -52 -6q-41 -8 -56 -34.5t-19 -81.5q-4 -66 -4 -443v-325q0 -416 8 -504q2 -25 20 -27q41 -4 205 -4h268q307 0 363 6q8 0 8 12v842q0 377 -4 443q-4 55 -21.5 80.5 t-66.5 35.5q-25 6 -70 6q-16 0 -16 13q0 16 33 16q41 0 96 -1t94 -3t41 -2t40 2t86 3t75 1q33 0 33 -16q0 -12 -17 -13q-14 0 -51 -6q-41 -8 -56.5 -34.5t-19.5 -81.5q-4 -66 -4 -443v-358q0 -406 2 -469q0 -23 19 -23q211 0 272 11q10 2 12 -1.5t0 -15.5q-25 -123 -24 -227 q0 -39 -14.5 -39t-18.5 41q-10 63 -33.5 92t-85.5 33q-123 8 -354 8h-910q-10 0 -78.5 -3t-111.5 -3q-39 0 -39 12t27 19q37 4 53 8q35 10 45 41.5t14 99.5q8 131 9 410v364q0 377 -5 443q-4 55 -21 80.5t-67 35.5q-25 6 -69 6q-16 0 -17 13z" />
<glyph unicode="&#x427;" horiz-adv-x="1495" d="M10 1529.5q0 12.5 37 12.5q43 0 116 -3t81 -3q14 0 96 3t106 3q33 0 33 -14q0 -12 -35 -15q-57 -4 -80.5 -27.5t-25.5 -96.5q-2 -72 -2 -242q0 -174 94 -262t262 -88q170 0 264 41v145q0 342 -4 408q-4 55 -21.5 80.5t-66.5 35.5q-25 6 -63 6q-23 0 -23 13q0 16 33 16 q41 0 96.5 -1t94 -3t40.5 -2t40 2t86.5 3t74.5 1q33 0 33 -16q0 -12 -16 -13q-14 0 -52 -6q-41 -8 -56 -34.5t-19 -81.5q-5 -66 -5 -443v-360q0 -358 11 -445q6 -51 21.5 -78.5t58.5 -33.5q57 -8 92 -8q16 0 16 -13q0 -16 -33 -16q-49 0 -109.5 1t-100.5 3t-42 2t-39.5 -1 t-86 -3t-74.5 -2q-33 0 -33 16q0 12 16 13q25 0 62 8q45 8 59 112q10 86 10 451v180q-131 -59 -325 -59q-262 0 -381 141q-86 102 -86 320q0 190 -2 223q-4 59 -18.5 81.5t-55.5 28.5q-10 2 -26.5 3t-26.5 1q-25 4 -25 16.5z" />
<glyph unicode="&#x428;" horiz-adv-x="2527" d="M186 1526q0 16 33 16q41 0 96.5 -1t94.5 -3t41 -2t38.5 2t84 3t73.5 1q33 0 33 -16q0 -12 -16 -13q-14 0 -52 -6q-41 -8 -56 -34.5t-19 -81.5q-4 -66 -5 -437v-319q0 -459 9 -514q2 -18 7 -22.5t19 -6.5q43 -4 570 -4q23 0 30 33q10 47 11 422v405q0 377 -2 443 q-4 55 -21.5 80.5t-67.5 35.5q-25 6 -61 6q-25 0 -25 13q0 16 33 16q41 0 95.5 -1t92.5 -3t40 -2t39.5 2t86 3t74.5 1q33 0 33 -16q0 -12 -16 -13q-14 0 -52 -6q-70 -12 -75 -112q-2 -66 -2 -447v-405q0 -381 8 -426q2 -12 5 -17.5t10 -8.5t20 -3l559 2q29 0 33 35 q10 92 10 489v334q0 377 -4 443q-4 55 -21.5 80.5t-66.5 35.5q-25 6 -70 6q-16 0 -16 13q0 16 32 16q41 0 95.5 -1t92.5 -3t40 -2t39.5 2t86 3t74.5 1q33 0 33 -16q0 -12 -16 -13q-14 0 -51 -6q-41 -8 -56.5 -34.5t-19.5 -81.5q-4 -66 -4 -443v-360q0 -358 10 -445 q6 -51 21.5 -78.5t58.5 -33.5q57 -8 92 -8q16 0 16 -13q0 -16 -32 -16q-49 0 -109.5 1t-100.5 3t-42 2h-1631q-2 0 -38.5 -1t-84 -3t-73.5 -2q-33 0 -33 16q0 12 16 13q25 0 62 8q45 8 59 112q10 86 11 445v360q0 377 -5 443q-4 55 -21 80.5t-67 35.5q-25 6 -69 6 q-16 0 -17 13z" />
<glyph unicode="&#x429;" horiz-adv-x="2549" d="M186 1526q0 16 33 16q41 0 96.5 -1t94.5 -3t41 -2t38.5 2t84 3t73.5 1q33 0 33 -16q0 -12 -16 -13q-14 0 -52 -6q-41 -8 -56 -34.5t-19 -81.5q-4 -66 -5 -437v-319q0 -459 9 -514q2 -18 7 -22.5t19 -6.5q43 -4 570 -4q23 0 30 33q10 47 11 422v405q0 377 -2 443 q-4 55 -21.5 80.5t-67.5 35.5q-25 6 -61 6q-25 0 -25 13q0 16 33 16q41 0 95.5 -1t92.5 -3t40 -2t39.5 2t86 3t74.5 1q33 0 33 -16q0 -12 -16 -13q-14 0 -52 -6q-70 -12 -75 -112q-2 -66 -2 -447v-405q0 -381 8 -426q2 -12 5 -17.5t10 -8.5t20 -3l559 2q29 0 33 35 q10 92 10 489v334q0 377 -4 443q-4 55 -21.5 80.5t-66.5 35.5q-25 6 -70 6q-16 0 -16 13q0 16 32 16q41 0 95.5 -1t92.5 -3t40 -2t39.5 2t86 3t74.5 1q33 0 33 -16q0 -12 -16 -13q-14 0 -51 -6q-41 -8 -56.5 -34.5t-19.5 -81.5q-4 -66 -4 -443v-360q0 -403 2 -467 q0 -23 18 -23q211 0 273 11q10 2 12 -1.5t0 -15.5q-25 -123 -25 -227q0 -39 -14 -39t-19 41q-10 63 -33.5 92t-84.5 33q-123 8 -350 8h-1496q-2 0 -38.5 -1t-84 -3t-73.5 -2q-33 0 -33 16q0 12 16 13q25 0 62 8q45 8 59 112q10 86 11 445v360q0 377 -5 443q-4 55 -21 80.5 t-67 35.5q-25 6 -69 6q-16 0 -17 13z" />
<glyph unicode="&#x42a;" horiz-adv-x="1576" d="M51 1319q0 33 45 213q12 39 21 39q4 0 30.5 -11.5t59.5 -13.5q98 -10 166 -10h258q4 0 93 3t120 3q35 0 35 -12t-29 -17q-4 0 -16.5 -2t-22.5 -3t-18 -3q-41 -8 -55.5 -31.5t-18.5 -82.5q-2 -66 -2 -443v-53q0 -10 8 -10h55q287 0 428 -76q225 -123 226 -375 q0 -168 -132.5 -307t-373.5 -139q-43 0 -154.5 6t-138.5 6q-2 0 -39 -1t-84 -3t-74 -2q-33 0 -32 16q0 12 24 13q35 0 55 4q43 8 58 116q10 86 10 445v360q0 432 -4 482q-2 23 -21 22q-145 0 -202 -2q-98 -4 -141.5 -16.5t-67.5 -49.5q-23 -35 -35 -63q-8 -20 -21 -21 q-10 0 -10 19zM717 678q0 -391 4 -488q2 -78 55 -102q76 -35 182 -35q133 0 214 84t81 250q0 227 -149 346q-115 92 -379 86q-8 0 -8 -10v-131z" />
<glyph unicode="&#x42b;" horiz-adv-x="2117" d="M211 1526q0 16 33 16q31 0 78 -1t83.5 -3t38.5 -2t40 2t85 3t74 1q33 0 33 -16q0 -12 -17 -13q-14 0 -51 -6q-41 -8 -56 -34.5t-20 -81.5q-4 -66 -4 -443v-53q0 -10 9 -10h55q287 0 428 -76q225 -123 225 -375q0 -168 -132 -307t-374 -139q-43 0 -154.5 6t-138.5 6 q-2 0 -38.5 -1t-84 -3t-73.5 -2q-33 0 -33 16q0 12 25 13q35 0 55 4q43 8 57 116q10 86 11 445v360q0 377 -5 443q-6 100 -69 114q-31 8 -64 8q-16 0 -16 13zM528 678q0 -391 4 -488q2 -78 56 -102q76 -35 182 -35q133 0 214 84t81 250q0 227 -150 346q-115 92 -378 86 q-9 0 -9 -10v-131zM1427 1526q0 16 33 16q31 0 80 -1t87 -3t40 -2t40 2t86 3t75 1q33 0 33 -16q0 -12 -17 -13q-14 0 -51 -6q-41 -8 -56.5 -34.5t-19.5 -81.5q-4 -66 -4 -443v-360q0 -358 10 -445q6 -51 21.5 -78.5t58.5 -33.5q57 -8 84 -8q25 0 25 -13q0 -16 -31 -16 q-49 0 -110.5 1t-101.5 3t-42 2t-40 -1t-86 -3t-75 -2q-33 0 -32 16q0 12 22 13q27 0 53 6q47 10 62 114q10 87 10 445v360q0 377 -4 443q-6 100 -70 114q-31 8 -63 8q-16 0 -17 13z" />
<glyph unicode="&#x42c;" horiz-adv-x="1388" d="M211 1526q0 16 33 16q31 0 78 -1t83.5 -3t38.5 -2t40 2t85 3t74 1q33 0 33 -16q0 -12 -17 -13q-14 0 -51 -6q-41 -8 -56 -34.5t-20 -81.5q-4 -66 -4 -443v-53q0 -10 9 -10h55q287 0 428 -76q225 -123 225 -375q0 -168 -132 -307t-374 -139q-43 0 -154.5 6t-138.5 6 q-2 0 -38.5 -1t-84 -3t-73.5 -2q-33 0 -33 16q0 12 25 13q35 0 55 4q43 8 57 116q10 86 11 445v360q0 377 -5 443q-6 100 -69 114q-31 8 -64 8q-16 0 -16 13zM528 678q0 -391 4 -488q2 -78 56 -102q76 -35 182 -35q133 0 214 84t81 250q0 227 -150 346q-115 92 -378 86 q-9 0 -9 -10v-131z" />
<glyph unicode="&#x42d;" horiz-adv-x="1613" d="M127 330q0 30 14.5 30t20.5 -32q16 -102 74 -162q113 -111 374 -111q190 0 325.5 53.5t212.5 151.5t111.5 219t38.5 277q0 14 -12 14q-543 0 -717 -10q-68 -4 -94 -33t-37 -90q-2 -27 -16 -27t-14 25q0 4 5 77.5t5 106.5q0 27 -2 59.5t-2 36.5q0 20 12 21q10 0 16 -18 q10 -35 34 -47.5t89 -14.5q61 -2 381 -4t336 0q12 0 12 12q-8 289 -182 455q-182 178 -487 178q-256 0 -367 -88q-70 -61 -76 -211q0 -33 -18 -33q-16 0 -17 33q0 166 -2 201q-2 18 -3 35.5t-2 24.5t-1 14.5v13.5q0 20 21 22q18 2 198 35q139 27 301 27q395 0 617 -217 q207 -205 207 -555q0 -389 -256 -619q-125 -113 -280.5 -164t-375.5 -51q-227 0 -354 51q-43 18 -53 60q-37 152 -37 254z" />
<glyph unicode="&#x42e;" horiz-adv-x="2584" d="M211 1526q0 16 33 16q31 0 78 -1t83.5 -3t38.5 -2t40 2t86 3t75 1q33 0 33 -16q0 -12 -16 -13q-14 0 -52 -6q-41 -8 -56 -34.5t-19 -81.5q-4 -131 -5 -430v-50q0 -12 13 -12h356q14 0 14 12q45 287 246 473.5t524 186.5q176 0 326 -69.5t245 -182.5t147.5 -249t52.5 -273 q0 -365 -210 -598.5t-565 -233.5q-238 0 -419 119t-270 306.5t-85 404.5q0 12 -14 12h-348q-12 0 -13 -12v-207q0 -358 11 -445q6 -51 21.5 -78.5t58.5 -33.5q57 -8 84 -8q25 0 24 -13q0 -16 -31 -16q-49 0 -110.5 1t-101.5 3t-42 2t-38.5 -1t-83 -3t-72.5 -2q-33 0 -33 16 q0 12 23 13q27 0 53 6q47 10 61 114q10 86 11 445v360q0 377 -5 443q-6 100 -69 114q-31 8 -64 8q-16 0 -16 13zM1092 829q0 -360 174 -572t444 -212q96 0 183 30.5t173 103.5t138.5 217.5t52.5 344.5q0 336 -169 544t-429 208q-268 0 -417.5 -182.5t-149.5 -481.5z" />
<glyph unicode="&#x42f;" horiz-adv-x="1521" d="M-160 12q0 12 33 13q35 0 66 2q72 6 124 37.5t119 113.5q82 100 221 283q6 8 48.5 62.5t58.5 74.5t47 53t55 49q-147 59 -221 170t-74 238q0 221 193 348q123 86 344 86q51 0 124 -3t93 -3q8 0 87 3t114 3q33 0 33 -16q0 -12 -17 -13q-14 0 -51 -6q-41 -8 -56.5 -34.5 t-19.5 -81.5q-4 -66 -4 -443v-360q0 -358 10 -445q6 -51 21.5 -78.5t58.5 -33.5q57 -8 84 -8q25 0 25 -13q0 -16 -31 -16q-49 0 -110.5 1t-101.5 3t-42 2t-39 -1t-84 -3t-74 -2q-33 0 -32 16q0 12 22 13q25 0 54 6q47 10 61 114q10 86 10 443v61q0 14 -14 15q-68 -2 -197 4 q-12 0 -20 -4q-18 -8 -39 -33q-8 -8 -209 -287q-121 -184 -205 -258q-98 -90 -328 -90l-100 2q-37 0 -37 16zM496 1102q0 -170 113.5 -269.5t281.5 -99.5q63 0 86 8q12 4 12 27v670q0 12 -12 20q-33 12 -105 12q-174 0 -275 -95t-101 -273z" />
<glyph unicode="&#x430;" horiz-adv-x="1261" d="M-53 8.5q0 14.5 24 14.5q29 0 41 2q59 6 93 45t65 116l410 1080q16 45 24 57t19 12q14 0 41 -65q4 -10 178 -448.5t237 -590.5q70 -168 156 -198q27 -10 70 -10q25 0 24.5 -14.5t-31.5 -14.5q-174 0 -311 4q-51 2 -51 14q0 10 14 15q23 10 8 45l-161 411q-7 11 -17 11 h-372q-14 0 -21 -17l-90 -256q-35 -98 -35 -145q0 -53 68 -53h14q25 0 25 -14.5t-31 -14.5q-25 0 -89.5 3t-72.5 3q-2 0 -73.5 -3t-122.5 -3q-33 0 -33 14.5zM424 578q-6 -13 4 -13h328q10 0 6 13l-162 452q-10 31 -22 0z" />
<glyph unicode="&#x431;" horiz-adv-x="1247" d="M162 1300q0 10 26 11q39 0 108 -3t91 -3q461 0 500 2q59 2 88 12l24 8q8 0 7 -14q-8 -33 -17 -88q-6 -55 -6 -107q0 -37 -14 -37q-10 0 -15 29q-4 37 -8 51q-18 63 -139 70q-53 2 -315 2q-15 0 -15 -16v-455q0 -8 8 -8h43q258 0 381 -64q201 -104 201 -321 q0 -139 -116.5 -259t-331.5 -120q-35 0 -137.5 5t-127.5 5q-2 0 -34.5 -1t-76.5 -3t-69 -2q-29 0 -29 16q0 6 23 10q20 2 45 9q41 6 51 96q10 61 10 375v307q0 319 -4 381q-6 84 -90 94h-19t-22 2q-20 2 -20 16zM477 565q0 -332 4 -411q2 -53 35 -72q51 -29 172 -29 q115 0 183.5 70t68.5 207q0 188 -131 291q-98 76 -324 69q-8 0 -8 -8v-117z" />
<glyph unicode="&#x432;" horiz-adv-x="1245" d="M157.5 1296.5q0.5 14.5 30.5 14.5q25 0 54.5 -1t56.5 -2t50.5 -1h37.5l14 -2q20 0 87 3t110 3q109 0 186.5 -27t114.5 -70t52.5 -82.5t15.5 -78.5q0 -180 -172 -316q121 -37 217 -133t96 -233q0 -156 -122 -268.5t-343 -112.5q-14 0 -56 2t-71 2q-86 6 -115 6 q-31 0 -90 -3t-94 -3q-29 0 -29 12q0 16 29 17q20 0 37 4q41 8 53 98q10 76 10 375v307q0 319 -4 375q-4 45 -20.5 66.5t-59.5 29.5q-33 4 -49 4q-27 0 -26.5 14.5zM477 594q0 -354 2 -371q4 -57 6 -74.5t15.5 -37t44.5 -31.5q53 -27 151 -27q88 0 165 53.5t77 178.5 q0 96 -41 194.5t-135 161.5q-61 37 -139 45q-74 8 -136 0q-10 0 -10 -12v-80zM477 770q0 -14 10 -20q37 -6 103 -7q80 0 112.5 9.5t61.5 40.5q53 63 53 163q0 121 -58.5 210t-178.5 89q-47 0 -78 -10q-25 -6 -25 -18v-457z" />
<glyph unicode="&#x433;" horiz-adv-x="1021" d="M158 1296q0 14 30 15q37 0 107 -3t102 -3q406 0 449 2q72 4 94 12q8 4 16 4q10 0 7 -16l-11 -52q-10 -63 -10 -145q0 -33 -14.5 -33t-14.5 19q-2 72 -41 104q-45 27 -108 29q-176 4 -260 4q-19 -1 -19 -19v-714q0 -262 4 -344q4 -72 19.5 -97.5t60.5 -29.5q14 -2 41 -4 t31 -2q23 -2 23 -15q0 -14 -25 -14q-47 0 -105.5 1t-97.5 3l-39 2h-14q-117 -6 -166 -6q-29 0 -29 16q0 10 23 13q35 4 43 6q29 8 41 31.5t14 78.5q8 100 8 361v307q0 317 -4 373q-4 45 -18 66.5t-57 31.5q-20 4 -54 4q-27 4 -26 14z" />
<glyph unicode="&#x434;" horiz-adv-x="1349" d="M-37 82q-2 16 10 16q43 -8 162 -8q14 0 29 23l434 1147q31 76 49 75q12 0 37 -55q2 -6 192.5 -480t280.5 -689q8 -20 31 -21q125 0 190 10q8 2 10.5 -1t0.5 -13q-20 -154 -21 -211q0 -27 -14 -27q-12 0 -17 27q-6 59 -34.5 89t-88.5 32q-53 4 -233 4h-612q-160 0 -232 -6 q-72 -2 -100.5 -28.5t-32.5 -88.5q-4 -29 -16 -29q-14 0 -15 33q-2 88 -10 201zM266 96q0 -6 10 -10q50 -6 193 -6h285q160 0 209 6q14 4 4 16q-49 123 -169 447.5t-186 492.5q-6 12 -10 2l-301 -851q-35 -92 -35 -97z" />
<glyph unicode="&#x435;" horiz-adv-x="1110" d="M160 1294q0 16 30 17q18 0 84 -2t127 -4q375 0 416 2q61 2 80 10q18 6 23 6q8 0 8 -14q0 -4 -7.5 -34t-9.5 -58q-6 -88 -6 -107q0 -31 -14 -31t-14 23q-2 39 -15 65q-10 33 -34.5 45.5t-98.5 16.5q-53 4 -233 4q-10 0 -11 -16v-465q0 -20 13 -21q211 0 276 6q74 4 94 31 q10 16 23 16q8 0 8 -12q0 -4 -2 -18.5t-6 -40t-6 -49.5q-4 -35 -6 -79t-2 -46q-2 -23 -14.5 -23t-12.5 27q0 25 -6 49q-16 55 -99 61q-94 8 -245 9q-14 0 -15 -15v-149v-88v-122v-69q4 -61 15.5 -91t42.5 -42q39 -18 149 -18q113 0 156 12t60.5 42t31.5 93q6 29 18.5 29 t12.5 -31q0 -51 -23 -178q-6 -31 -22.5 -38t-67.5 -7q-76 0 -155.5 2t-108.5 2q-215 6 -242 6q-23 0 -66.5 -3t-68.5 -3q-29 0 -29 14.5t18.5 14.5t41.5 6q31 6 47 39.5t18 121.5q4 140 4 310v307q0 317 -4 373q-4 45 -19 67.5t-58 30.5q-25 4 -50 4q-27 0 -26 12z" />
<glyph unicode="&#x436;" horiz-adv-x="1906" d="M-106 6q0 16 26 17q2 0 55 6q113 14 293 186q207 201 480 498q-25 29 -210.5 208t-205.5 201q-123 117 -205 146q-49 12 -74 14q-39 6 -39 16q0 12 37 13q12 0 81 -3t101 -3q37 0 88.5 3t73.5 3q20 0 21 -11q0 -8 -23 -16q-41 -8 -41 -31q0 -37 123 -161 q326 -319 397 -392v107q0 319 -4 375q-6 84 -61 96q-10 2 -49 6q-18 0 -19 12q0 14 29 14.5t73 -1.5t76.5 -3t34.5 -1t35 1t76 3t70 2q31 0 30 -15q0 -12 -18 -12q-25 0 -41 -2q-37 -4 -51.5 -23.5t-18.5 -78.5q-4 -56 -4 -373v-109q113 100 404 398q121 123 120 157 q0 23 -38 31q-27 6 -27 16.5t27 10.5q20 0 70 -3t87 -3q35 0 104.5 3t82.5 3q31 0 30 -13q0 -10 -35 -16q-43 -4 -81 -18q-80 -25 -199 -142q-367 -350 -412 -399q78 -86 256 -275.5t254 -257.5q156 -139 248 -161q35 -6 68 -6q25 0 24.5 -14.5t-31.5 -14.5h-139 q-121 0 -179 25.5t-142 105.5q-106 104 -453 496q-29 33 -39 43v-164q0 -301 12 -375q8 -92 70 -98q31 -4 72 -4q25 0 24 -13q0 -16 -28 -16q-47 0 -101.5 1t-91.5 3l-35 2q-2 0 -36.5 -1t-77.5 -3t-68 -2q-27 0 -27 16q0 12 25 13q23 0 39 2q31 4 42 26.5t15 73.5 q8 147 8 375v164q-25 -29 -36 -41q-311 -356 -455 -496q-84 -80 -142.5 -106.5t-177.5 -26.5h-141q-27 0 -26 12z" />
<glyph unicode="&#x437;" horiz-adv-x="1087" d="M113 74q-4 111 8 186q4 25 14 25q12 0 15 -27q6 -109 78.5 -167t207.5 -58q156 0 247 81t91 234q0 166 -103.5 254t-256.5 94q-66 2 -66 19q0 14 66 22q274 23 274 269q0 111 -63.5 188.5t-208.5 77.5q-221 0 -228 -201q-2 -27 -16 -27t-14 25q0 33 -3 99.5t-3 82.5 q0 31 16 35q8 2 39 9.5t53 11.5q111 29 215 28q201 0 289 -88t88 -192q0 -119 -76 -200t-174 -116q-12 -4 0 -4q125 -23 237.5 -109.5t112.5 -232.5q0 -184 -148 -303t-394 -119q-164 0 -263 45q-35 18 -34 58z" />
<glyph unicode="&#x438;" horiz-adv-x="1685" d="M98 1296q0 14 39 15q31 0 114 -3t93 -3q35 0 98.5 3t87.5 3q33 0 33 -13q0 -14 -24 -16q-8 0 -22.5 -1t-24.5 -3q-37 -6 -51.5 -39t-14.5 -137l-4 -883q797 942 854 1008q94 111 121 110q12 0 17 -10t8 -45t3 -104q4 -618 9 -963q2 -104 16 -141t59 -43q16 -4 76 -8 q25 -4 25 -16.5t-29 -12.5q-37 0 -146.5 3t-119.5 3q-20 0 -76.5 -3t-91.5 -3q-29 0 -29 12t29 14q41 6 49 9q39 8 50 58t14 161q4 154 5 443.5t3 404.5q-844 -1006 -916 -1080q-47 -45 -69 -45q-14 0 -19.5 15.5t-5.5 64.5q0 88 1 296t1 390.5t-2 331.5q-2 135 -17.5 170 t-64.5 39q-10 0 -30.5 1t-28.5 3q-18 2 -19 14z" />
<glyph unicode="&#x439;" horiz-adv-x="1685" d="M98 1296q0 14 39 15q31 0 114 -3t93 -3q35 0 98.5 3t87.5 3q33 0 33 -13q0 -14 -24 -16q-8 0 -22.5 -1t-24.5 -3q-37 -6 -51.5 -39t-14.5 -137l-4 -883q797 942 854 1008q94 111 121 110q12 0 17 -10t8 -45t3 -104q4 -618 9 -963q2 -104 16 -141t59 -43q16 -4 76 -8 q25 -4 25 -16.5t-29 -12.5q-37 0 -146.5 3t-119.5 3q-20 0 -76.5 -3t-91.5 -3q-29 0 -29 12t29 14q41 6 49 9q39 8 50 58t14 161q4 154 5 443.5t3 404.5q-844 -1006 -916 -1080q-47 -45 -69 -45q-14 0 -19.5 15.5t-5.5 64.5q0 88 1 296t1 390.5t-2 331.5q-2 135 -17.5 170 t-64.5 39q-10 0 -30.5 1t-28.5 3q-18 2 -19 14zM500 1657q0 8 8 24q14 18 34.5 35t28.5 17q10 0 13 -9q10 -53 84.5 -95t199.5 -42q193 0 306 129q14 14 24 15q4 0 5 -3.5t-1 -9.5t-6 -14q-68 -94 -174.5 -146.5t-226.5 -52.5q-150 0 -238 66q-57 45 -57 86z" />
<glyph unicode="&#x43a;" horiz-adv-x="1409" d="M184 8.5q0 14.5 27 14.5q25 0 49 6q37 8 47 98q10 74 10 373v307q0 319 -4 375q-6 84 -59 94q-12 2 -27.5 4t-19.5 2q-23 4 -23 14q0 14 31 15q29 0 74 -2t80 -2l32 -2q2 0 37 1t79 3t69 2q31 0 30 -15q0 -12 -22 -14q-6 -2 -18.5 -3t-18.5 -1q-29 -4 -44 -17.5 t-19.5 -30t-6.5 -50.5q-2 -29 -2 -373v-96q246 219 410 397q74 82 90 103.5t16 37.5q0 23 -32 33q-23 6 -23 16q0 12 21 13q4 0 25.5 -2t53 -3t60.5 -1q35 0 113.5 3t87.5 3q33 0 32 -13q0 -14 -22 -16q-59 -4 -100 -20q-35 -12 -67 -36t-116 -99.5t-233.5 -217 t-184.5 -174.5q319 -330 529 -520q174 -160 295 -186q10 -2 47 -6q29 -4 29 -16.5t-33 -12.5h-133q-115 0 -166 15.5t-117 60.5q-68 49 -263.5 247.5t-318.5 344.5v-162q0 -315 9 -375q6 -47 18 -66.5t51 -27.5q35 -8 78 -8q23 -2 23 -15q0 -14 -29 -14q-47 0 -102.5 1 t-92.5 3t-39 2t-35.5 -1t-78.5 -3t-70 -2q-33 0 -33 14.5z" />
<glyph unicode="&#x43b;" horiz-adv-x="1261" d="M-53 8.5q0 14.5 28 14.5q25 0 37 2q98 8 158 161l410 1080q16 45 24 57t19 12q14 0 41 -65q4 -10 178 -448.5t237 -590.5q70 -168 156 -198q27 -10 70 -10q25 0 24.5 -14.5t-39.5 -14.5q-156 0 -293 4q-61 4 -61 14.5t14 14.5q22 10 8 45l-360 946q-12 31 -23 0 l-278 -797q-35 -98 -35 -145q0 -53 68 -53h14q25 0 25 -14.5t-31 -14.5q-25 0 -89.5 3t-72.5 3q-2 0 -71.5 -3t-120.5 -3q-37 0 -37 14.5z" />
<glyph unicode="&#x43c;" horiz-adv-x="1892" d="M84 10q0 12 27 13q16 0 39 2q61 6 77 135l138 1124q6 51 22 51q12 0 31 -32l549 -1063l522 1060q16 35 31 35q16 0 20 -51l129 -1065q20 -164 98 -182q41 -10 105 -14q27 0 26 -13q0 -16 -30 -16q-127 0 -324 12q-61 6 -61 19q0 10 18.5 18t11.5 57l-90 877l-434 -881 q-45 -90 -53 -96q-4 -2 -10 -2q-12 0 -62 88q-14 25 -64 123t-94 186t-51 97q-219 438 -229 464l-76 -788q-2 -29 -2 -78q0 -51 51 -61q4 0 58 -6q20 -2 20 -13q0 -16 -35 -16q-39 0 -103.5 3t-66.5 3q-6 0 -67.5 -3t-89.5 -3q-31 0 -31 16z" />
<glyph unicode="&#x43d;" horiz-adv-x="1732" d="M158 1296q0 14 30 15q51 0 129 -3t84 -3q2 0 37 1t79 3t69 2q31 0 30 -15q0 -12 -20 -12q-18 0 -41 -4q-37 -6 -50 -29.5t-18 -70.5q-2 -55 -2 -371v-37q1 -10 13 -10h741q12 0 12 10v37q0 317 -4 373q-4 47 -18.5 67.5t-61.5 28.5q-29 4 -51 4q-25 0 -24.5 14.5 t28.5 14.5q39 0 90.5 -2t87 -3t37.5 -1t36 1t78 3t71 2q33 0 32.5 -14.5t-22.5 -14.5q-16 0 -41 -4q-39 -6 -51.5 -27.5t-16.5 -70.5q-2 -55 -2 -373v-307q0 -301 8 -375q10 -90 70 -96q39 -6 72 -6q27 0 26.5 -14.5t-30.5 -14.5q-45 0 -100.5 1t-92.5 3t-39 2t-36.5 -1 t-77.5 -3t-68 -2q-31 0 -31 16q0 12 23 13q31 0 47 4q39 6 51 98q10 74 10 369v182q0 12 -12 12h-743q-10 0 -11 -12v-182q0 -299 11 -373q12 -86 69 -92q41 -6 74 -6q25 0 25 -14.5t-27 -14.5q-47 0 -102.5 1t-93.5 3t-40 2t-36.5 -1t-79.5 -3t-68 -2q-33 0 -33 14.5 t23 14.5q25 0 49 6q39 8 51 92q10 61 10 379v303q0 324 -4 379q-6 90 -77 98q-37 4 -56 4q-23 0 -22 12z" />
<glyph unicode="&#x43e;" horiz-adv-x="1658" d="M113 655q0 86 25.5 176.5t81.5 181.5t137 161.5t204 115.5t268 45q311 0 513 -176t202 -477q0 -299 -201.5 -505t-523.5 -206q-180 0 -320.5 62.5t-222 164t-122.5 218t-41 239.5zM303 709q0 -301 154.5 -484.5t412.5 -183.5q51 0 104.5 10t124 48t124 98.5t91.5 173 t38 260.5q0 297 -157 469t-378 172q-227 0 -370.5 -143.5t-143.5 -419.5z" />
<glyph unicode="&#x43f;" horiz-adv-x="1714" d="M158 1298q0 12 28 13q41 0 121 -3t88 -3h914q2 0 42 1t87 3t65 2q27 0 27 -13q0 -16 -21 -18l-32 -4q-39 -6 -54.5 -23.5t-17.5 -72.5q-4 -111 -4 -373v-307q0 -293 6 -365q4 -51 20.5 -74.5t53.5 -29.5q8 -2 71 -8q25 -2 25 -17q0 -12 -23 -12q-39 0 -96 1t-99 3t-46 2 t-76 -3t-107 -3q-29 0 -28 12q0 14 26 17q31 6 35 6q57 12 62 102q8 98 8 377v704q0 12 -10 13q-29 2 -381 2q-299 0 -324 -2q-14 -2 -20 -4t-9.5 -9.5t-3.5 -23.5v-699q0 -244 7 -354q6 -94 71 -104q16 -2 44 -5t32 -3q29 -2 29 -17q0 -12 -35 -12q-33 0 -90.5 1t-101.5 3 t-46 2t-71.5 -3t-102.5 -3t-33 12t21 17q23 2 39 6q59 8 61 118q8 96 8 353v309q0 315 -4 371q-2 47 -20.5 68.5t-59.5 29.5q-8 0 -26.5 1t-26.5 3q-23 2 -22 16z" />
<glyph unicode="&#x440;" horiz-adv-x="1167" d="M162 1294q0 16 28 17q39 0 89.5 -2t86 -3t37.5 -1q16 0 100.5 3t131.5 3q221 0 336 -99q90 -80 90 -229q0 -170 -126 -281.5t-319 -111.5q-29 0 -38 2q-18 0 -18.5 12t9 14.5t41.5 2.5q125 0 211 79.5t86 210.5q0 156 -88 248q-90 96 -254 96q-49 0 -69 -10 q-12 -4 -13 -33v-708q0 -305 9 -379q10 -90 71 -96q49 -8 82 -9q12 0 12 -10q0 -16 -28 -16q-47 0 -102.5 1t-91.5 3t-38 2h-12q-14 -2 -35.5 -3t-44 -1t-47.5 -1t-41 -1q-29 0 -29 16q0 10 15 10q20 0 53 9q43 6 53 96q10 74 10 375v307q0 319 -4 375q-6 84 -77 98 q-29 4 -64 4q-12 0 -12 10z" />
<glyph unicode="&#x441;" horiz-adv-x="1452" d="M113 680q0 106 49 237.5t157 235.5q188 182 551 182q113 0 271 -22q131 -20 180 -23q18 0 18 -20q0 -6 -4 -35t-6 -66q0 -27 -1 -101.5t-3 -86.5q-2 -39 -16 -39q-16 0 -17 39q0 47 -21.5 98t-58.5 80q-49 43 -149 74t-213 31q-262 0 -393 -119q-94 -86 -129 -192.5 t-35 -256.5q0 -258 185.5 -448.5t451.5 -190.5q227 0 313 84q51 53 68 148q6 31 22 30q10 0 10 -28q0 -14 -15 -105.5t-25 -122.5q-8 -25 -16.5 -32.5t-31.5 -18.5q-96 -41 -323 -41q-383 0 -600 187q-219 190 -219 522z" />
<glyph unicode="&#x442;" horiz-adv-x="1253" d="M43 1102q-2 10 41 203q8 33 18 32q6 0 38 -10t53 -12q90 -10 131 -10h671q100 0 148 10q35 8 39 8q12 0 12 -18q0 -35 -2 -121t-2 -88q0 -25 -14.5 -25t-14.5 25q0 8 -2 28q-6 63 -48 83t-193 22q-41 0 -107.5 1t-93.5 1v-731q0 -285 10 -379q4 -31 7 -44.5t16.5 -26.5 t37.5 -19q33 -8 80 -8q25 0 25 -13q0 -16 -27 -16q-47 0 -102 1t-92 3l-39 2q-2 0 -37 -1t-79 -3t-66 -2q-31 0 -31 14.5t22 14.5q29 0 45 2q29 4 38.5 24.5t15.5 75.5q8 74 8 375v731q-176 0 -258 -2q-92 -2 -128 -16.5t-61 -49.5q-14 -23 -30 -63q-6 -16 -19 -17 q-10 0 -10 19z" />
<glyph unicode="&#x443;" horiz-adv-x="1232" d="M-66 1298q0 12 29 12.5t99.5 -2.5t95.5 -3q6 0 73.5 3t104.5 3q27 0 26 -11q0 -16 -28 -20q-51 -4 -51 -29q0 -12 30 -65q12 -20 182.5 -328.5t190.5 -345.5q240 467 322 635q37 76 36 106q0 16 -38 25q-25 2 -25 18q0 12 25 13q14 0 57 -2t67.5 -2t89 3t78.5 3 q31 0 31 -11q0 -14 -31 -18q-41 -2 -65 -12q-37 -12 -59.5 -36t-53.5 -81q-309 -586 -489 -946q-76 -160 -82 -191q0 -16 -12 -18q-18 -4 -299 -4q-33 0 -33 14.5t28 14.5q14 0 43 2q66 4 116 36.5t106 112.5q49 80 86 152q12 20 -2 45q-47 92 -214 387t-225 385 q-47 82 -82.5 107.5t-103.5 29.5q-23 2 -23 18z" />
<glyph unicode="&#x444;" horiz-adv-x="1574" d="M115 682q0 209 144 348t454 152q2 0 2 6q0 88 -11.5 113.5t-52.5 31.5q-12 2 -21 3t-18.5 2t-15.5 1q-18 2 -18 14.5t28 12.5q31 0 109 -2t80 -2t73.5 2t100.5 2q31 0 30 -12q0 -10 -24 -15q-4 0 -10.5 -1t-15.5 -2t-17 -1q-37 -6 -45 -30.5t-10 -118.5q0 -4 2 -4 q289 -14 435 -145.5t146 -350.5q0 -256 -152.5 -397.5t-426.5 -159.5q-2 0 -2 -4q0 -92 13 -121t58 -33q20 -2 40 -3t28 -1q23 -2 22 -14q0 -14 -28 -14q-51 0 -132 3t-85 3q-10 0 -80 -3t-99 -3q-31 0 -30 16q0 12 24 12q31 0 47 2q31 4 43.5 33t12.5 121q0 4 -6 4 q-301 20 -446.5 174t-145.5 381zM293 723q0 -225 107.5 -366.5t310.5 -161.5q6 -2 6 2v921q0 4 -10 4q-219 -14 -316.5 -122.5t-97.5 -276.5zM877 197q0 -4 2 -4q195 8 300 133t105 329q0 436 -403 465q-4 0 -4 -10v-913z" />
<glyph unicode="&#x445;" horiz-adv-x="1224" d="M-31 8.5q0 14.5 23 14.5q20 0 59 8q70 18 150 139l327 494l-290 471q-31 47 -45.5 67.5t-37 40t-51.5 27.5q-37 12 -71 12q-27 0 -27 14.5t31 14.5q29 0 124 -3t97 -3t70.5 3t105.5 3q33 0 33 -13q0 -16 -25 -16q-31 0 -49 -6q-20 -6 -20 -25q0 -20 24 -63 q109 -199 238 -404q49 70 148.5 221.5t109.5 178.5q23 41 22 61q0 29 -36 33q-29 4 -45 4q-25 0 -25 16q0 12 29 13q33 0 71.5 -2t66.5 -3t32 -1q2 0 62 3t99 3q25 0 25 -13q0 -16 -23 -16q-29 0 -65 -10q-10 -2 -19.5 -8.5t-20.5 -15.5t-18.5 -16t-18.5 -22.5t-17 -22.5 t-20.5 -27.5t-18.5 -26.5l-289 -416q10 -14 101.5 -164t177.5 -286t102 -156q18 -25 26.5 -34t30 -24.5t45.5 -21.5q35 -8 56 -8q25 0 24.5 -14.5t-26.5 -14.5q-262 0 -330 4q-23 2 -27 5t-4 13q0 6 21 13q25 6 -2 49q-102 182 -301 508l-277 -451q-31 -53 -31 -76 q0 -29 37 -34q12 -2 25 -2q25 0 24.5 -14.5t-22.5 -14.5q-25 0 -100.5 3t-79.5 3t-31 -1t-62.5 -3t-64.5 -2q-27 0 -27 14.5z" />
<glyph unicode="&#x446;" horiz-adv-x="1738" d="M158 1294q0 16 30 17q39 0 90.5 -2t86.5 -2l36 -2q2 0 37 1t79 3t69 2q31 0 30 -17q0 -12 -20 -12q-8 0 -15.5 -1t-12.5 -2t-13 -1q-41 -4 -52 -26.5t-16 -73.5q-2 -55 -2 -371v-270q0 -340 7 -428q2 -23 18 -23q37 -4 176 -4h227q248 0 314 4q8 0 8 12v709q0 319 -4 375 q-4 47 -18.5 68.5t-63.5 27.5q-25 4 -59 4q-14 0 -15 12q0 16 31 17q39 0 90 -2t86 -2l35 -2q2 0 37 1t78 3t69 2q31 0 31 -17q0 -12 -14 -12h-7q-6 -2 -18 -3t-20 -1q-27 -2 -42.5 -16.5t-19.5 -32t-6 -49.5q-2 -56 -2 -373v-305q0 -336 2 -391q0 -20 14 -21q178 0 240 8 q10 2 13 -1t1 -13q-25 -115 -24 -201q0 -35 -13 -35q-14 0 -18 29q-8 55 -30.5 84t-76.5 33q-160 6 -313 6h-801q-8 0 -71.5 -3t-102.5 -3q-35 0 -35 12t25 17q41 6 45 6q47 10 53 123q6 166 6 344v311q0 317 -4 373q-4 43 -20.5 66.5t-59.5 31.5q-29 4 -53 4q-23 0 -22 12z " />
<glyph unicode="&#x447;" horiz-adv-x="1398" d="M69.5 1300.5q0.5 10.5 34.5 10.5q41 0 105.5 -3t73.5 -3q12 0 87.5 3t98.5 3q29 0 29 -12.5t-31 -14.5q-49 -4 -70.5 -23.5t-23.5 -82.5q-2 -59 -2 -207q0 -145 85 -219t228 -74q150 0 229 35v127q0 287 -4 342q-2 31 -8 49t-22.5 32.5t-47.5 16.5q-33 4 -55 4 q-20 0 -20 10q0 16 30 17q39 0 89.5 -2t85.5 -2l34 -2q2 0 37 1t78 3t70 2q31 0 30 -15q0 -12 -16 -12q-37 -4 -49 -6q-35 -6 -45 -27.5t-15 -70.5q-4 -111 -4 -373v-307q0 -301 9 -375q10 -90 71 -96q37 -6 74 -6q23 0 22 -13q0 -16 -30 -16q-47 0 -101.5 1t-91.5 3t-39 2 t-37.5 -1t-79.5 -3t-69 -2q-29 0 -29 16q0 12 23 13q14 0 47 4q29 2 40 23.5t15 74.5q8 98 8 377v151q-106 -49 -286 -49q-246 0 -351 119q-72 80 -71 272q0 164 -2 193q-4 49 -16.5 68.5t-49.5 25.5q-25 0 -43 2q-25 6 -24.5 16.5z" />
<glyph unicode="&#x448;" horiz-adv-x="2240" d="M158 1294q0 16 30 17q39 0 90.5 -2t86.5 -2l36 -2q2 0 36 1t76 3t67 2q31 0 30 -17q0 -12 -14 -12q-4 0 -10 -1t-15.5 -2t-19.5 -1q-61 -14 -66 -100q-4 -55 -4 -365v-268q0 -383 6 -434q2 -16 7.5 -20.5t17.5 -4.5q37 -4 487 -4q20 0 29 29q10 41 10 360v336 q0 317 -2 373q-6 84 -82 98q-29 4 -51 4t-22 14.5t30 14.5q39 0 89.5 -2t84.5 -2l33 -2q2 0 37 1t79 3t69 2q31 0 30 -19q0 -10 -14 -10l-45 -4q-63 -14 -68 -94q-2 -55 -2 -377v-336q0 -315 6 -365q8 -25 33 -24h477q29 0 29 33q12 94 12 411v281q0 319 -6 375 q-4 43 -20.5 65.5t-59.5 30.5q-25 4 -53 4q-23 0 -23 12q0 16 33 17q39 0 89.5 -2t84.5 -2l33 -2q2 0 36 1t77 3t69 2q31 0 31 -15q0 -12 -22 -12q-25 0 -39 -2q-59 -8 -64 -102q-4 -56 -4 -373v-307q0 -301 8 -375q10 -90 72 -96q25 -4 74 -9q23 -4 22 -12q0 -14 -28 -14 q-47 0 -102.5 1t-92.5 3l-37 2h-1442q-2 0 -35.5 -1t-76.5 -3t-68 -2q-29 0 -29 14.5t23 14.5q31 0 47 4q37 6 49 94q10 61 10 379v305q0 319 -4 375q-4 43 -20.5 66.5t-59.5 31.5q-29 4 -61 4q-14 0 -14 12z" />
<glyph unicode="&#x449;" horiz-adv-x="2258" d="M158 1294q0 16 30 17q39 0 90.5 -2t86.5 -2l36 -2q2 0 36 1t76 3t67 2q31 0 30 -17q0 -12 -14 -12q-4 0 -10 -1t-15.5 -2t-19.5 -1q-61 -14 -66 -100q-4 -55 -4 -365v-268q0 -383 6 -434q2 -16 7.5 -20.5t17.5 -4.5q37 -4 487 -4q20 0 29 29q10 41 10 360v336 q0 317 -2 373q-6 84 -82 98q-29 4 -51 4t-22 14.5t30 14.5q39 0 89.5 -2t84.5 -2l33 -2q2 0 37 1t79 3t69 2q31 0 30 -19q0 -10 -14 -10l-45 -4q-63 -14 -68 -94q-2 -55 -2 -377v-336q0 -315 6 -365q8 -25 33 -24h477q29 0 29 33q12 94 12 411v281q0 319 -6 375 q-4 43 -20.5 65.5t-59.5 30.5q-25 4 -53 4q-23 0 -23 12q0 16 33 17q39 0 89.5 -2t84.5 -2l33 -2q2 0 36 1t77 3t69 2q31 0 31 -15q0 -12 -22 -12q-25 0 -39 -2q-59 -8 -64 -102q-4 -55 -4 -373v-307q0 -334 2 -389q0 -20 14 -21q178 0 240 8q10 2 13 -1t1 -13 q-25 -115 -24 -201q0 -35 -12 -35q-14 0 -19 31q-8 59 -29.5 85t-76.5 30q-160 6 -314 6h-1321q-2 0 -35.5 -1t-76.5 -3t-68 -2q-29 0 -29 14.5t23 14.5q31 0 47 4q37 6 49 94q10 61 10 379v305q0 319 -4 375q-4 43 -20.5 66.5t-59.5 31.5q-29 4 -61 4q-14 0 -14 12z" />
<glyph unicode="&#x44a;" horiz-adv-x="1392" d="M43 1116q0 8 18.5 87t22.5 100q6 35 20 34q4 0 33 -12q49 -20 205 -20h213q2 0 36 1t78 3t68 2q31 0 31 -17q0 -10 -14 -10q-6 0 -11.5 -1t-15.5 -2t-18 -1q-61 -14 -68 -100q-4 -55 -4 -373v-45q0 -8 8 -8h43q250 0 381 -64q199 -104 199 -321q0 -139 -117 -259 t-330 -120q-39 0 -140 5t-124 5q-2 0 -35 -1t-77 -3t-68 -2q-29 0 -29 14.5t23 14.5q29 0 47 4q41 6 51 92q8 49 8 381v307q0 369 -4 424h-180q-150 0 -191 -62q-18 -29 -30 -55q-8 -18 -20.5 -18t-8.5 20zM637 565q0 -313 4 -393q2 -66 51 -90q55 -29 156 -29 q113 0 180.5 70t67.5 205q0 186 -127 288q-102 80 -324 74q-8 0 -8 -8v-117z" />
<glyph unicode="&#x44b;" horiz-adv-x="1882" d="M184 1296.5q0 14.5 31 14.5q27 0 70 -2t75.5 -3t34.5 -1t37 1t80 3t70 2q27 0 26 -17q0 -12 -20 -12q-27 0 -45 -4q-33 -8 -45.5 -29.5t-16.5 -68.5q-4 -55 -4 -373v-45q0 -8 8 -8h43q250 0 381 -64q199 -104 199 -321q0 -139 -117 -259t-329 -120q-39 0 -140.5 5 t-124.5 5q-2 0 -34.5 -1t-76.5 -3t-69 -2q-29 0 -29 14q0 12 23 12q29 0 47 5q37 6 49 100q10 61 10 375v307q0 319 -4 375q-6 84 -59 94q-29 6 -47 6q-23 0 -23 14.5zM477 569q0 -322 4 -401q2 -66 51 -90q68 -29 156 -29q113 0 181.5 70.5t68.5 208.5q0 190 -127 293 q-104 80 -326 73q-8 0 -8 -8v-117zM1263.5 8.5q0.5 14.5 26.5 14.5q25 0 49 6q37 8 47 98q11 74 11 373v307q0 319 -4 375q-6 84 -60 94q-12 2 -27.5 4t-19.5 2q-23 4 -22 14q0 14 30 15q29 0 74 -2t78 -2l35 -2q2 0 36.5 1t78.5 3t69 2q31 0 31 -15q0 -12 -23 -14 q-6 -2 -18.5 -3t-18.5 -1q-29 -4 -44 -17.5t-19 -30t-6 -50.5q-2 -29 -2 -373v-307q0 -315 8 -375q6 -47 18.5 -66.5t50.5 -27.5q35 -8 78 -8q23 -2 23 -15q0 -14 -29 -14q-47 0 -102.5 1t-92 3t-38.5 2t-36 -1t-79 -3t-70 -2q-33 0 -32.5 14.5z" />
<glyph unicode="&#x44c;" horiz-adv-x="1232" d="M184 1296.5q0 14.5 31 14.5q27 0 70 -2t75.5 -3t34.5 -1t37 1t80 3t70 2q27 0 26 -17q0 -12 -20 -12q-27 0 -45 -4q-33 -8 -45.5 -29.5t-16.5 -68.5q-4 -55 -4 -373v-45q0 -8 8 -8h43q250 0 381 -64q199 -104 199 -321q0 -139 -117 -259t-329 -120q-39 0 -140.5 5 t-124.5 5q-2 0 -34.5 -1t-76.5 -3t-69 -2q-29 0 -29 14q0 12 23 12q29 0 47 5q37 6 49 100q10 61 10 375v307q0 319 -4 375q-6 84 -59 94q-29 6 -47 6q-23 0 -23 14.5zM477 569q0 -322 4 -401q2 -66 51 -90q68 -29 156 -29q113 0 181.5 70.5t68.5 208.5q0 190 -127 293 q-104 80 -326 73q-8 0 -8 -8v-117z" />
<glyph unicode="&#x44d;" horiz-adv-x="1421" d="M111 287q0 26 12 26q14 0 20 -28q12 -82 64 -135q102 -96 330 -97q315 0 451 154.5t142 431.5q0 12 -10 12q-371 0 -616 -8q-61 -4 -85 -27.5t-34 -76.5q-2 -25 -14 -25q-14 0 -15 21q0 4 5.5 69.5t5.5 91.5q0 25 -2.5 52.5t-2.5 31.5q0 16 13 17q8 0 14 -15 q10 -29 31.5 -40t81.5 -13q82 -4 614 -4q10 0 10 12q-8 246 -159 383q-150 145 -418 146q-223 0 -318 -76q-63 -53 -69 -182q0 -29 -19 -29q-14 0 -14 29q0 152 -2 180q-2 27 -3 47t-1 29q0 18 18 18q27 4 53.5 9t61.5 11.5t59 10.5q113 23 265 22q350 0 546 -182 q182 -168 183 -473q0 -328 -228 -526q-113 -96 -249 -139.5t-332 -43.5q-201 0 -312 43q-37 16 -45 49q-33 135 -32 224z" />
<glyph unicode="&#x44e;" horiz-adv-x="2291" d="M184 1296q0 14 31 15q29 0 72 -2t74.5 -3t33.5 -1t37 1t79 3t69 2q29 0 28 -17q0 -10 -20 -10q-4 0 -37 -4q-61 -8 -68 -100q-4 -111 -4 -363v-41q0 -10 10 -10h310q12 0 12 10q43 244 219 401.5t465 157.5q207 0 367.5 -102.5t238.5 -249.5t78 -305q0 -311 -185.5 -509 t-500.5 -198q-158 0 -291 58.5t-219 157t-134 223.5t-46 260q0 10 -12 10h-302q-10 0 -10 -10v-170q0 -301 8 -375q10 -88 76 -96q35 -6 68 -6q25 0 24 -13q0 -16 -26 -16q-47 0 -102.5 1t-92.5 3l-39 2q-2 0 -34.5 -1t-75.5 -3t-68 -2q-29 0 -29 16q0 12 23 13q18 0 43 6 q43 8 53 96q10 61 10 375v307q0 319 -4 375q-6 84 -61 96q-27 6 -49 6q-18 0 -19 12zM981 707q0 -301 150.5 -483.5t388.5 -182.5q63 0 123.5 14.5t126 54.5t112.5 103t79 171t32 245q0 281 -145.5 459t-375 178t-360.5 -152.5t-131 -406.5z" />
<glyph unicode="&#x44f;" horiz-adv-x="1341" d="M-147 12q0 10 30 11q33 0 60 2q61 4 107 31.5t106 97.5q82 98 194 241q4 6 31 40t38 48.5t33.5 40t41 43t36.5 29.5q-131 51 -195.5 144.5t-64.5 201.5q0 190 168 295q113 74 312 74q47 0 109.5 -3t80.5 -3q8 0 79 3t103 3q31 0 31 -14.5t-20 -14.5q-10 0 -39 -4 q-61 -8 -66 -98q-4 -55 -4 -373v-307q0 -301 8 -375q10 -80 72 -94q35 -8 72 -8q25 0 24.5 -14.5t-26.5 -14.5q-47 0 -102.5 1t-92.5 3t-39 2t-36 -1t-77 -3t-67 -2q-31 0 -31 14.5t25 14.5q27 0 43 4q41 8 53 98q10 61 10 369v55q0 12 -12 12q-94 0 -148 4q-23 0 -28 -4 q-16 -6 -39 -33q-20 -23 -176 -235q-102 -154 -183 -223q-53 -45 -112.5 -61.5t-181.5 -14.5l-93 2q-35 0 -34 16zM440 934q0 -141 100.5 -224t245.5 -83q47 0 62 6q12 4 12 22v562q0 14 -10 18q-33 10 -100 10q-147 0 -228.5 -77.5t-81.5 -233.5z" />
<glyph unicode="&#x450;" horiz-adv-x="1110" d="M160 1294q0 16 30 17q18 0 84 -2t127 -4q375 0 416 2q61 2 80 10q18 6 23 6q8 0 8 -14q0 -4 -7.5 -34t-9.5 -58q-6 -88 -6 -107q0 -31 -14 -31t-14 23q-2 39 -15 65q-10 33 -34.5 45.5t-98.5 16.5q-53 4 -233 4q-10 0 -11 -16v-465q0 -20 13 -21q211 0 276 6q74 4 94 31 q10 16 23 16q8 0 8 -12q0 -4 -2 -18.5t-6 -40t-6 -49.5q-4 -35 -6 -79t-2 -46q-2 -23 -14.5 -23t-12.5 27q0 25 -6 49q-16 55 -99 61q-94 8 -245 9q-14 0 -15 -15v-149v-88v-122v-69q4 -61 15.5 -91t42.5 -42q39 -18 149 -18q113 0 156 12t60.5 42t31.5 93q6 29 18.5 29 t12.5 -31q0 -51 -23 -178q-6 -31 -22.5 -38t-67.5 -7q-76 0 -155.5 2t-108.5 2q-215 6 -242 6q-23 0 -66.5 -3t-68.5 -3q-29 0 -29 14.5t18.5 14.5t41.5 6q31 6 47 39.5t18 121.5q4 140 4 310v307q0 317 -4 373q-4 45 -19 67.5t-58 30.5q-25 4 -50 4q-27 0 -26 12zM254 1681 q0 10 20 17q55 25 95 31q16 2 23 -1.5t26 -21.5q8 -8 56 -59.5t95 -97.5t86 -79q17 -14 17 -24q0 -4 -10 -4q-25 0 -160 75.5t-219 133.5q-31 25 -29 30z" />
<glyph unicode="&#x451;" horiz-adv-x="1110" d="M160 1294q0 16 30 17q18 0 84 -2t127 -4q375 0 416 2q61 2 80 10q18 6 23 6q8 0 8 -14q0 -4 -7.5 -34t-9.5 -58q-6 -88 -6 -107q0 -31 -14 -31t-14 23q-2 39 -15 65q-10 33 -34.5 45.5t-98.5 16.5q-53 4 -233 4q-10 0 -11 -16v-465q0 -20 13 -21q211 0 276 6q74 4 94 31 q10 16 23 16q8 0 8 -12q0 -4 -2 -18.5t-6 -40t-6 -49.5q-4 -35 -6 -79t-2 -46q-2 -23 -14.5 -23t-12.5 27q0 25 -6 49q-16 55 -99 61q-94 8 -245 9q-14 0 -15 -15v-149v-88v-122v-69q4 -61 15.5 -91t42.5 -42q39 -18 149 -18q113 0 156 12t60.5 42t31.5 93q6 29 18.5 29 t12.5 -31q0 -51 -23 -178q-6 -31 -22.5 -38t-67.5 -7q-76 0 -155.5 2t-108.5 2q-215 6 -242 6q-23 0 -66.5 -3t-68.5 -3q-29 0 -29 14.5t18.5 14.5t41.5 6q31 6 47 39.5t18 121.5q4 140 4 310v307q0 317 -4 373q-4 45 -19 67.5t-58 30.5q-25 4 -50 4q-27 0 -26 12zM276 1581 q0 31 20.5 55.5t59.5 24.5q35 0 56.5 -21.5t21.5 -54.5q0 -37 -21.5 -60.5t-58.5 -23.5q-39 0 -58.5 24.5t-19.5 55.5zM731 1581q0 29 21.5 54.5t60.5 25.5q35 0 56.5 -21.5t21.5 -54.5q0 -37 -21.5 -60.5t-58.5 -23.5q-39 0 -59.5 24.5t-20.5 55.5z" />
<glyph unicode="&#x452;" horiz-adv-x="1511" d="M43 1114q0 6 11.5 55.5t23.5 100.5t12 55q6 12 12.5 12t14.5 -2t25.5 -8t37.5 -10q55 -12 144 -12h708q78 0 154 10q10 2 23.5 4t20.5 3t11 1q10 0 10 -18q0 -33 -3 -116t-3 -87q0 -23 -12 -23q-16 0 -19 25q0 4 -1 13t-1 11q-12 94 -239 99h-67h-106.5h-125.5v-500 q102 33 254 33q238 0 349.5 -130t111.5 -317q0 -92 -31 -175t-72 -137t-93 -99t-86 -65.5t-58 -31.5q-37 -16 -37 5q0 10 22 24q184 121 185 426q0 109 -33 201t-121 160.5t-221 68.5q-104 0 -170 -16v-174q0 -299 10 -373q12 -92 74 -98q37 -6 69 -6q23 0 23 -14.5 t-27 -14.5q-47 0 -102 1t-92 3l-37 2q-2 0 -38 -1t-80 -3t-68 -2q-29 0 -29 14.5t20 14.5q33 0 49 4q25 6 34 28.5t18 71.5q8 74 8 371v729q-158 0 -213 -2q-154 0 -193 -56q-14 -20 -28 -53q-8 -18 -18.5 -18t-10.5 16z" />
<glyph unicode="&#x453;" horiz-adv-x="1021" d="M158 1296q0 14 30 15q37 0 107 -3t102 -3q406 0 449 2q72 4 94 12q8 4 16 4q10 0 7 -16l-11 -52q-10 -63 -10 -145q0 -33 -14.5 -33t-14.5 19q-2 72 -41 104q-45 27 -108 29q-176 4 -260 4q-19 -1 -19 -19v-714q0 -262 4 -344q4 -72 19.5 -97.5t60.5 -29.5q14 -2 41 -4 t31 -2q23 -2 23 -15q0 -14 -25 -14q-47 0 -105.5 1t-97.5 3l-39 2h-14q-117 -6 -166 -6q-29 0 -29 16q0 10 23 13q35 4 43 6q29 8 41 31.5t14 78.5q8 100 8 361v307q0 317 -4 373q-4 45 -18 66.5t-57 31.5q-20 4 -54 4q-27 4 -26 14zM506 1452q0 10 14 25q199 207 217 221 q41 35 54 35q20 -1 34 -13q45 -37 68 -71q16 -25 -6 -25q-2 0 -15.5 -3t-31 -8t-29.5 -11q-119 -55 -262 -142l-6 -2q-6 -4 -11.5 -7t-11.5 -5t-10 -1t-4 7z" />
<glyph unicode="&#x454;" horiz-adv-x="1439" d="M113 672q0 291 196 477q201 186 557 186q145 0 269 -22q133 -25 180 -25q12 0 12 -18q0 -4 -2 -18.5t-4 -38t-4 -46.5q0 -27 -1 -90t-3 -80q-2 -37 -16.5 -36.5t-16.5 36.5q-2 63 -16.5 98t-49.5 68q-129 100 -366 101q-268 0 -408 -127q-141 -131 -145 -389 q0 -14 14 -15q547 0 654 4q86 2 104 35q10 16 23 16q6 0 6 -14q0 -6 -6.5 -40t-8.5 -56q-6 -45 -6 -131q0 -31 -10 -31q-12 0 -16 23q-4 39 -10.5 58t-29 37.5t-61.5 20.5q-92 6 -641 7q-14 0 -14 -19q2 -98 44 -198.5t117.5 -188.5t201.5 -143.5t278 -55.5q213 0 299 76 q45 43 65 143q7 31 21 31q10 0 10 -22q0 -86 -33 -222q-12 -37 -49 -53q-96 -39 -321 -39q-377 0 -588 183q-225 193 -225 518z" />
<glyph unicode="&#x455;" horiz-adv-x="1048" d="M188 86q0 78 9 193q4 29 16 28q14 0 14 -20q0 -37 6 -62q18 -94 93 -139t174 -45q119 0 185.5 66.5t66.5 152.5t-44 151.5t-159 157.5l-82 64q-139 111 -188.5 199t-49.5 188q0 141 103.5 228t275.5 87q94 0 166 -16q49 -10 70 -10q18 0 18 -13l-2 -26q-2 -25 -4 -72 t-2 -100q0 -43 -14 -43q-10 0 -15 22q-6 63 -24 97q-53 96 -230 96q-94 0 -154.5 -53.5t-60.5 -143.5q0 -72 45 -129t174 -156l48 -36q154 -119 211 -211t57 -207q0 -72 -36 -153t-120 -138q-112 -72 -276 -72q-143 0 -244 45q-18 8 -22.5 19.5t-4.5 50.5z" />
<glyph unicode="&#x456;" horiz-adv-x="802" d="M184 8.5q0 14.5 27 14.5q25 0 49 6q37 8 47 98q10 74 10 373v307q0 319 -4 375q-6 84 -59 94q-12 2 -27.5 4t-19.5 2q-23 4 -23 14q0 14 31 15q29 0 74 -2t80 -2l32 -2q2 0 37 1t79 3t69 2q31 0 30 -15q0 -12 -22 -14q-6 -2 -18.5 -3t-18.5 -1q-29 -4 -44 -17.5 t-19.5 -30t-6.5 -50.5q-2 -29 -2 -373v-307q0 -315 9 -375q6 -47 18 -66.5t51 -27.5q35 -8 78 -8q23 -2 23 -15q0 -14 -29 -14q-47 0 -102.5 1t-92.5 3t-39 2t-35.5 -1t-78.5 -3t-70 -2q-33 0 -33 14.5z" />
<glyph unicode="&#x457;" horiz-adv-x="802" d="M94 1575q0 31 20.5 55.5t59.5 24.5q35 0 56.5 -21.5t21.5 -54.5q0 -37 -21.5 -60.5t-58.5 -23.5q-39 0 -58.5 24.5t-19.5 55.5zM184 8.5q0 14.5 27 14.5q25 0 49 6q37 8 47 98q10 74 10 373v307q0 319 -4 375q-6 84 -59 94q-12 2 -27.5 4t-19.5 2q-23 4 -23 14 q0 14 31 15q29 0 74 -2t80 -2l32 -2q2 0 37 1t79 3t69 2q31 0 30 -15q0 -12 -22 -14q-6 -2 -18.5 -3t-18.5 -1q-29 -4 -44 -17.5t-19.5 -30t-6.5 -50.5q-2 -29 -2 -373v-307q0 -315 9 -375q6 -47 18 -66.5t51 -27.5q35 -8 78 -8q23 -2 23 -15q0 -14 -29 -14q-47 0 -102.5 1 t-92.5 3t-39 2t-35.5 -1t-78.5 -3t-70 -2q-33 0 -33 14.5zM549 1575q0 29 21.5 54.5t60.5 25.5q35 0 56.5 -21.5t21.5 -54.5q0 -37 -21.5 -60.5t-58.5 -23.5q-39 0 -59.5 24.5t-20.5 55.5z" />
<glyph unicode="&#x458;" horiz-adv-x="761" d="M55 -436q0 8 27 26q29 14 57 43q70 68 103.5 125.5t56.5 189.5t23 359v500q0 317 -5 373q-4 43 -21 65.5t-58 32.5q-25 4 -62 4q-14 0 -14 12q0 16 31 17q39 0 89 -2t87 -2l34 -2q2 0 37 1t80 3t70 2q29 0 28 -17q0 -12 -12 -12q-2 0 -47 -4q-61 -14 -67 -100 q-5 -56 -5 -371v-391q0 -184 -2 -252t-13 -146.5t-40 -142.5q-53 -125 -278 -276q-10 -4 -36 -21.5t-36 -21.5q-2 -2 -12 -2q-14 0 -15 10z" />
<glyph unicode="&#x459;" horiz-adv-x="1789" d="M-53.5 8.5q0.5 14.5 26.5 14.5q20 0 39 2q59 6 94 48t64 113l416 1082q27 68 43 67q14 0 37 -55q0 -2 215 -543q152 14 237 15q223 0 348 -66q98 -49 148.5 -132t50.5 -179q0 -152 -115.5 -266.5t-324.5 -114.5q-186 0 -273 6q-25 2 -24.5 12.5t16.5 16.5q37 6 27 30 l-377 975q-4 14 -10 0q-82 -225 -299 -848q-27 -70 -27 -106q0 -31 14.5 -44t59.5 -13h12q25 0 25 -14.5t-27 -14.5q-25 0 -82 3t-65 3q-2 0 -85 -3t-135 -3q-29 0 -28.5 14.5zM907 676q119 -299 197 -486q35 -84 64.5 -109.5t82.5 -25.5q100 0 168 67.5t68 207.5 q0 190 -131 280q-102 74 -320 74q-23 0 -129 -8z" />
<glyph unicode="&#x45a;" horiz-adv-x="2068" d="M157.5 1296.5q0.5 14.5 30.5 14.5q39 0 90.5 -2t86.5 -2l36 -2q2 0 38 1t81 3t68 2q27 0 26.5 -14.5t-22.5 -14.5q-18 0 -33 -2q-37 -4 -53.5 -24.5t-18.5 -76t-2 -372.5v-35q0 -10 11 -10h647q10 0 10 10v35q0 319 -4 375q-4 84 -59 96q-20 4 -50 4q-20 0 -20 12 q0 16 31 17q29 0 71.5 -2t75.5 -2l33 -2q2 0 37 1t78 3t67 2q31 0 31 -15q0 -10 -17 -14q-6 0 -18 -1t-25 -3q-29 -4 -43 -18.5t-18 -31t-6 -48.5q-2 -55 -2 -408q0 -10 6 -10h43q258 0 385 -70q197 -100 197 -323q0 -139 -118 -259t-333 -120q-41 0 -139.5 5t-120.5 5 q-2 0 -37 -1t-78 -3t-67 -2q-29 0 -29 16q0 12 23 13q29 0 47 4q47 8 53 92q6 94 6 381v184q0 10 -10 10h-647q-10 0 -11 -10v-190q0 -299 9 -373q6 -29 10 -44.5t19.5 -30.5t41.5 -17q41 -6 74 -6q25 0 25 -14.5t-31 -14.5q-45 0 -100.5 1t-92.5 3t-39 2t-36.5 -1t-78.5 -3 t-69 -2q-29 0 -29 16q0 12 25 13q27 0 43 4q41 6 53 92q8 59 8 381v305q0 322 -4 377q-4 43 -20.5 65.5t-59.5 30.5q-29 4 -53 4q-23 0 -22.5 14.5zM1315 569q0 -319 2 -401q2 -66 43 -84q61 -35 166 -35q113 0 178 72t65 209q0 188 -124 291q-106 80 -324 73q-6 0 -6 -8 v-117z" />
<glyph unicode="&#x45b;" horiz-adv-x="1525" d="M43 1112q0 6 9 51t20.5 91t11.5 51q6 33 18 32q6 0 33 -9t58 -13q72 -10 131 -10h708q102 0 154 10q16 2 34.5 5t20.5 3q10 0 10 -18q0 -33 -3 -117t-3 -88q0 -23 -12 -23q-16 0 -16 31q0 4 -1.5 14.5t-1.5 12.5q-6 51 -48 65t-187 23q-94 6 -305 6v-506q131 39 280 39 q223 0 326 -125q74 -94 74 -246q4 -190 6 -266q8 -86 74 -96q33 -6 71 -6q25 0 25 -13q0 -16 -31 -16q-45 0 -100.5 1t-91.5 3l-39 2q-2 0 -35 -1t-75 -3t-68 -2q-31 0 -31 14.5t22 14.5q27 0 47 2q40 2 52 96q6 55 6 274q0 150 -84 222.5t-232 72.5q-129 0 -196 -26v-164 q0 -301 10 -375q10 -90 72 -96q49 -8 80 -9q14 0 14 -12q0 -14 -31 -14q-47 0 -101 1t-91 3l-35 2q-2 0 -38 -1t-80 -3t-68 -2q-29 0 -29 14q0 12 12 12q23 0 55 9q39 8 54 96q8 74 8 373v731q-125 0 -213 -2q-150 -2 -191 -60q-12 -18 -30 -53q-8 -18 -18.5 -18t-10.5 16z " />
<glyph unicode="&#x45c;" horiz-adv-x="1409" d="M184 8.5q0 14.5 27 14.5q25 0 49 6q37 8 47 98q10 74 10 373v307q0 319 -4 375q-6 84 -59 94q-12 2 -27.5 4t-19.5 2q-23 4 -23 14q0 14 31 15q29 0 74 -2t80 -2l32 -2q2 0 37 1t79 3t69 2q31 0 30 -15q0 -12 -22 -14q-6 -2 -18.5 -3t-18.5 -1q-29 -4 -44 -17.5 t-19.5 -30t-6.5 -50.5q-2 -29 -2 -373v-96q246 219 410 397q74 82 90 103.5t16 37.5q0 23 -32 33q-23 6 -23 16q0 12 21 13q4 0 25.5 -2t53 -3t60.5 -1q35 0 113.5 3t87.5 3q33 0 32 -13q0 -14 -22 -16q-59 -4 -100 -20q-35 -12 -67 -36t-116 -99.5t-233.5 -217 t-184.5 -174.5q319 -330 529 -520q174 -160 295 -186q10 -2 47 -6q29 -4 29 -16.5t-33 -12.5h-133q-115 0 -166 15.5t-117 60.5q-68 49 -263.5 247.5t-318.5 344.5v-162q0 -315 9 -375q6 -47 18 -66.5t51 -27.5q35 -8 78 -8q23 -2 23 -15q0 -14 -29 -14q-47 0 -102.5 1 t-92.5 3t-39 2t-35.5 -1t-78.5 -3t-70 -2q-33 0 -33 14.5zM657 1473q0 10 15 24q199 207 217 221q41 35 53 35q20 0 35 -12q45 -37 67 -72q16 -25 -6 -24q-2 0 -15 -3.5t-30.5 -8.5t-29.5 -11q-122 -55 -263 -141l-6 -2q-6 -4 -11 -7.5t-11 -5.5t-10.5 -1t-4.5 8z" />
<glyph unicode="&#x45d;" horiz-adv-x="1685" d="M98 1296q0 14 39 15q31 0 114 -3t93 -3q35 0 98.5 3t87.5 3q33 0 33 -13q0 -14 -24 -16q-8 0 -22.5 -1t-24.5 -3q-37 -6 -51.5 -39t-14.5 -137l-4 -883q797 942 854 1008q94 111 121 110q12 0 17 -10t8 -45t3 -104q4 -618 9 -963q2 -104 16 -141t59 -43q16 -4 76 -8 q25 -4 25 -16.5t-29 -12.5q-37 0 -146.5 3t-119.5 3q-20 0 -76.5 -3t-91.5 -3q-29 0 -29 12t29 14q41 6 49 9q39 8 50 58t14 161q4 154 5 443.5t3 404.5q-844 -1006 -916 -1080q-47 -45 -69 -45q-14 0 -19.5 15.5t-5.5 64.5q0 88 1 296t1 390.5t-2 331.5q-2 135 -17.5 170 t-64.5 39q-10 0 -30.5 1t-28.5 3q-18 2 -19 14zM549 1686q0 10 20 16q55 25 95 31q16 2 23 -1t26 -22q8 -8 56 -59.5t95 -97.5t86 -78q17 -15 17 -25q0 -4 -11 -4q-25 0 -159.5 75.5t-218.5 133.5q-31 25 -29 31z" />
<glyph unicode="&#x45e;" horiz-adv-x="1232" d="M-66 1298q0 12 29 12.5t99.5 -2.5t95.5 -3q6 0 73.5 3t104.5 3q27 0 26 -11q0 -16 -28 -20q-51 -4 -51 -29q0 -12 30 -65q12 -20 182.5 -328.5t190.5 -345.5q240 467 322 635q37 76 36 106q0 16 -38 25q-25 2 -25 18q0 12 25 13q14 0 57 -2t67.5 -2t89 3t78.5 3 q31 0 31 -11q0 -14 -31 -18q-41 -2 -65 -12q-37 -12 -59.5 -36t-53.5 -81q-309 -586 -489 -946q-76 -160 -82 -191q0 -16 -12 -18q-18 -4 -299 -4q-33 0 -33 14.5t28 14.5q14 0 43 2q66 4 116 36.5t106 112.5q49 80 86 152q12 20 -2 45q-47 92 -214 387t-225 385 q-47 82 -82.5 107.5t-103.5 29.5q-23 2 -23 18zM322 1632q0 8 8 25q14 18 34.5 34.5t28.5 16.5q10 0 13 -8q10 -53 84.5 -95t199.5 -42q193 0 305 129q14 14 25 14q4 0 5 -3t-1 -9t-6 -15q-68 -94 -174.5 -146t-227.5 -52q-150 0 -237 65q-57 45 -57 86z" />
<glyph unicode="&#x45f;" horiz-adv-x="1720" d="M158 1294q0 16 30 17q39 0 90.5 -2t86.5 -2l36 -2q2 0 37 1t79 3t69 2q31 0 30 -17q0 -12 -14 -12q-2 0 -47 -4q-61 -14 -68 -98q-2 -55 -2 -369v-274q0 -340 7 -428q2 -20 22 -23q37 -4 172 -4h227q276 0 297 4q18 2 19 18q6 55 6 406v297q0 319 -4 375 q-4 47 -18.5 68.5t-61.5 27.5q-29 4 -55 4q-20 0 -21 12q0 16 27 17q39 0 90 -2t88 -2l37 -2q2 0 38 1t80 3t66 2q31 0 31 -15q0 -12 -19 -14q-8 0 -20 -2t-20 -2q-27 -2 -42.5 -16.5t-19.5 -32t-6 -49.5q-2 -56 -2 -373v-305q0 -303 8 -377q10 -88 70 -94q18 -4 75 -8 q20 -2 21 -15q0 -14 -25 -14q-47 0 -102 1t-93 3t-40 2h-324q-37 0 -55 -29q-43 -59 -55 -202q-2 -39 -18.5 -39t-18.5 39q-10 154 -58 208q-23 23 -61 23h-328q-12 0 -74.5 -3t-101.5 -3q-35 0 -35 14.5t25 14.5q33 0 51 4q29 6 38 34.5t13 90.5q2 55 2 344v311 q0 319 -4 375q-4 43 -20.5 65.5t-59.5 30.5q-29 4 -61 4q-14 0 -14 12z" />
<glyph unicode="&#x462;" horiz-adv-x="1642" d="M51 1139q0 33 45 213q12 39 21 39q4 0 31.5 -10.5t58.5 -14.5q76 -10 162 -10h235q0 117 -4 149q-6 100 -72 115q-31 8 -63 8q-16 0 -16 12q0 16 32 17q31 0 78 -1t83 -3t38 -2t40 2t86 3t75 1q33 0 32 -17q0 -12 -16 -12q-14 0 -51 -6q-41 -8 -56.5 -34.5t-19.5 -82.5 q0 -8 -1 -74.5t-1 -74.5h418q90 0 145 10q12 2 25.5 4t20.5 4t12 2q10 0 10 -24q0 -35 -3 -127t-3 -99q0 -27 -14.5 -26.5t-16.5 35.5q0 4 -1 11t-1 11q-10 109 -252 113q-66 4 -340 4v-379q0 -10 8 -10h55q287 0 429 -76q225 -123 225 -375q0 -168 -133 -307t-375 -139 q-43 0 -154.5 6t-138.5 6q-2 0 -39 -1t-84 -3t-74 -2q-33 0 -32 16q0 10 24 13q6 0 26.5 1t31.5 3q18 4 30.5 22.5t15.5 36.5t9 57q12 102 12 445v686q-188 0 -278 -4q-96 -2 -140.5 -15.5t-68.5 -50.5q-23 -35 -35 -63q-8 -20 -21 -21q-10 0 -10 19zM768 678q0 -387 4 -483 q2 -84 47 -103q84 -39 189 -39q133 0 215 84t82 248q0 229 -150 348q-115 92 -379 86q-8 0 -8 -10v-131z" />
<glyph unicode="&#x463;" horiz-adv-x="1456" d="M43 961q-2 10 19.5 99t25.5 103q6 18 14 19q6 0 16.5 -3t31 -8.5t43.5 -9.5q68 -10 131 -10h204q0 96 -4 125q-4 33 -7 48t-17.5 30.5t-40.5 19.5q-18 4 -49 4q-20 0 -21 13q0 14 31 14q29 0 72 -2t75.5 -3t34.5 -1t36 1t78 3t68 2q31 0 31 -16q0 -12 -18 -13 q-29 0 -49 -4q-35 -8 -47.5 -29.5t-12.5 -68.5q0 -8 -1 -61.5t-1 -61.5h375q74 0 121 8q12 2 23.5 4t17.5 3t8 1q10 0 10 -18q0 -33 -2 -116t-2 -87q0 -23 -14.5 -22.5t-14.5 22.5q0 12 -2 29q-4 53 -55 74.5t-188 23.5h-277v-311q0 -8 8 -8h45q252 0 379 -64 q201 -104 201 -321q0 -139 -118 -259t-331 -120q-39 0 -140 5t-124 5q-2 0 -35.5 -1t-76.5 -3t-68 -2q-29 0 -29 16q0 10 21 13q45 4 51 6q27 4 36 25.5t13 70.5q10 184 10 375v573q-156 0 -235 -2q-156 -2 -193 -53q-10 -14 -18 -35l-10 -18q-6 -20 -19 -21q-10 0 -10 17z M686 565q0 -309 4 -391q2 -59 49 -82q70 -39 156 -39q115 0 184.5 68.5t69.5 204.5q0 190 -131 292q-98 78 -324 72q-8 0 -8 -8v-117z" />
<glyph unicode="&#x472;" horiz-adv-x="1873" d="M131 770q0 139 48 275.5t141.5 256t254 194.5t363.5 75q356 0 580.5 -208t224.5 -560t-227.5 -595t-589.5 -243q-162 0 -297 48t-225.5 128t-154 186.5t-91 217t-27.5 225.5zM322 858q0 -14 8 -14h1206q10 0 10 16q-20 305 -203.5 473t-433.5 168q-266 0 -422.5 -170 t-164.5 -473zM324 741q18 -330 203.5 -513t449.5 -183q72 0 143.5 16.5t151.5 64.5t140.5 122t100 199.5t39.5 285.5q0 19 -16 19h-1204q-8 0 -8 -11z" />
<glyph unicode="&#x473;" horiz-adv-x="1658" d="M113 657q0 115 42 229.5t123.5 217t225 167t325.5 64.5q315 0 515 -175t200 -478q0 -299 -203 -505t-522 -206q-180 0 -320.5 62.5t-222 164t-122.5 219.5t-41 240zM299 731q0 -12 12 -12h1030q10 0 11 14q-18 254 -175 394.5t-374 140.5q-227 0 -362.5 -138.5 t-141.5 -398.5zM301 614q18 -268 176 -417.5t389 -149.5q61 0 122 13.5t130.5 52.5t120.5 100t85 166.5t34 241.5q-1 14 -17 14h-1030q-12 0 -10 -21z" />
<glyph unicode="&#x474;" horiz-adv-x="1587" d="M-53.5 1527.5q0.5 14.5 51.5 14.5q59 0 145 -3t90.5 -3t80 3t120.5 3q41 0 41 -14.5t-26 -14.5q-49 0 -72 -10q-27 -12 -27 -41q0 -27 41 -131q66 -170 209 -531.5t211 -537.5q72 184 185.5 484.5t138.5 361.5q98 256 165.5 355.5t159.5 99.5q57 0 96 -43t39 -97 q0 -98 -26 -157q-4 -10 -13.5 -10.5t-11.5 8.5q-29 80 -63.5 121.5t-61.5 41.5q-16 0 -32.5 -15t-50 -79.5t-83.5 -183.5q-37 -92 -211 -533.5t-219 -554.5q-43 -96 -65 -96q-16 0 -49 80q-2 4 -3 7t-1 5l-517 1289q-33 84 -62.5 113.5t-84.5 45.5q-31 8 -66 8 q-29 0 -28.5 14.5z" />
<glyph unicode="&#x475;" horiz-adv-x="1409" d="M-51.5 1296.5q0.5 14.5 37.5 14.5q55 0 141 -3t88 -3t73.5 3t119.5 3q31 0 30 -13q0 -16 -24 -16q-43 0 -66 -8q-23 -12 -22 -37q-1 -22 32 -100q68 -166 197 -478.5t168 -410.5q63 158 163.5 412.5t110.5 279.5q88 219 149.5 304t145.5 85q51 0 82 -43t31 -104 q0 -80 -25 -125q-16 -23 -22 0q-23 66 -52.5 100.5t-52.5 34.5q-14 0 -27.5 -9t-46 -62.5t-73.5 -153.5q-209 -514 -377 -912q-37 -84 -61 -84q-14 0 -47 80l-457 1092q-29 72 -54.5 97.5t-74.5 35.5q-29 6 -60 6q-27 0 -26.5 14.5z" />
<glyph unicode="&#x490;" horiz-adv-x="1122" d="M186 1526q0 16 33 16q41 0 118 -3t114 -3h364q119 0 170 51t70 178q6 31 20 31q12 0 12 -33q0 -27 -12 -141.5t-16 -134.5q-4 -23 -9.5 -32t-17.5 -7q-131 12 -477 12q-18 0 -18 -22v-850q0 -319 6 -414q8 -135 84 -143q8 -2 84 -8q25 -2 24 -15q0 -14 -33 -14 q-51 0 -110.5 1t-99 3t-41.5 2h-19q-123 -6 -182 -6q-33 0 -33 16q0 10 23 13q37 4 53 8q33 8 46 36.5t17 96.5q8 117 9 424v360q0 377 -5 443q-4 55 -21 80.5t-67 35.5q-6 2 -24.5 3t-26.5 1q-35 4 -35 15z" />
<glyph unicode="&#x491;" horiz-adv-x="999" d="M157.5 1296.5q0.5 14.5 30.5 14.5q37 0 107 -3t102 -3h326q104 0 151.5 47t63.5 155q4 25 18 25q12 0 12.5 -24.5t-10 -129t-14.5 -118.5q-6 -35 -24 -35q-92 10 -416 10q-18 0 -19 -18v-717q0 -262 4 -344q4 -45 9.5 -67.5t23 -39t49.5 -20.5q14 -2 68 -6q25 -2 25 -17 q0 -12 -31 -12q-47 0 -103.5 1t-95.5 3l-37 2h-14q-117 -6 -166 -6q-29 0 -29 14q0 12 19 15q43 4 49 6q29 8 39 31.5t14 78.5q8 100 8 361v307q0 317 -4 373q-2 35 -6 50t-18.5 29.5t-42.5 18.5q-20 4 -60 4q-29 0 -28.5 14.5z" />
<glyph unicode="&#x492;" horiz-adv-x="1150" d="M166 690l22 43q10 16 29 17h148v198q0 377 -5 443q-4 55 -21 80.5t-67 35.5q-6 2 -24.5 3t-26.5 1q-35 4 -35 15q0 16 33 16q41 0 118 -3t114 -3q457 0 503 2q86 4 101 12q12 8 18 9q12 0 12 -19q0 -4 -2 -14t-5 -24.5t-5 -24.5q-4 -25 -12 -150q0 -41 -19 -41 q-12 0 -14 27q-6 74 -39 102q-43 37 -121 39l-313 6q-18 0 -18 -22v-688h163q25 0 47.5 2t37 3t16.5 1q12 0 6 -17l-21 -49q-8 -16 -32 -16h-217v-86q0 -319 6 -414q8 -135 84 -143q8 -2 84 -8q25 -2 24 -15q0 -14 -33 -14q-51 0 -110.5 1t-99 3t-41.5 2h-19 q-123 -6 -182 -6q-33 0 -33 16q0 10 23 13q37 4 53 8q33 8 46 36.5t17 96.5q8 117 9 424v88h-150q-14 0 -27.5 -2t-15.5 -2q-16 0 -6 18z" />
<glyph unicode="&#x493;" horiz-adv-x="1019" d="M139 572.5q-2 5.5 4 13.5l21 39q10 14 24 14h129v168q0 317 -4 373q-4 45 -18 66.5t-57 31.5q-20 4 -54 4q-27 4 -26 14q0 14 30 15q37 0 107 -3t102 -3q406 0 449 2q72 4 94 12q8 4 16 4q10 0 7 -16l-11 -52q-10 -63 -10 -145q0 -33 -14.5 -33t-14.5 19q-2 72 -41 104 q-45 27 -108 29q-176 4 -260 4q-18 0 -19 -19v-575h144q23 0 43 1t32.5 2t14.5 1q10 0 6 -12l-20 -47q-8 -14 -29 -15h-191v-69q0 -262 4 -344q4 -72 19.5 -97.5t60.5 -29.5q14 -2 41 -4t31 -2q23 -2 23 -15q0 -14 -25 -14q-47 0 -105.5 1t-97.5 3l-39 2h-14 q-117 -6 -166 -6q-29 0 -29 16q0 10 23 13q35 4 43 6q29 8 41 31.5t14 78.5q8 100 8 361v71h-131q-12 0 -24 -2t-15 -2q-6 0 -8 5.5z" />
<glyph unicode="&#x496;" horiz-adv-x="2154" d="M-121 8q0 16 31 17q6 0 65 6q121 16 328 217q225 221 549 583q-29 35 -253 259.5t-230 230.5q-147 143 -228 170q-39 14 -88 20q-39 6 -39 17q0 14 37 14q14 0 91 -3t112 -3q39 0 95.5 3t81 3t24.5 -12q0 -10 -27 -17q-49 -10 -49 -36q0 -43 145 -193q76 -80 257.5 -263 t203.5 -206v133q0 377 -4 443q-6 100 -70 114q-31 8 -63 8q-16 0 -17 13q0 16 33 16q31 0 79 -1t85 -3t39 -2t39 2t84 3t74 1q33 0 32 -16q0 -12 -16 -13q-14 0 -51 -6q-41 -8 -56.5 -34.5t-19.5 -81.5q-4 -66 -4 -443v-133q119 104 469 473q141 147 141 189q0 27 -47 36 q-29 6 -29 17q0 12 29 12q23 0 78 -3t94 -3q35 0 113 3t92 3q35 0 35 -14q0 -10 -37 -17q-61 -8 -94 -22q-47 -16 -92.5 -49t-131.5 -119q-53 -53 -173.5 -173t-200.5 -200t-103 -104q410 -465 568 -613q113 -113 167 -140.5t134 -27.5q39 0 84 11q10 2 12 -2t0 -17 q-27 -133 -27 -309q0 -39 -14 -39t-18 41q-12 96 -50.5 171t-103.5 75q-123 0 -182.5 28.5t-147.5 124.5q-121 123 -514 584q-8 10 -25.5 28.5t-25.5 28.5v-200q0 -358 10 -445q10 -106 80 -114q51 -6 82 -6q27 0 27 -13q0 -16 -31 -16q-49 0 -109.5 1t-99.5 3t-41 2t-40 -1 t-86 -3t-75 -2q-29 0 -28 16q0 12 22 13q25 0 53 6q53 10 62 114q10 143 10 445v200q-12 -16 -43 -53q-360 -424 -522 -581q-98 -96 -160.5 -128t-189.5 -32h-160q-31 0 -31 14z" />
<glyph unicode="&#x497;" horiz-adv-x="1916" d="M-106 6q0 16 26 17q2 0 55 6q113 14 293 186q207 201 480 498q-25 29 -210.5 208t-205.5 201q-123 117 -205 146q-49 12 -74 14q-39 6 -39 16q0 12 37 13q12 0 81 -3t101 -3q37 0 88.5 3t73.5 3q20 0 21 -11q0 -8 -23 -16q-41 -8 -41 -31q0 -37 123 -161 q326 -319 397 -392v107q0 319 -4 375q-6 84 -61 96q-10 2 -49 6q-18 0 -19 12q0 14 29 14.5t73 -1.5t76.5 -3t34.5 -1t35 1t76 3t70 2q31 0 30 -15q0 -12 -18 -12q-25 0 -41 -2q-37 -4 -51.5 -23.5t-18.5 -78.5q-4 -56 -4 -373v-109q113 100 404 398q121 123 120 157 q0 23 -38 31q-27 6 -27 16.5t27 10.5q20 0 70 -3t87 -3q35 0 104.5 3t82.5 3q31 0 30 -13q0 -10 -35 -16q-43 -4 -81 -18q-80 -25 -199 -142q-367 -350 -412 -399q78 -86 256 -275.5t254 -257.5q66 -66 115 -95t74.5 -33.5t76.5 -4.5q29 0 72 9q10 2 12 -2.5t0 -12.5 q-25 -115 -24 -272q0 -35 -12.5 -35t-16.5 37q-12 82 -46 147.5t-95 65.5q-115 0 -173.5 24.5t-133.5 106.5q-106 104 -453 496q-29 33 -39 43v-164q0 -301 12 -375q8 -92 70 -98q31 -4 72 -4q25 0 24 -13q0 -16 -28 -16q-47 0 -101.5 1t-91.5 3l-35 2q-2 0 -36.5 -1 t-77.5 -3t-68 -2q-27 0 -27 16q0 12 25 13q23 0 39 2q31 4 42 26.5t15 73.5q8 147 8 375v164q-25 -29 -36 -41q-311 -356 -455 -496q-84 -80 -142.5 -106.5t-177.5 -26.5h-141q-27 0 -26 12z" />
<glyph unicode="&#x498;" horiz-adv-x="1224" d="M129 84q-4 113 10 211q6 29 17 29q12 0 14 -33q12 -256 324 -256q168 0 277.5 99t109.5 278q0 193 -122 296t-294 111q-72 2 -72 23q0 14 74 24q317 27 317 322q0 59 -14 110.5t-47 100.5t-96.5 77.5t-153.5 28.5q-250 0 -260 -237q-2 -31 -16.5 -31t-14.5 29 q0 31 -4 105.5t-4 101.5q0 37 19 40q10 2 25 5.5t38 9.5t39 10q123 33 240 33q119 0 206.5 -33t132 -86t63.5 -106.5t19 -106.5q0 -139 -85 -233.5t-197 -137.5q-6 -4 0 -6q61 -10 123.5 -37.5t126 -73.5t103.5 -121t40 -167q0 -180 -119 -311.5t-321 -169.5 q-104 -94 -115 -103q215 -33 215 -158q0 -82 -91 -132t-218 -50q-27 0 -27 17q0 8 39 16q158 31 158 135q0 102 -162 127q-23 4 -23 14.5t25 26.5l111 94q-53 -4 -80 -4q-184 0 -291 55q-35 18 -39 64z" />
<glyph unicode="&#x499;" horiz-adv-x="1087" d="M113 74q-4 111 8 186q4 25 14 25q12 0 15 -27q6 -109 78.5 -167t207.5 -58q156 0 247 81t91 234q0 166 -103.5 254t-256.5 94q-66 2 -66 19q0 14 66 22q274 23 274 269q0 111 -63.5 188.5t-208.5 77.5q-221 0 -228 -201q-2 -27 -16 -27t-14 25q0 33 -3 99.5t-3 82.5 q0 31 16 35q8 2 39 9.5t53 11.5q111 29 215 28q201 0 289 -88t88 -192q0 -119 -76 -200t-174 -116q-12 -4 0 -4q125 -23 237.5 -109.5t112.5 -232.5q0 -154 -104.5 -263.5t-284.5 -143.5q-74 -63 -121 -107q215 -33 215 -158q0 -82 -91 -132t-218 -50q-27 0 -26 17 q0 8 38 16q158 31 158 135q0 102 -162 127q-23 4 -23 14.5t25 26.5l117 98q-23 -2 -65 -2q-164 0 -263 45q-35 18 -34 58z" />
<glyph unicode="&#x49a;" horiz-adv-x="1611" d="M195 1526q0 16 32 16q31 0 82 -1t91 -3t42 -2t40 2t86 3t75 1q33 0 33 -14q0 -12 -23 -15l-45 -4q-39 -4 -55 -32.5t-21 -85.5q-4 -66 -4 -443v-131q29 27 114 116t197.5 206.5t155.5 160.5q86 88 108.5 120t22.5 53q0 29 -26 38q-18 8 -19 19q0 12 31 12q29 0 57.5 -3 t65.5 -3q35 0 120 3t97 3q35 0 35 -14q0 -12 -23 -15q-61 -6 -104 -24q-74 -29 -213 -164q-375 -360 -467 -465q94 -102 308 -321.5t290 -288.5q123 -123 185.5 -155t142.5 -32q37 0 84 11q10 2 12 -2t0 -17q-27 -133 -27 -309q0 -39 -14 -39t-19 41q-10 94 -45.5 169 t-93.5 77q-88 0 -143 12t-82 28.5t-78 57.5q-88 72 -310 306.5t-362 400.5v-211q0 -358 11 -445q6 -51 21 -78.5t58 -33.5q57 -8 82 -8t25 -14.5t-31 -14.5q-49 0 -109.5 1t-100.5 3t-42 2t-37.5 -1t-82 -3t-72.5 -2q-33 0 -33 14.5t23 14.5q27 0 53 6q47 10 61 114 q10 86 11 445v360q0 377 -5 443q-6 100 -69 114q-31 8 -74 8q-23 0 -22 13z" />
<glyph unicode="&#x49b;" horiz-adv-x="1433" d="M184 8.5q0 14.5 27 14.5q25 0 49 6q37 8 47 98q10 74 10 373v307q0 319 -4 375q-6 84 -59 94q-12 2 -27.5 4t-19.5 2q-23 4 -23 14q0 14 31 15q29 0 74 -2t80 -2l32 -2q2 0 37 1t79 3t69 2q31 0 30 -15q0 -12 -22 -14q-6 -2 -18.5 -3t-18.5 -1q-29 -4 -44 -17.5 t-19.5 -30t-6.5 -50.5q-2 -29 -2 -373v-96q246 219 410 397q74 82 90 103.5t16 37.5q0 23 -32 33q-23 6 -23 16q0 12 21 13q4 0 25.5 -2t53 -3t60.5 -1q35 0 113.5 3t87.5 3q33 0 32 -13q0 -14 -22 -16q-59 -4 -100 -20q-35 -12 -67 -36t-116 -99.5t-233.5 -217 t-184.5 -174.5q250 -260 525 -520q113 -106 163 -132t119 -26q29 0 72 9q10 2 12 -2.5t0 -12.5q-25 -115 -24 -272q0 -35 -12.5 -35t-16.5 37q-10 80 -44 145.5t-83 67.5q-119 0 -173 23.5t-148 103.5q-80 70 -246 240.5t-275 300.5v-162q0 -315 9 -375q6 -47 18 -66.5 t51 -27.5q35 -8 78 -8q23 -2 23 -15q0 -14 -29 -14q-47 0 -102.5 1t-92.5 3t-39 2t-35.5 -1t-78.5 -3t-70 -2q-33 0 -33 14.5z" />
<glyph unicode="&#x4a0;" horiz-adv-x="1787" d="M51 1319q0 33 45 213q12 39 21 39q4 0 30.5 -11.5t59.5 -13.5q99 -10 162 -10h276q2 0 40 2t86 3t75 1q33 0 33 -16q0 -12 -17 -13q-14 0 -51 -6q-41 -8 -56.5 -34.5t-19.5 -81.5q-4 -66 -4 -443v-360q0 -358 10 -445q6 -51 21.5 -78.5t58.5 -33.5q57 -8 82 -8t25 -13 q0 -16 -31 -16q-49 0 -109.5 1t-100.5 3t-42 2t-40 -1t-86 -3t-75 -2q-33 0 -32 16q0 12 22 13q25 0 53 6q47 10 62 114q10 86 10 445v360q0 317 -10 482q-2 23 -21 22q-145 0 -202 -2q-96 -2 -140.5 -15.5t-68.5 -50.5q-23 -35 -35 -63q-8 -20 -21 -21q-10 0 -10 19z M752 791q-6 10 2 18q102 88 450 473q145 160 146 193q0 27 -68 38q-31 7 -31 17q0 12 31 12q29 0 77 -3t85 -3q35 0 118 3t95 3q39 0 39 -14q0 -10 -41 -17q-53 -8 -90 -22q-39 -14 -75 -44t-134 -124q-8 -8 -212 -221t-235 -244q160 -199 574 -602q125 -123 192.5 -166 t136.5 -55q41 -6 56 -8q41 -2 41 -16.5t-54 -14.5h-129q-145 0 -216.5 28.5t-161.5 120.5q-375 385 -596 648z" />
<glyph unicode="&#x4a1;" horiz-adv-x="1591" d="M43 1114q-2 8 17.5 93t23.5 98q8 33 18 32q2 0 31 -10t60 -12q92 -10 131 -10h251q2 0 36 1t78 3t69 2q31 0 30 -15q0 -12 -14 -12q-4 0 -45 -4q-59 -12 -67 -100q-5 -56 -5 -373v-105q70 59 210.5 194.5t209.5 211.5q74 82 90.5 103.5t16.5 37.5q0 23 -33 33 q-23 6 -23 16q0 12 21 13q4 0 25.5 -2t53.5 -3t60 -1q35 0 114 3t87 3q33 0 33 -13q0 -14 -23 -16q-59 -4 -100 -20q-35 -12 -67 -36t-115.5 -99.5t-233 -217t-184.5 -174.5q319 -330 528 -520q174 -160 295 -186q10 -2 47 -6q29 -4 29 -16.5t-33 -12.5h-133 q-115 0 -166 15.5t-117 60.5q-70 49 -270.5 253.5t-321.5 348.5v-172q0 -303 11 -377q4 -29 9 -45.5t20.5 -31.5t41.5 -17q49 -8 74 -9q20 0 21 -12q0 -14 -29 -14q-47 0 -101.5 1t-91.5 3l-37 2q-2 0 -36.5 -1t-78.5 -3t-69 -2q-31 0 -31 14q0 12 23 12t45 7q39 6 53 98 q10 74 11 375v307q0 262 -11 405q-2 18 -12 15q-129 0 -176 -2q-86 0 -126 -11.5t-63 -44.5q-4 -6 -32 -53q-6 -18 -19 -18q-10 0 -10 16z" />
<glyph unicode="&#x4a2;" horiz-adv-x="1984" d="M186 1526q0 16 33 16q41 0 96.5 -1t94.5 -3t41 -2t39.5 2t86 3t74.5 1q33 0 33 -16q0 -12 -16 -13q-14 0 -52 -6q-41 -8 -56 -34.5t-19 -81.5q-4 -66 -4 -443v-43q0 -12 12 -12h868q12 0 13 12v43q0 377 -5 443q-4 55 -21.5 80.5t-66.5 35.5q-25 6 -69 6q-16 0 -17 13 q0 16 33 16q41 0 96.5 -1t94 -3t41 -2t40 2t86 3t74.5 1q33 0 33 -16q0 -12 -16 -13q-14 0 -52 -6q-41 -8 -56 -34.5t-19 -81.5q-4 -66 -4 -443v-340q4 -352 14 -444q4 -47 18.5 -64.5t63.5 -19.5q143 0 192 8q10 2 12.5 -1t0.5 -15q-25 -123 -25 -260q0 -41 -14.5 -41 t-18.5 41q-8 90 -38.5 132t-110.5 50q-57 6 -180 6q-2 0 -40 -1t-86.5 -3t-74.5 -2q-33 0 -33 16q0 12 16 13q25 0 62 8q45 8 59 112q10 86 11 445v215q0 12 -13 12h-868q-12 0 -12 -12v-215q0 -358 10 -445q6 -51 21.5 -78.5t58.5 -33.5q57 -8 92 -8q16 0 16 -13 q0 -16 -33 -16q-49 0 -109.5 1t-100 3t-41.5 2t-40 -1t-86.5 -3t-74.5 -2q-33 0 -33 16q0 12 16 13q25 0 62 8q45 8 59 112q10 86 11 445v360q0 377 -5 443q-4 55 -21 80.5t-67 35.5q-25 6 -69 6q-16 0 -17 13z" />
<glyph unicode="&#x4a3;" horiz-adv-x="1753" d="M158 1296q0 14 30 15q51 0 129 -3t84 -3q2 0 37 1t79 3t69 2q31 0 30 -15q0 -12 -20 -12q-18 0 -41 -4q-37 -6 -50 -29.5t-18 -70.5q-2 -55 -2 -371v-37q0 -10 13 -10h741q12 0 12 10v37q0 317 -4 373q-4 47 -18.5 67.5t-61.5 28.5q-29 4 -51 4q-25 0 -24.5 14.5 t28.5 14.5q39 0 90.5 -2t87 -3t37.5 -1t36 1t78 3t71 2q33 0 32.5 -14.5t-22.5 -14.5q-16 0 -41 -4q-39 -6 -51.5 -27.5t-16.5 -70.5q-2 -55 -2 -373v-307q0 -264 13 -355q4 -41 17 -55t56 -16q117 0 170 6q8 2 10.5 -1t0.5 -13q-23 -98 -23 -230q0 -37 -14 -37 q-12 0 -17 37q-6 76 -33.5 113t-99.5 45q-53 6 -166 6q-2 0 -36.5 -1t-77.5 -3t-68 -2q-31 0 -31 16q0 12 23 13q31 0 47 4q39 6 51 98q10 74 10 369v182q0 12 -12 12h-743q-10 0 -11 -12v-182q0 -299 11 -373q12 -86 69 -92q41 -6 74 -6q25 0 25 -14.5t-27 -14.5 q-47 0 -102.5 1t-93.5 3t-40 2t-36.5 -1t-79.5 -3t-68 -2q-33 0 -33 14.5t23 14.5q25 0 49 6q39 8 51 92q10 61 10 379v303q0 324 -4 379q-6 90 -77 98q-37 4 -56 4q-23 0 -22 12z" />
<glyph unicode="&#x4aa;" horiz-adv-x="1648" d="M131 793q0 129 53.5 282.5t175.5 276.5q219 219 625 219q164 0 297 -25q29 -6 217 -30q18 -2 19 -23q0 -6 -2.5 -19.5t-4.5 -39t-4 -56.5q-2 -37 -4 -117.5t-2 -93.5q-2 -43 -18.5 -43t-16.5 43q0 135 -86 209q-57 49 -168.5 83t-240.5 34q-317 0 -471 -150 q-104 -100 -144.5 -230t-40.5 -304q0 -303 210 -526.5t530 -223.5q256 0 356 103q57 59 76 172q6 31 20.5 31t14.5 -31q0 -16 -15.5 -116.5t-29.5 -145.5q-8 -29 -16.5 -38t-37.5 -22q-117 -47 -368 -47q-41 0 -62 2q-102 -94 -116 -104q215 -33 215 -158q0 -82 -91.5 -132 t-218.5 -50q-27 0 -26 16q0 8 39 17q158 31 157 135q0 102 -161 127q-23 4 -23 14.5t25 26.5l131 110q-334 29 -545 217q-248 223 -248 607z" />
<glyph unicode="&#x4ab;" horiz-adv-x="1452" d="M113 680q0 106 49 237.5t157 235.5q188 182 551 182q113 0 271 -22q131 -20 180 -23q18 0 18 -20q0 -6 -4 -35t-6 -66q0 -27 -1 -101.5t-3 -86.5q-2 -39 -16 -39q-16 0 -17 39q0 47 -21.5 98t-58.5 80q-49 43 -149 74t-213 31q-262 0 -393 -119q-94 -86 -129 -192.5 t-35 -256.5q0 -258 185.5 -448.5t451.5 -190.5q227 0 313 84q51 53 68 148q6 31 22 30q10 0 10 -28q0 -14 -15 -105.5t-25 -122.5q-8 -25 -16.5 -32.5t-31.5 -18.5q-96 -41 -323 -41h-49q-90 -82 -105 -92q215 -33 215 -158q0 -82 -91 -132t-218 -50q-27 0 -27 17q0 8 39 16 q158 31 158 135q0 102 -162 127q-23 4 -23 14.5t25 26.5l119 100q-299 25 -481 183q-219 190 -219 522z" />
<glyph unicode="&#x4ae;" horiz-adv-x="1339" d="M-63 1527.5q0 14.5 26 14.5q23 0 112 -3t91 -3q4 0 30.5 2t66.5 3t75 1q27 0 27 -14q0 -4 -31 -19q-27 -14 -27 -36q0 -31 27 -80q27 -47 188.5 -326t188.5 -322q25 55 159 290t181 313q35 55 34.5 104t-32.5 57q-31 10 -31 21q0 12 33 12q31 0 81 -3t54 -3q2 0 89 3 t110 3q27 0 26 -12q0 -16 -26 -17q-49 0 -95 -28q-45 -27 -108 -105q-49 -59 -206 -321t-185 -330q-31 -74 -31 -205v-176q0 -119 6 -205q6 -102 84 -112q57 -8 92 -8q16 0 17 -13q0 -16 -33 -16q-49 0 -109.5 1t-100.5 3t-42 2t-40 -1t-86 -3t-75 -2q-33 0 -33 16 q0 12 17 13q25 0 61 8q57 12 64 112q6 86 6 205v176q0 111 -47 215q-10 25 -158.5 268.5t-202.5 321.5q-72 106 -139 152q-49 33 -88 32q-20 0 -20 14.5z" />
<glyph unicode="&#x4af;" horiz-adv-x="1185" d="M-66 1298q0 12 25 13q14 0 61.5 -2t90.5 -2l41 -2q4 0 27.5 1t59 3t68.5 2q27 0 27 -13q0 -10 -23 -16q-33 -6 -32 -33q0 -18 26 -67q12 -23 86 -143.5t154 -250t88 -143.5q14 31 79.5 142.5t134 225t77.5 130.5q47 82 47 108q0 6 -2 11.5t-4 8.5t-9.5 5t-9.5 2t-11 2 t-11 2q-23 2 -23 16q0 12 25 13q27 0 68.5 -3t56.5 -3q12 0 86.5 3t93.5 3q25 0 24 -13q0 -16 -24 -16q-70 -4 -103 -27q-29 -18 -75 -84q-84 -115 -204 -312t-144 -257q-20 -53 -21 -162v-149q0 -90 4 -164q2 -31 6 -45t19.5 -29.5t46.5 -21.5q35 -8 76 -8q23 0 22 -13 q0 -16 -24 -16q-29 0 -63 1t-62.5 1t-53 1t-40 2t-17.5 1h-35q-35 -2 -80 -4t-69 -2q-29 0 -29 16q0 12 21 13q27 0 51 6q45 8 53 98q6 74 6 164v149q0 111 -45 189q-14 29 -143 234.5t-170 262.5q-70 96 -105 125q-39 29 -96 31q-23 0 -23 16z" />
<glyph unicode="&#x4b0;" horiz-adv-x="1339" d="M-63 1527.5q0 14.5 26 14.5q23 0 112 -3t91 -3q4 0 30.5 2t66.5 3t75 1q27 0 27 -14q0 -4 -31 -19q-27 -14 -27 -36q0 -31 27 -80q14 -27 97 -160t179.5 -285.5t100.5 -161.5q27 43 99.5 164t153 253t87.5 145q35 55 34.5 104t-32.5 57q-31 10 -31 21q0 12 33 12 q31 0 81 -3t54 -3q2 0 89 3t110 3q27 0 26 -12q0 -16 -26 -17q-49 0 -95 -28q-45 -27 -108 -105q-49 -59 -202 -299.5t-189 -310.5l-6.5 -13t-6.5 -16h211q43 0 80 7q14 4 6 -15l-20 -51q-8 -16 -33 -16h-260q-2 -16 -2 -101v-217q0 -119 6 -205q6 -102 84 -112q57 -8 92 -8 q16 0 17 -13q0 -16 -33 -16q-49 0 -109.5 1t-100.5 3t-42 2t-40 -1t-86 -3t-75 -2q-33 0 -33 16q0 12 17 13q25 0 61 8q57 12 64 112q6 86 6 205v217q0 61 -6 103h-252q-25 0 -41 -4q-6 -2 -9 3t1 13l22 45q11 16 29 16h227q-12 25 -18 39q-27 51 -361 549q-72 106 -139 152 q-49 33 -88 32q-20 0 -20 14.5z" />
<glyph unicode="&#x4b1;" horiz-adv-x="1185" d="M-66 1298q0 12 25 13q14 0 61.5 -2t90.5 -2l41 -2q4 0 27.5 1t59 3t68.5 2q27 0 27 -13q0 -10 -23 -16q-33 -6 -32 -33q0 -18 26 -67q16 -29 167 -262.5t159 -247.5q33 55 156.5 251.5t136.5 219.5q47 82 47 108q0 6 -2 11.5t-4 8.5t-9.5 5t-9.5 2t-11 2t-11 2 q-23 2 -23 16q0 12 25 13q27 0 68.5 -3t56.5 -3q12 0 86.5 3t93.5 3q25 0 24 -13q0 -16 -24 -16q-70 -4 -103 -27q-29 -18 -75 -84q-264 -373 -351 -530q-2 -2 -2 -4t-2 -4h181q37 0 67 6q6 2 7 -1t-1 -11l-20 -49q-8 -14 -29 -15h-221q-2 -16 0 -47t2 -41v-184 q0 -90 4 -164q2 -31 6 -45t19.5 -29.5t46.5 -21.5q35 -8 76 -8q23 0 22 -13q0 -16 -24 -16q-29 0 -63 1t-62.5 1t-53 1t-40 2t-17.5 1h-35q-35 -2 -80 -4t-69 -2q-29 0 -29 16q0 12 21 13q27 0 51 6q45 8 53 98q6 74 6 164v172q0 61 -6 102h-207q-12 0 -23.5 -1t-13.5 -1 q-4 -2 -7 2t1 10l21 43q10 15 26 15h182q-2 4 -6 11t-6 11q-10 18 -142 213t-177 258q-70 96 -105 125q-39 29 -96 31q-23 0 -23 16z" />
<glyph unicode="&#x4b2;" horiz-adv-x="1433" d="M-30.5 8.5q-0.5 14.5 16.5 14.5q39 0 77 10q80 20 170 166l371 585l-328 551q-80 135 -159 164q-45 14 -86 14q-18 0 -18.5 14.5t34.5 14.5t135.5 -3t104.5 -3q2 0 76.5 3t115.5 3q35 0 35 -14.5t-18 -14.5q-39 0 -56 -6q-25 -8 -24 -34q0 -31 20 -68q141 -266 277 -490 q47 66 166.5 257.5t134.5 224.5q20 43 20 73q0 27 -35 37q-20 6 -61 6q-18 0 -18 14.5t34 14.5q47 0 114 -3t69 -3t66.5 3t105.5 3q33 0 32.5 -14.5t-22.5 -14.5q-39 0 -68 -10q-29 -8 -56.5 -34.5t-44.5 -50t-56 -81.5l-330 -495q10 -16 107.5 -182t188.5 -317.5 t109 -176.5q74 -104 189 -105q43 0 92 7q10 2 13 -1.5t1 -15.5q-6 -29 -16 -134t-10 -177q0 -33 -15 -33q-18 0 -18 35q4 258 -188 258q-33 0 -98.5 -1t-84.5 -1q-49 0 -49 14q0 8 19 13q35 12 4 63q-131 240 -353 610l-319 -542q-27 -47 -27 -90q0 -31 33 -39q25 -4 39 -4 q16 0 16 -14.5t-24 -14.5q-29 0 -110 3t-87 3q-4 0 -75.5 -3t-110.5 -3q-20 0 -20.5 14.5z" />
<glyph unicode="&#x4b3;" horiz-adv-x="1277" d="M-31 8.5q0 14.5 23 14.5q20 0 59 8q70 18 150 139l327 494l-290 471q-31 47 -45.5 67.5t-37 40t-51.5 27.5q-37 12 -71 12q-27 0 -27 14.5t31 14.5q29 0 124 -3t97 -3t70.5 3t105.5 3q33 0 33 -13q0 -16 -25 -16q-31 0 -49 -6q-20 -6 -20 -25q0 -20 24 -63 q109 -199 238 -404q49 70 148.5 221.5t109.5 178.5q23 41 22 61q0 29 -36 33q-29 4 -45 4q-25 0 -25 16q0 12 29 13q33 0 71.5 -2t66.5 -3t32 -1q2 0 62 3t99 3q25 0 25 -13q0 -16 -23 -16q-29 0 -65 -10q-10 -2 -19.5 -8.5t-20.5 -15.5t-18.5 -16t-18.5 -22.5t-17 -22.5 t-20.5 -27.5t-18.5 -26.5l-289 -416q4 -6 167.5 -273.5t186.5 -298.5q61 -90 168 -90q23 0 84 8q8 0 11.5 -2t1.5 -14q-6 -25 -15.5 -119t-9.5 -155q0 -29 -14.5 -29t-14.5 31q0 225 -176 225q-31 0 -95.5 -1t-80.5 -1q-39 0 -39 12.5t16 16.5q27 12 5 51q-102 182 -301 508 l-277 -451q-31 -53 -31 -76q0 -29 37 -34q12 -2 25 -2q25 0 24.5 -14.5t-22.5 -14.5q-25 0 -100.5 3t-79.5 3t-31 -1t-62.5 -3t-64.5 -2q-27 0 -27 14.5z" />
<glyph unicode="&#x4b6;" horiz-adv-x="1579" d="M10 1529.5q0 12.5 37 12.5q43 0 116 -3t81 -3q14 0 96 3t106 3q33 0 33 -14q0 -12 -35 -15q-57 -4 -80.5 -27.5t-25.5 -96.5q-2 -72 -2 -242q0 -174 94 -262t262 -88q170 0 264 41v145q0 342 -4 408q-4 55 -21.5 80.5t-66.5 35.5q-25 6 -63 6q-23 0 -23 13q0 16 33 16 q41 0 96.5 -1t94 -3t40.5 -2t40 2t86.5 3t74.5 1q33 0 33 -16q0 -12 -16 -13q-14 0 -52 -6q-41 -8 -56 -34.5t-19 -81.5q-4 -66 -5 -443v-340q4 -352 15 -444q4 -47 18.5 -64.5t63.5 -19.5q143 0 192 8q10 2 12.5 -1t0.5 -15q-25 -123 -25 -260q0 -41 -14.5 -41t-18.5 41 q-8 90 -38.5 132t-110.5 50q-60 6 -181 6q-2 0 -39.5 -1t-86 -3t-74.5 -2q-33 0 -33 16q0 12 16 13q25 0 62 8q45 8 59 112q10 86 10 451v180q-131 -59 -325 -59q-262 0 -381 141q-86 102 -86 320q0 190 -2 223q-4 59 -18.5 81.5t-55.5 28.5q-10 2 -26.5 3t-26.5 1 q-25 4 -25 16.5z" />
<glyph unicode="&#x4b7;" horiz-adv-x="1413" d="M69.5 1300.5q0.5 10.5 34.5 10.5q41 0 105.5 -3t73.5 -3q12 0 87.5 3t98.5 3q29 0 29 -12.5t-31 -14.5q-49 -4 -70.5 -23.5t-23.5 -82.5q-2 -59 -2 -207q0 -145 85 -219t228 -74q150 0 229 35v127q0 287 -4 342q-2 31 -8 49t-22.5 32.5t-47.5 16.5q-33 4 -55 4 q-20 0 -20 10q0 16 30 17q39 0 89.5 -2t85.5 -2l34 -2q2 0 37 1t78 3t70 2q31 0 30 -15q0 -12 -16 -12q-37 -4 -49 -6q-35 -6 -45 -27.5t-15 -70.5q-4 -111 -4 -373v-287q0 -299 13 -375q4 -41 16 -55t55 -16q121 0 172 6q8 2 10.5 -1t0.5 -13q-25 -106 -25 -230 q0 -37 -12.5 -37t-16.5 37q-8 78 -34.5 114t-98.5 44q-55 6 -166 6q-2 0 -37.5 -1t-79.5 -3t-69 -2q-29 0 -29 16q0 12 23 13q14 0 47 4q29 2 40 23.5t15 74.5q8 98 8 377v151q-106 -49 -286 -49q-246 0 -351 119q-72 80 -71 272q0 164 -2 193q-4 49 -16.5 68.5t-49.5 25.5 q-25 0 -43 2q-25 6 -24.5 16.5z" />
<glyph unicode="&#x4ba;" horiz-adv-x="1538" d="M211 1526q0 16 33 16q31 0 80 -1t87 -3t40 -2t39.5 2t86 3t74.5 1q33 0 33 -16q0 -12 -16 -13q-14 0 -52 -6q-41 -8 -56 -34.5t-19 -81.5q-4 -66 -4 -445v-100q164 49 321 49q250 0 365 -147q84 -104 84 -289q4 -233 6 -316q10 -102 84 -114q41 -6 80 -6q27 0 26 -13 q0 -16 -33 -16q-49 0 -109.5 1t-100 3t-41.5 2t-40 -1t-85 -3t-74 -2q-33 0 -33 16q0 14 25 15q12 0 53 4q31 2 43 28.5t16 87.5q10 164 11 318q0 178 -97.5 267t-269.5 89q-147 0 -231 -31v-202q0 -356 10 -443q6 -51 21.5 -78.5t58.5 -33.5q57 -8 84 -8q25 0 24 -13 q0 -16 -30 -16q-49 0 -111 1t-101.5 3t-41.5 2t-40 -1t-86.5 -3t-74.5 -2q-33 0 -33 16q0 12 23 13q27 0 53 6q47 10 61 114q10 86 11 445v360q0 377 -5 443q-6 100 -69 114q-31 8 -64 8q-16 0 -16 13z" />
<glyph unicode="&#x4bb;" horiz-adv-x="1372" d="M184 1294q0 16 31 17q29 0 74 -2t80 -2l32 -2q2 0 37 1t79 3t69 2q31 0 30 -17q0 -12 -14 -12q-4 0 -45 -4q-61 -12 -70 -98q-2 -55 -2 -375v-84q135 41 281 41q225 0 324 -125q74 -94 73 -246q4 -219 8 -266q6 -84 72 -96q37 -6 76 -6q25 0 24 -13q0 -16 -28 -16 q-47 0 -103.5 1t-94.5 3t-40 2t-35.5 -1t-77.5 -3t-69 -2q-29 0 -29 16q0 14 25 15q23 0 45 4q29 4 40 24.5t13 71.5q8 111 8 270q0 150 -84 224.5t-231 74.5q-129 1 -197 -26v-170q0 -299 11 -373q6 -43 19 -65.5t50 -28.5q23 -4 74 -8q25 -2 25 -15q0 -14 -27 -14 q-47 0 -102.5 1t-93.5 3t-40 2t-36.5 -1t-80.5 -3t-71 -2t-25 14.5t27 14.5q23 0 39 4q47 8 53 98q10 127 10 375v307q0 319 -4 375q-6 82 -57 94q-27 6 -51 6q-20 0 -21 12z" />
<glyph unicode="&#x4c0;" horiz-adv-x="901" d="M211 1526q0 16 33 16q31 0 80 -1t87 -3t40 -2t39.5 2t86 3t74.5 1q33 0 33 -16q0 -12 -16 -13q-14 0 -52 -6q-41 -8 -56 -34.5t-19 -81.5q-4 -66 -4 -443v-360q0 -358 10 -445q6 -51 21.5 -78.5t58.5 -33.5q57 -8 84 -8q25 0 24 -13q0 -16 -30 -16q-49 0 -111 1t-101.5 3 t-41.5 2t-40 -1t-86.5 -3t-74.5 -2q-33 0 -33 16q0 12 23 13q27 0 53 6q47 10 61 114q11 87 11 445v360q0 377 -5 443q-6 100 -69 114q-31 8 -64 8q-16 0 -16 13z" />
<glyph unicode="&#x4c1;" horiz-adv-x="2138" d="M-121 8q0 16 31 17q6 0 65 6q121 16 328 217q225 221 549 583q-29 35 -253 259.5t-230 230.5q-147 143 -228 170q-39 14 -88 20q-39 6 -39 17q0 14 37 14q14 0 91 -3t112 -3q39 0 95.5 3t81 3t24.5 -12q0 -10 -27 -17q-49 -10 -49 -36q0 -43 145 -193q76 -80 257.5 -263 t203.5 -206v133q0 377 -4 443q-6 100 -70 114q-31 8 -63 8q-16 0 -17 13q0 16 33 16q31 0 79 -1t85 -3t39 -2t39 2t84 3t74 1q33 0 32 -16q0 -12 -16 -13q-14 0 -51 -6q-41 -8 -56.5 -34.5t-19.5 -81.5q-4 -66 -4 -443v-133q119 104 469 473q141 147 141 189q0 27 -47 36 q-29 6 -29 17q0 12 29 12q23 0 78 -3t94 -3q35 0 113 3t92 3q35 0 35 -14q0 -10 -37 -17q-61 -8 -94 -22q-47 -16 -92.5 -49t-131.5 -119q-53 -53 -173.5 -173t-200.5 -200t-103 -104q412 -467 574 -619q184 -170 286 -192q35 -8 78 -8q29 0 29 -15q0 -16 -35 -16h-153 q-133 0 -198 29.5t-159 123.5q-121 123 -514 584q-8 10 -25.5 28.5t-25.5 28.5v-200q0 -358 10 -445q10 -106 80 -114q51 -6 82 -6q27 0 27 -13q0 -16 -31 -16q-49 0 -109.5 1t-99.5 3t-41 2t-40 -1t-86 -3t-75 -2q-29 0 -28 16q0 12 22 13q25 0 53 6q53 10 62 114 q10 143 10 445v200q-12 -16 -43 -53q-360 -424 -522 -581q-98 -96 -160.5 -128t-189.5 -32h-160q-31 0 -31 14zM676 1888q0 12 10 29q14 20 36.5 39.5t31.5 19.5q10 0 12 -12q12 -61 93 -110.5t216 -49.5q207 0 332 152q16 18 27 18q4 0 6 -4t0 -11t-8 -15 q-72 -106 -189 -167t-248 -61q-156 0 -256 74q-63 51 -63 98z" />
<glyph unicode="&#x4c2;" horiz-adv-x="1906" d="M-106 6q0 16 26 17q2 0 55 6q113 14 293 186q207 201 480 498q-25 29 -210.5 208t-205.5 201q-123 117 -205 146q-49 12 -74 14q-39 6 -39 16q0 12 37 13q12 0 81 -3t101 -3q37 0 88.5 3t73.5 3q20 0 21 -11q0 -8 -23 -16q-41 -8 -41 -31q0 -37 123 -161 q326 -319 397 -392v107q0 319 -4 375q-6 84 -61 96q-10 2 -49 6q-18 0 -19 12q0 14 29 14.5t73 -1.5t76.5 -3t34.5 -1t35 1t76 3t70 2q31 0 30 -15q0 -12 -18 -12q-25 0 -41 -2q-37 -4 -51.5 -23.5t-18.5 -78.5q-4 -56 -4 -373v-109q113 100 404 398q121 123 120 157 q0 23 -38 31q-27 6 -27 16.5t27 10.5q20 0 70 -3t87 -3q35 0 104.5 3t82.5 3q31 0 30 -13q0 -10 -35 -16q-43 -4 -81 -18q-80 -25 -199 -142q-367 -350 -412 -399q78 -86 256 -275.5t254 -257.5q156 -139 248 -161q35 -6 68 -6q25 0 24.5 -14.5t-31.5 -14.5h-139 q-121 0 -179 25.5t-142 105.5q-106 104 -453 496q-29 33 -39 43v-164q0 -301 12 -375q8 -92 70 -98q31 -4 72 -4q25 0 24 -13q0 -16 -28 -16q-47 0 -101.5 1t-91.5 3l-35 2q-2 0 -36.5 -1t-77.5 -3t-68 -2q-27 0 -27 16q0 12 25 13q23 0 39 2q31 4 42 26.5t15 73.5 q8 147 8 375v164q-25 -29 -36 -41q-311 -356 -455 -496q-84 -80 -142.5 -106.5t-177.5 -26.5h-141q-27 0 -26 12zM598 1636q0 8 8 25q14 18 35 34.5t29 16.5q10 0 12 -8q10 -53 85 -95t200 -42q193 0 305 129q14 14 24 14q4 0 5.5 -3t-1 -9t-6.5 -15q-68 -94 -174 -146 t-227 -52q-150 -1 -238 65q-57 45 -57 86z" />
<glyph unicode="&#x4cf;" horiz-adv-x="802" d="M184 8.5q0 14.5 27 14.5q25 0 49 6q37 8 47 98q10 74 10 373v307q0 319 -4 375q-6 84 -59 94q-12 2 -27.5 4t-19.5 2q-23 4 -23 14q0 14 31 15q29 0 74 -2t80 -2l32 -2q2 0 37 1t79 3t69 2q31 0 30 -15q0 -12 -22 -14q-6 -2 -18.5 -3t-18.5 -1q-29 -4 -44 -17.5 t-19.5 -30t-6.5 -50.5q-2 -29 -2 -373v-307q0 -315 9 -375q6 -47 18 -66.5t51 -27.5q35 -8 78 -8q23 -2 23 -15q0 -14 -29 -14q-47 0 -102.5 1t-92.5 3t-39 2t-35.5 -1t-78.5 -3t-70 -2q-33 0 -33 14.5z" />
<glyph unicode="&#x4d0;" horiz-adv-x="1433" d="M-55 10q0 12 28 13q16 0 50 4q66 8 102.5 56t69.5 136l464 1272q29 80 45.5 80t45.5 -74q8 -20 103 -270t206.5 -539t167.5 -426q82 -201 176 -227q37 -12 80 -12q23 0 22 -13q0 -16 -41 -16q-180 0 -321 4q-61 4 -61.5 14.5t14.5 14.5q29 10 12 55l-190 504 q-7 12 -19 12h-440q-14 0 -21 -16l-123 -363q-29 -80 -28 -137q0 -29 22.5 -44t50.5 -15h19q27 0 27 -13q0 -16 -37 -16q-29 0 -87.5 3t-66.5 3q-2 0 -88 -3t-143 -3q-39 0 -39 16zM326 1876q0 12 10 29q14 20 36.5 39.5t30.5 19.5q10 0 13 -12q12 -61 93 -110.5t216 -49.5 q207 0 332 152q16 18 26 18q4 0 6.5 -4t0 -11.5t-8.5 -15.5q-72 -106 -188.5 -166.5t-247.5 -60.5q-156 0 -256 74q-63 51 -63 98zM475 686q-6 -14 6 -14h391q12 0 9 14l-195 553q-14 47 -31 0z" />
<glyph unicode="&#x4d1;" horiz-adv-x="1261" d="M-53 8.5q0 14.5 24 14.5q29 0 41 2q59 6 93 45t65 116l410 1080q16 45 24 57t19 12q14 0 41 -65q4 -10 178 -448.5t237 -590.5q70 -168 156 -198q27 -10 70 -10q25 0 24.5 -14.5t-31.5 -14.5q-174 0 -311 4q-51 2 -51 14q0 10 14 15q23 10 8 45l-161 411q-7 11 -17 11 h-372q-14 0 -21 -17l-90 -256q-35 -98 -35 -145q0 -53 68 -53h14q25 0 25 -14.5t-31 -14.5q-25 0 -89.5 3t-72.5 3q-2 0 -73.5 -3t-122.5 -3q-33 0 -33 14.5zM283 1630q0 8 8 25q14 18 34.5 34.5t28.5 16.5q10 0 13 -8q10 -53 84.5 -95t199.5 -42q193 0 305 129q14 14 25 14 q4 0 5 -3t-1 -9t-6 -15q-68 -94 -174.5 -146t-226.5 -52q-150 0 -238 65q-57 45 -57 86zM424 578q-6 -13 4 -13h328q10 0 6 13l-162 452q-10 31 -22 0z" />
<glyph unicode="&#x4d4;" horiz-adv-x="1867" d="M-143 10q0 12 22 13q59 0 118.5 39.5t93.5 80.5t89 119q70 96 752 1165q37 57 45 86q6 29 20 29q6 0 32 -3t40 -3q422 0 469 2q76 4 94 12q16 8 23 9q8 0 8 -19q0 -4 -7 -33.5t-9 -62.5l-9 -123q-4 -35 -16 -35q-16 0 -16 27q0 41 -11 67q-20 63 -147 76q-53 6 -281 6 q-12 0 -12 -20v-649q0 -20 12 -21q279 0 326 4q78 6 102 35q16 20 25 20q10 0 10 -16q0 -4 -3 -18.5t-7 -41t-6 -55.5q-4 -37 -6 -87t-2 -52q-4 -31 -15 -31q-14 0 -14 33t-8 58q-14 57 -106.5 67t-293.5 10q-14 0 -14 -14v-180v-85v-114v-67q4 -68 17.5 -102t50.5 -48 q45 -18 170 -18q123 0 184 18q47 14 69.5 48t34.5 104q6 31 18.5 30.5t12.5 -30.5q0 -14 -10 -92t-16 -107q-10 -39 -29 -46t-82 -7q-59 0 -299 6q-23 0 -88.5 3t-118.5 3q-47 0 -108.5 -3t-88.5 -3q-33 0 -32 16q0 8 22 13q39 4 47 6q37 8 54.5 47t19.5 145q4 160 4 367v94 q0 16 -18 16h-361q-27 0 -37 -14q-57 -78 -233 -379q-88 -145 -88 -207q0 -76 131 -75q25 0 25 -14.5t-35 -14.5q-51 0 -109.5 1t-99.5 3t-47 2q-4 0 -42 -1t-92.5 -3t-97.5 -2q-27 0 -26 16zM633 791q-10 -19 8 -19h328q18 0 18 16v553q0 6 -3 8.5t-7 0.5t-8 -9 q-29 -43 -176.5 -284.5t-159.5 -265.5z" />
<glyph unicode="&#x4d5;" horiz-adv-x="1652" d="M-135.5 8.5q0.5 14.5 20.5 14.5q78 0 141.5 58t135.5 159q94 117 653 970q25 39 39 72q10 29 20 29q4 0 28 -3t36 -3q381 0 422 2q66 4 80 12q16 8 24 8q6 0 6 -14q0 -4 -7 -36t-9 -60q0 -8 -2 -44t-4 -59q0 -31 -14 -31q-10 0 -15 23q-6 47 -10 55q-10 33 -38 48.5 t-99 19.5q-53 4 -234 4q-10 0 -10 -16v-543q0 -20 12 -21q213 0 277 6q74 4 94 31q10 16 23 17q8 0 8 -13q0 -4 -2 -18t-6 -40t-7 -50q-4 -35 -6 -79t-2 -46q-2 -23 -14 -23t-12 27q0 25 -7 49q-16 55 -98 61q-94 8 -246 9q-14 0 -14 -15v-71v-279q4 -61 15.5 -91t41.5 -42 q39 -18 150 -18q113 0 156 12t60 42t32 93q6 29 18 29t12 -31q0 -51 -22 -178q-6 -31 -22.5 -38t-67.5 -7q-76 0 -156 2t-108 2q-215 6 -242 6q-23 0 -67 -3t-68 -3q-29 0 -29 14.5t19 14.5q33 4 41 6q31 6 47 39.5t22 121.5q4 139 4 306v73q0 14 -16 15h-309q-29 0 -35 -11 q-131 -190 -199 -305q-84 -127 -84 -176q0 -37 26.5 -52t98.5 -17q23 0 23 -14.5t-25 -14.5q-47 0 -103.5 1t-96.5 3t-44 2h-34q-33 -2 -84.5 -4t-94.5 -2q-23 0 -22.5 14.5zM563 672q-12 -19 2 -19h283q16 0 16 15v462q0 12 -10 5q-4 -2 -6 -7q-23 -31 -150 -235.5 t-135 -220.5z" />
<glyph unicode="&#x4d6;" horiz-adv-x="1249" d="M186 1526q0 16 33 16q102 0 232 -6q422 0 469 2q76 4 94 12q16 8 22 9q8 0 8 -19q0 -4 -7 -33.5t-9 -62.5l-8 -123q-4 -35 -16 -35q-16 0 -17 27q0 41 -10 67q-20 63 -148 76q-53 6 -280 6q-12 0 -12 -20v-565q0 -20 12 -21q279 0 325 4q78 6 103 35q16 20 24 20 q10 0 11 -16q0 -4 -3 -18.5t-7.5 -41t-6.5 -55.5q-4 -37 -6 -87t-2 -52q-4 -31 -14 -31q-14 0 -14.5 33t-8.5 58q-14 57 -106 67t-293 10q-14 0 -14 -14v-180v-105.5v-157v-87.5q4 -68 17 -102t50 -48q45 -18 170 -18q123 0 184 18q47 14 70 48t35 104q6 31 18.5 30.5 t12.5 -30.5q0 -14 -10.5 -92t-16.5 -107q-10 -39 -28.5 -46t-82.5 -7q-59 0 -299 6q-246 6 -256 6q-20 0 -71 -4t-80 -2q-33 0 -33 16q0 8 23 13q39 4 47 6q37 8 54 47t19 145q5 160 5 367v360q0 377 -5 443q-4 55 -21 80.5t-67 35.5q-6 2 -16 3t-23.5 2t-19.5 1 q-27 4 -27 13zM287 1884q0 12 10 29q14 20 36.5 39.5t31.5 19.5q10 0 12 -12q12 -61 93 -110.5t216 -49.5q207 0 332 152q16 18 26 18q4 0 6.5 -4t0.5 -11t-9 -16q-72 -106 -188.5 -166.5t-247.5 -60.5q-156 0 -256 74q-63 51 -63 98z" />
<glyph unicode="&#x4d7;" horiz-adv-x="1110" d="M160 1294q0 16 30 17q18 0 84 -2t127 -4q375 0 416 2q61 2 80 10q18 6 23 6q8 0 8 -14q0 -4 -7.5 -34t-9.5 -58q-6 -88 -6 -107q0 -31 -14 -31t-14 23q-2 39 -15 65q-10 33 -34.5 45.5t-98.5 16.5q-53 4 -233 4q-10 0 -11 -16v-465q0 -20 13 -21q211 0 276 6q74 4 94 31 q10 16 23 16q8 0 8 -12q0 -4 -2 -18.5t-6 -40t-6 -49.5q-4 -35 -6 -79t-2 -46q-2 -23 -14.5 -23t-12.5 27q0 25 -6 49q-16 55 -99 61q-94 8 -245 9q-14 0 -15 -15v-149v-88v-122v-69q4 -61 15.5 -91t42.5 -42q39 -18 149 -18q113 0 156 12t60.5 42t31.5 93q6 29 18.5 29 t12.5 -31q0 -51 -23 -178q-6 -31 -22.5 -38t-67.5 -7q-76 0 -155.5 2t-108.5 2q-215 6 -242 6q-23 0 -66.5 -3t-68.5 -3q-29 0 -29 14.5t18.5 14.5t41.5 6q31 6 47 39.5t18 121.5q4 140 4 310v307q0 317 -4 373q-4 45 -19 67.5t-58 30.5q-25 4 -50 4q-27 0 -26 12zM231 1647 q0 8 9 24q14 18 34.5 34.5t28.5 16.5q10 0 12 -8q10 -53 85 -95t200 -42q193 0 305 129q14 14 25 14q4 0 5 -3t-1 -9t-6 -14q-68 -94 -174.5 -146.5t-227.5 -52.5q-150 0 -237 66q-58 45 -58 86z" />
<glyph unicode="&#x4d8;" horiz-adv-x="1703" d="M125 610q0 18 4 52q4 18 10 23t37 7q74 6 500 6h706q18 0 21 17q4 33 4 65q0 328 -181.5 511.5t-477.5 183.5q-283 0 -512 -154q-12 -8 -24.5 -9t-12.5 7q0 16 12 29q98 92 259 157.5t370 65.5q193 0 343 -67.5t238 -180.5t133 -248t45 -282q0 -410 -264 -639 q-211 -182 -522 -183q-143 0 -261 39t-195.5 103.5t-131 148.5t-77 172t-23.5 176zM328 547q0 -201 134 -352.5t380 -151.5q238 0 380 155.5t171 417.5q-1 11 -9 11h-774q-225 0 -260 -4q-23 -4 -22 -76z" />
<glyph unicode="&#x4d9;" horiz-adv-x="1529" d="M106 518q0 29 3 43q6 27 43 31q49 6 434 6h626q14 0 17 14q4 25 4 56q0 276 -155.5 423.5t-420.5 147.5q-256 0 -458 -133q-12 -6 -23.5 -7t-11.5 7q0 14 14 24q88 82 229.5 143.5t323.5 61.5q172 0 306 -55t215 -149.5t122 -210t41 -246.5q0 -344 -239 -545 q-182 -154 -451 -154q-156 0 -278.5 50.5t-194.5 131.5t-109 174t-37 187zM305 465q0 -168 116 -296t331 -128q207 0 326.5 135t142.5 348q-1 8 -7 8h-665q-193 0 -223 -4q-20 -2 -21 -63z" />
<glyph unicode="&#x4e2;" horiz-adv-x="1902" d="M117 1528q0 14 41 14q35 0 124 -3t101 -3q35 0 106.5 3t98.5 3q35 0 35 -12q0 -14 -27 -17q-41 -4 -53 -6q-45 -10 -59.5 -46t-16.5 -163l-4 -1062q143 174 527 648t456 562q102 125 133 125q12 0 17.5 -11.5t9.5 -54.5t4 -129q0 -748 6 -1130q2 -115 19.5 -161t64.5 -54 q23 -4 80 -8q31 -2 30 -15q0 -14 -30 -14q-43 0 -160 3t-127 3q-18 0 -80.5 -3t-103.5 -3q-31 0 -31 12q0 14 31 17q45 4 59 8q41 8 54.5 65.5t15.5 186.5q4 186 5 537t3 491q-156 -195 -574.5 -711t-474.5 -577q-53 -57 -75 -58q-16 0 -21.5 19.5t-5.5 78.5v1192 q0 111 -10.5 163t-26.5 67.5t-53 21.5q-14 2 -37 4t-29 2q-23 2 -22 15zM643 1776l16 61q3 12 23 12h543q25 0 16 -20l-16 -55q-4 -12 -19 -13h-542q-12 0 -17.5 3t-3.5 12z" />
<glyph unicode="&#x4e3;" horiz-adv-x="1685" d="M98 1296q0 14 39 15q31 0 114 -3t93 -3q35 0 98.5 3t87.5 3q33 0 33 -13q0 -14 -24 -16q-8 0 -22.5 -1t-24.5 -3q-37 -6 -51.5 -39t-14.5 -137l-4 -883q797 942 854 1008q94 111 121 110q12 0 17 -10t8 -45t3 -104q4 -618 9 -963q2 -104 16 -141t59 -43q16 -4 76 -8 q25 -4 25 -16.5t-29 -12.5q-37 0 -146.5 3t-119.5 3q-20 0 -76.5 -3t-91.5 -3q-29 0 -29 12t29 14q41 6 49 9q39 8 50 58t14 161q4 154 5 443.5t3 404.5q-844 -1006 -916 -1080q-47 -45 -69 -45q-14 0 -19.5 15.5t-5.5 64.5q0 88 1 296t1 390.5t-2 331.5q-2 135 -17.5 170 t-64.5 39q-10 0 -30.5 1t-28.5 3q-18 2 -19 14zM541 1524l16 57q3 12 23 12h542q25 0 17 -22l-17 -49q-4 -12 -18 -13h-543q-12 0 -17 3.5t-3 11.5z" />
<glyph unicode="&#x4e6;" horiz-adv-x="1873" d="M131 770q0 131 48 266t141.5 257t255 200t362.5 78q352 0 578.5 -208t226.5 -560t-227.5 -595t-589.5 -243q-162 0 -297 48t-225.5 128t-154 186.5t-91 217t-27.5 225.5zM326 827q0 -352 186 -568t469 -216q63 0 130 15.5t147.5 61.5t142 119.5t103.5 204.5t42 301 q0 352 -182 554t-440 202q-266 0 -432 -174t-166 -500zM629 1818.5q0 30.5 20.5 55t59.5 24.5q35 0 56 -21.5t21 -53.5q0 -37 -21 -60.5t-58 -23.5q-39 0 -58.5 24.5t-19.5 55zM1083 1819q0 29 21.5 54t60.5 25q35 0 56.5 -21.5t21.5 -53.5q0 -37 -21.5 -60.5t-58.5 -23.5 q-39 0 -59.5 24.5t-20.5 55.5z" />
<glyph unicode="&#x4e7;" horiz-adv-x="1658" d="M113 655q0 86 25.5 176.5t81.5 181.5t137 161.5t204 115.5t268 45q311 0 513 -176t202 -477q0 -299 -201.5 -505t-523.5 -206q-180 0 -320.5 62.5t-222 164t-122.5 218t-41 239.5zM303 709q0 -301 154.5 -484.5t412.5 -183.5q51 0 104.5 10t124 48t124 98.5t91.5 173 t38 260.5q0 297 -157 469t-378 172q-227 0 -370.5 -143.5t-143.5 -419.5zM522 1616q0 31 20.5 55.5t59.5 24.5q35 0 56.5 -21.5t21.5 -54.5q0 -37 -21.5 -60.5t-58.5 -23.5q-39 0 -58.5 24.5t-19.5 55.5zM977 1616q0 29 21.5 54.5t60.5 25.5q35 0 56.5 -21.5t21.5 -54.5 q0 -37 -21.5 -60.5t-58.5 -23.5q-39 0 -59.5 24.5t-20.5 55.5z" />
<glyph unicode="&#x4e8;" horiz-adv-x="1873" d="M131 770q0 139 48 275.5t141.5 256t254 194.5t363.5 75q356 0 580.5 -208t224.5 -560t-227.5 -595t-589.5 -243q-162 0 -297 48t-225.5 128t-154 186.5t-91 217t-27.5 225.5zM322 858q0 -14 8 -14h1206q10 0 10 16q-20 305 -203.5 473t-433.5 168q-266 0 -422.5 -170 t-164.5 -473zM324 741q18 -330 203.5 -513t449.5 -183q72 0 143.5 16.5t151.5 64.5t140.5 122t100 199.5t39.5 285.5q0 19 -16 19h-1204q-8 0 -8 -11z" />
<glyph unicode="&#x4e9;" horiz-adv-x="1658" d="M113 657q0 115 42 229.5t123.5 217t225 167t325.5 64.5q315 0 515 -175t200 -478q0 -299 -203 -505t-522 -206q-180 0 -320.5 62.5t-222 164t-122.5 219.5t-41 240zM299 731q0 -12 12 -12h1030q10 0 11 14q-18 254 -175 394.5t-374 140.5q-227 0 -362.5 -138.5 t-141.5 -398.5zM301 614q18 -268 176 -417.5t389 -149.5q61 0 122 13.5t130.5 52.5t120.5 100t85 166.5t34 241.5q-1 14 -17 14h-1030q-12 0 -10 -21z" />
<glyph unicode="&#x4ee;" horiz-adv-x="1396" d="M-72 1530q0 12 31 12t107.5 -3t105.5 -3q6 0 78 3t110 3q29 0 29 -10q0 -14 -31 -19q-55 -6 -55 -34q0 -16 35 -82q10 -18 115.5 -217t203 -379t115.5 -213q248 494 373 762q41 90 41 127q0 27 -35 32q-31 6 -31 21q0 10 33 10q16 0 58 -2t67 -2q29 0 100.5 3t87.5 3 q31 0 31 -12t-33 -17q-51 -6 -73 -14q-41 -14 -67 -43t-58 -96q-397 -782 -559 -1120q-84 -182 -93 -222q-2 -18 -14 -20q-31 -6 -330 -6q-33 0 -32.5 14t30.5 14q23 0 51 3q74 6 129.5 44.5t116.5 135.5q70 115 101 182q12 23 -2 53q-53 104 -244 453.5t-254 456.5 q-59 104 -93 131.5t-120 33.5q-25 2 -25 17zM438 1765l17 62q2 12 22 12h543q25 0 16 -20l-16 -56q-4 -12 -19 -12h-542q-12 0 -17.5 3t-3.5 11z" />
<glyph unicode="&#x4ef;" horiz-adv-x="1232" d="M-66 1298q0 12 29 12.5t99.5 -2.5t95.5 -3q6 0 73.5 3t104.5 3q27 0 26 -11q0 -16 -28 -20q-51 -4 -51 -29q0 -12 30 -65q12 -20 182.5 -328.5t190.5 -345.5q240 467 322 635q37 76 36 106q0 16 -38 25q-25 2 -25 18q0 12 25 13q14 0 57 -2t67.5 -2t89 3t78.5 3 q31 0 31 -11q0 -14 -31 -18q-41 -2 -65 -12q-37 -12 -59.5 -36t-53.5 -81q-309 -586 -489 -946q-76 -160 -82 -191q0 -16 -12 -18q-18 -4 -299 -4q-33 0 -33 14.5t28 14.5q14 0 43 2q66 4 116 36.5t106 112.5q49 80 86 152q12 20 -2 45q-47 92 -214 387t-225 385 q-47 82 -82.5 107.5t-103.5 29.5q-23 2 -23 18zM350 1532l17 57q2 13 22 13h543q25 0 16 -23l-16 -49q-2 -12 -19 -12h-542q-12 0 -17.5 3t-3.5 11z" />
<glyph unicode="&#x4f2;" horiz-adv-x="1396" d="M-72 1530q0 12 31 12t107.5 -3t105.5 -3q6 0 78 3t110 3q29 0 29 -10q0 -14 -31 -19q-55 -6 -55 -34q0 -16 35 -82q10 -18 115.5 -217t203 -379t115.5 -213q248 494 373 762q41 90 41 127q0 27 -35 32q-31 6 -31 21q0 10 33 10q16 0 58 -2t67 -2q29 0 100.5 3t87.5 3 q31 0 31 -12t-33 -17q-51 -6 -73 -14q-41 -14 -67 -43t-58 -96q-397 -782 -559 -1120q-84 -182 -93 -222q-2 -18 -14 -20q-31 -6 -330 -6q-33 0 -32.5 14t30.5 14q23 0 51 3q74 6 129.5 44.5t116.5 135.5q70 115 101 182q12 23 -2 53q-53 104 -244 453.5t-254 456.5 q-59 104 -93 131.5t-120 33.5q-25 2 -25 17zM510 1673q6 14 62.5 102t74.5 115q31 39 39 39q12 0 29 -6q70 -31 90 -45q6 -4 8 -7t2 -5t-4 -4q-29 -14 -57 -33q-127 -80 -207 -154q-16 -18 -33 -18q-12 0 -4 16zM870 1671q6 33 156 221q35 37 39 37q16 0 31 -8 q47 -20 88 -47q20 -16 2 -23q-12 -4 -60 -26q-143 -82 -221 -152q-18 -16 -31 -16q-14 0 -4 14z" />
<glyph unicode="&#x4f3;" horiz-adv-x="1232" d="M-66 1298q0 12 29 12.5t99.5 -2.5t95.5 -3q6 0 73.5 3t104.5 3q27 0 26 -11q0 -16 -28 -20q-51 -4 -51 -29q0 -12 30 -65q12 -20 182.5 -328.5t190.5 -345.5q240 467 322 635q37 76 36 106q0 16 -38 25q-25 2 -25 18q0 12 25 13q14 0 57 -2t67.5 -2t89 3t78.5 3 q31 0 31 -11q0 -14 -31 -18q-41 -2 -65 -12q-37 -12 -59.5 -36t-53.5 -81q-309 -586 -489 -946q-76 -160 -82 -191q0 -16 -12 -18q-18 -4 -299 -4q-33 0 -33 14.5t28 14.5q14 0 43 2q66 4 116 36.5t106 112.5q49 80 86 152q12 20 -2 45q-47 92 -214 387t-225 385 q-47 82 -82.5 107.5t-103.5 29.5q-23 2 -23 18zM422 1454q6 14 62.5 102t74.5 115q31 39 39 39q12 0 29 -6q70 -31 90 -45q6 -4 8 -7t2 -5t-4 -5q-29 -14 -57 -32q-127 -80 -207 -154q-16 -18 -33 -18q-12 0 -4 16zM782 1452q6 33 156 221q33 37 39 37q16 0 31 -8 q47 -20 88 -47q20 -16 2 -23q-12 -2 -60 -26q-143 -82 -221 -152q-18 -16 -31 -16q-14 0 -4 14z" />
<glyph unicode="&#x2000;" horiz-adv-x="988" />
<glyph unicode="&#x2001;" horiz-adv-x="1976" />
<glyph unicode="&#x2002;" horiz-adv-x="988" />
<glyph unicode="&#x2003;" horiz-adv-x="1976" />
<glyph unicode="&#x2004;" horiz-adv-x="658" />
<glyph unicode="&#x2005;" horiz-adv-x="494" />
<glyph unicode="&#x2006;" horiz-adv-x="329" />
<glyph unicode="&#x2007;" horiz-adv-x="329" />
<glyph unicode="&#x2008;" horiz-adv-x="247" />
<glyph unicode="&#x2009;" horiz-adv-x="395" />
<glyph unicode="&#x200a;" horiz-adv-x="109" />
<glyph unicode="&#x2010;" horiz-adv-x="706" d="M74 618l26 107q4 16 41 16h443q51 0 51 -16t-68 -31q-344 -61 -405 -80q-16 -4 -36 -11t-30 -10t-14 -3q-12 0 -8 28z" />
<glyph unicode="&#x2011;" horiz-adv-x="706" d="M74 618l26 107q4 16 41 16h443q51 0 51 -16t-68 -31q-344 -61 -405 -80q-16 -4 -36 -11t-30 -10t-14 -3q-12 0 -8 28z" />
<glyph unicode="&#x2012;" horiz-adv-x="706" d="M74 618l26 107q4 16 41 16h443q51 0 51 -16t-68 -31q-344 -61 -405 -80q-16 -4 -36 -11t-30 -10t-14 -3q-12 0 -8 28z" />
<glyph unicode="&#x2013;" horiz-adv-x="1038" d="M63 653q-4 4 0.5 35t12.5 43q6 8 67 8h750q80 0 82 -10t-2 -36.5t-10 -37.5q-4 -10 -70 -10h-748q-80 0 -82 8z" />
<glyph unicode="&#x2014;" horiz-adv-x="1904" d="M63 651q-4 4 0.5 35t12.5 43q6 8 67 8h1614q80 0 82 -10t-2 -36.5t-10 -37.5q-4 -10 -70 -10h-1612q-80 0 -82 8z" />
<glyph unicode="&#x2018;" horiz-adv-x="430" d="M98 1257q0 172 191 396q20 27 35 26q6 0 7 -5t-1 -11t-5 -11l-6 -10q-92 -156 -92 -292q0 -111 58 -168q8 -6 5 -12.5t-14 -6.5q-80 0 -137 29q-41 22 -41 65z" />
<glyph unicode="&#x2019;" horiz-adv-x="430" d="M100 1179.5q4 10.5 11 20.5q92 156 92 293q0 111 -58 168q-8 6 -5 12t14 6q80 0 137 -28q41 -23 41 -66q0 -172 -191 -395q-20 -27 -37 -27q-8 6 -4 16.5z" />
<glyph unicode="&#x201a;" horiz-adv-x="430" d="M100 -266.5q4 10.5 11 20.5q92 156 92 293q0 111 -58 168q-8 6 -5 12t14 6q80 0 137 -28q41 -23 41 -66q0 -172 -191 -395q-20 -27 -37 -27q-8 6 -4 16.5z" />
<glyph unicode="&#x201c;" horiz-adv-x="751" d="M98 1257q0 172 191 396q20 27 37 26q8 -6 4 -16t-11 -21q-92 -156 -92 -292q0 -111 58 -168q8 -6 5 -12.5t-14 -6.5q-80 0 -137 29q-41 22 -41 65zM420 1257q0 172 190 396q20 27 37 26q8 -6 4 -16t-10 -21q-92 -156 -92 -292q0 -111 57 -168q8 -6 5 -12.5t-13 -6.5 q-80 0 -137 29q-41 22 -41 65z" />
<glyph unicode="&#x201d;" horiz-adv-x="751" d="M100 1179.5q4 10.5 11 20.5q92 156 92 293q0 111 -58 168q-8 6 -5 12t14 6q80 0 137 -28q41 -23 41 -66q0 -172 -191 -395q-20 -27 -37 -27q-8 6 -4 16.5zM422 1179.5q4 10.5 10 20.5q92 156 92 293q0 111 -57 168q-8 6 -5 12t13 6q80 0 137 -28q41 -23 41 -66 q0 -172 -190 -395q-20 -27 -37 -27q-8 6 -4 16.5z" />
<glyph unicode="&#x201e;" horiz-adv-x="751" d="M100 -266.5q4 10.5 11 20.5q92 156 92 293q0 111 -58 168q-8 6 -5 12t14 6q80 0 137 -28q41 -23 41 -66q0 -172 -191 -395q-20 -27 -37 -27q-8 6 -4 16.5zM422 -266.5q4 10.5 10 20.5q92 156 92 293q0 111 -57 168q-8 6 -5 12t13 6q80 0 137 -28q41 -23 41 -66 q0 -172 -190 -395q-20 -27 -37 -27q-8 6 -4 16.5z" />
<glyph unicode="&#x2022;" horiz-adv-x="860" d="M252 866q-1 17 24 17q68 0 273 -45q61 -12 61 -35q0 -20 -12 -41t-25.5 -39t-32 -38.5t-30.5 -34t-35.5 -36t-33 -31l-38 -34t-34.5 -31.5q-33 -29 -41 -29q-10 0 -11 11q0 4 13 41q23 78 22 164q0 102 -71 139q-29 14 -29 22z" />
<glyph unicode="&#x2026;" horiz-adv-x="1873" d="M176 92q0 41 28.5 75t80.5 34q45 0 74.5 -30t29.5 -77t-30.5 -78.5t-75.5 -31.5q-49 0 -78 33.5t-29 74.5zM844 92q0 41 28.5 75t79.5 34q45 0 75 -30t30 -77t-31 -78.5t-76 -31.5q-49 0 -77.5 33.5t-28.5 74.5zM1511 92q0 41 29 75t80 34q45 0 74.5 -30t29.5 -77 t-30.5 -78.5t-75.5 -31.5q-49 0 -78 33.5t-29 74.5z" />
<glyph unicode="&#x202f;" horiz-adv-x="395" />
<glyph unicode="&#x2039;" horiz-adv-x="765" d="M147 627q0 8 33 37q43 37 201 186t192 182q25 25 37 25q16 0 -16 -47q-43 -55 -168 -192.5t-154 -174.5q18 -25 303 -324l31 -30q0 -7 -8 -15l-53 -57q-10 -10 -19 -10q-10 0 -53 51q-37 45 -146.5 167t-144.5 156.5t-35 45.5z" />
<glyph unicode="&#x203a;" horiz-adv-x="765" d="M156 209q-18 0 16 47q43 55 168 192.5t154 174.5q-18 25 -304 323l-30 31q0 6 8 14l53 58q10 10 19 10q10 0 53 -51q37 -45 146.5 -167t144 -157t34.5 -45q0 -8 -32 -37q-43 -37 -201 -186.5t-192 -182.5q-25 -25 -37 -24z" />
<glyph unicode="&#x205f;" horiz-adv-x="494" />
<glyph unicode="&#x20ac;" horiz-adv-x="1169" d="M0 664q10 29 20 43q10 16 31 16h76q-2 23 -2 68q0 47 2 73h-57q-31 0 -43 -2q-6 -2 -8.5 2t1.5 13q14 35 25 49q8 12 27 12h61q31 252 148 412q158 221 440 221q109 0 192 -21q117 -27 140 -26q10 0 10 -21q0 -4 -2 -17t-4 -37t-2 -50q-4 -135 -4 -137q0 -29 -15 -29 q-18 0 -18 31q2 102 -41 153q-76 88 -266 88q-113 0 -178.5 -44t-116.5 -118q-96 -139 -115 -405h526q88 0 101 2q8 2 10 -1t-2 -11q-10 -37 -23 -56q-8 -10 -32 -10l-584 2v-53q0 -59 2 -88h508q76 0 98 2q12 0 8 -14q-10 -37 -22 -54q-8 -10 -31 -10l-555 2 q18 -168 69.5 -298t153 -218t236.5 -88q164 0 223 84q29 41 47 133q4 25 21 25q10 0 10 -21q0 -12 -4 -38.5t-11.5 -71.5t-11.5 -84q-6 -41 -37 -60q-80 -47 -247 -47q-293 0 -461 223q-131 174 -162 461h-82q-14 0 -27.5 -1t-15.5 -1q-12 0 -6 17z" />
<glyph unicode="&#x2122;" horiz-adv-x="573" d="M-10 1487q0 4 2 16.5t4 22.5l2 10q0 6 2 6q6 0 21.5 -3t23.5 -3h164q6 0 17.5 2t19.5 2v-18v-35q0 -14 -6 -14q-2 0 -7 10l-2 10q-4 18 -36 18h-54v-200q0 -14 5.5 -18.5t21.5 -8.5q12 -2 12 -6t-12 -4h-31l-22 2l-21 -2h-28.5t-10.5 4q0 2 11 6q25 6 28 23l2 204h-57 q-27 0 -37 -22q-2 -12 -8 -12q-4 0 -4 10zM248 1278q0 6 10 6q25 2 29 29l28 217q0 14 9 14q4 0 12 -12l96 -186l96 188q4 10 11 10q8 0 8 -14l26 -209q4 -37 31 -37h4q10 0 10 -6q0 -4 -10 -4q-53 0 -69 4q-8 0 -9 8l-16 160h-2l-74 -152q-10 -20 -14 -20t-14 16l-80 156 h-2l-13 -133q0 -16 5.5 -20.5t27.5 -8.5q8 -2 8 -6t-8 -4q-6 0 -29.5 1t-25.5 1l-14 -2h-22.5t-8.5 4z" />
<glyph unicode="&#x25fc;" horiz-adv-x="1310" d="M0 0v1311h1311v-1311h-1311z" />
</font>
</defs>
</svg>
